%TF.GenerationSoftware,KiCad,Pcbnew,9.0.9-9.0.9~ubuntu22.04.1*%
%TF.CreationDate,2026-09-18T13:39:47-04:00*%
%TF.ProjectId,haven_dev_board,68617665-6e5f-4646-9576-5f626f617264,rev?*%
%TF.SameCoordinates,Original*%
%TF.FileFunction,Copper,L1,Top*%
%TF.FilePolarity,Positive*%
%FSLAX46Y46*%
G04 Gerber Fmt 4.6, Leading zero omitted, Abs format (unit mm)*
G04 Created by KiCad (PCBNEW 9.0.9-9.0.9~ubuntu22.04.1) date 2026-09-18 13:39:47*
%MOMM*%
%LPD*%
G01*
G04 APERTURE LIST*
%TA.AperFunction,SMDPad,CuDef*%
%ADD10R,0.303100X0.324000*%
%TD*%
%TA.AperFunction,SMDPad,CuDef*%
%ADD11R,0.180000X0.315000*%
%TD*%
%TA.AperFunction,SMDPad,CuDef*%
%ADD12R,0.525000X0.315000*%
%TD*%
%TA.AperFunction,SMDPad,CuDef*%
%ADD13R,0.380000X0.330000*%
%TD*%
%TA.AperFunction,SMDPad,CuDef*%
%ADD14R,0.180000X0.370000*%
%TD*%
%TA.AperFunction,SMDPad,CuDef*%
%ADD15R,0.700000X0.600000*%
%TD*%
%TA.AperFunction,SMDPad,CuDef*%
%ADD16R,0.324000X0.368400*%
%TD*%
%TA.AperFunction,SMDPad,CuDef*%
%ADD17C,0.250000*%
%TD*%
%TA.AperFunction,SMDPad,CuDef*%
%ADD18R,0.790100X0.540000*%
%TD*%
%TA.AperFunction,SMDPad,CuDef*%
%ADD19R,0.368400X0.324000*%
%TD*%
%TA.AperFunction,SMDPad,CuDef*%
%ADD20C,0.180000*%
%TD*%
%TA.AperFunction,SMDPad,CuDef*%
%ADD21R,0.150100X0.250000*%
%TD*%
%TA.AperFunction,SMDPad,CuDef*%
%ADD22R,0.350000X0.500000*%
%TD*%
%TA.AperFunction,SMDPad,CuDef*%
%ADD23R,0.250000X0.200000*%
%TD*%
%TA.AperFunction,SMDPad,CuDef*%
%ADD24R,0.150000X0.500000*%
%TD*%
%TA.AperFunction,SMDPad,CuDef*%
%ADD25O,0.687000X0.364000*%
%TD*%
%TA.AperFunction,SMDPad,CuDef*%
%ADD26R,0.280000X0.170000*%
%TD*%
%TA.AperFunction,SMDPad,CuDef*%
%ADD27R,0.540000X0.790100*%
%TD*%
%TA.AperFunction,SMDPad,CuDef*%
%ADD28R,0.500000X1.080000*%
%TD*%
%TA.AperFunction,SMDPad,CuDef*%
%ADD29R,1.200000X1.050000*%
%TD*%
%TA.AperFunction,SMDPad,CuDef*%
%ADD30R,0.350000X0.200000*%
%TD*%
%TA.AperFunction,SMDPad,CuDef*%
%ADD31R,0.700000X1.200000*%
%TD*%
%TA.AperFunction,SMDPad,CuDef*%
%ADD32R,0.549900X0.400000*%
%TD*%
%TA.AperFunction,ViaPad*%
%ADD33C,0.600000*%
%TD*%
%TA.AperFunction,ViaPad*%
%ADD34C,0.200000*%
%TD*%
%TA.AperFunction,ViaPad*%
%ADD35C,0.300000*%
%TD*%
%TA.AperFunction,Conductor*%
%ADD36C,0.200000*%
%TD*%
%TA.AperFunction,Conductor*%
%ADD37C,0.090000*%
%TD*%
%TA.AperFunction,Conductor*%
%ADD38C,0.149800*%
%TD*%
%TA.AperFunction,Conductor*%
%ADD39C,0.150000*%
%TD*%
%TA.AperFunction,Conductor*%
%ADD40C,0.120000*%
%TD*%
%TA.AperFunction,Conductor*%
%ADD41C,0.179800*%
%TD*%
%TA.AperFunction,Conductor*%
%ADD42C,0.169800*%
%TD*%
%TA.AperFunction,Conductor*%
%ADD43C,0.100000*%
%TD*%
G04 APERTURE END LIST*
D10*
%TO.P,R3,1*%
%TO.N,+1.8V*%
X81610200Y-43286100D03*
%TO.P,R3,2*%
%TO.N,SCL*%
X81610200Y-43769300D03*
%TD*%
D11*
%TO.P,CN1,1*%
%TO.N,SDA2*%
X77531900Y-134785200D03*
%TO.P,CN1,2*%
%TO.N,IO6*%
X77531900Y-132869300D03*
%TO.P,CN1,3*%
%TO.N,3V3*%
X77881900Y-134785200D03*
%TO.P,CN1,4*%
%TO.N,IO5*%
X77881900Y-132869300D03*
%TO.P,CN1,5*%
%TO.N,PDMCLK*%
X78231900Y-134785200D03*
%TO.P,CN1,6*%
%TO.N,IO4*%
X78231900Y-132869300D03*
%TO.P,CN1,7*%
%TO.N,PDMDIN*%
X78581900Y-134785200D03*
%TO.P,CN1,8*%
%TO.N,V_LS*%
X78581900Y-132869300D03*
%TO.P,CN1,9*%
%TO.N,SCL2*%
X78931900Y-134785200D03*
%TO.P,CN1,10*%
%TO.N,GND*%
X78931900Y-132869300D03*
%TO.P,CN1,11*%
%TO.N,SDA1*%
X79281900Y-134785200D03*
%TO.P,CN1,12*%
%TO.N,SCL1*%
X79281900Y-132869800D03*
D12*
%TO.P,CN1,13*%
%TO.N,N/C*%
X79804400Y-134785200D03*
%TO.P,CN1,14*%
X79804700Y-132869500D03*
%TO.P,CN1,15*%
X77009400Y-134785200D03*
%TO.P,CN1,16*%
X77008900Y-132869300D03*
D13*
%TO.P,CN1,17*%
X80511800Y-134402200D03*
%TO.P,CN1,18*%
X80511800Y-133252100D03*
%TO.P,CN1,19*%
X76301700Y-134402200D03*
%TO.P,CN1,20*%
X76301700Y-133252100D03*
D14*
%TO.P,CN1,21*%
X77531900Y-133827100D03*
%TO.P,CN1,22*%
X78121900Y-133827100D03*
%TO.P,CN1,23*%
X78691900Y-133827100D03*
%TO.P,CN1,24*%
X79281900Y-133827100D03*
%TD*%
D15*
%TO.P,SW1,1*%
%TO.N,MR#*%
X77055800Y-108009400D03*
%TO.P,SW1,2*%
X79835800Y-108009400D03*
%TO.P,SW1,3*%
%TO.N,GND*%
X77055800Y-106883400D03*
%TO.P,SW1,4*%
X79835800Y-106883400D03*
%TD*%
D10*
%TO.P,R27,1*%
%TO.N,VUSB*%
X104309900Y-96544300D03*
%TO.P,R27,2*%
%TO.N,$1N98*%
X104309900Y-96061100D03*
%TD*%
D16*
%TO.P,C22,1*%
%TO.N,VUSB*%
X67635700Y-32476899D03*
%TO.P,C22,2*%
%TO.N,GND*%
X68184300Y-32476899D03*
%TD*%
D17*
%TO.P,U14,A2*%
%TO.N,N/C*%
X104759800Y-111427700D03*
%TO.P,U14,A4*%
X105459900Y-111427700D03*
%TO.P,U14,B1*%
X104409800Y-111227800D03*
%TO.P,U14,B3*%
X105109900Y-111227800D03*
%TO.P,U14,B5*%
X105809900Y-111227800D03*
%TO.P,U14,C1*%
X104409800Y-110827700D03*
%TO.P,U14,C5*%
X105809900Y-110827700D03*
%TO.P,U14,D2*%
%TO.N,V_LS*%
X104759800Y-110627600D03*
%TO.P,U14,D4*%
%TO.N,SPI_CS_FLASH*%
X105459900Y-110627600D03*
%TO.P,U14,E3*%
%TO.N,GND*%
X105109900Y-110427700D03*
%TO.P,U14,F2*%
%TO.N,FLASH_RESET*%
X104759800Y-110227800D03*
%TO.P,U14,F4*%
%TO.N,SPI_MISO*%
X105459900Y-110227800D03*
%TO.P,U14,G3*%
%TO.N,SPI_MOSI*%
X105109900Y-110027600D03*
%TO.P,U14,H2*%
%TO.N,SPI_CLK*%
X104759800Y-109827700D03*
%TO.P,U14,H4*%
%TO.N,V_LS*%
X105459900Y-109827700D03*
%TO.P,U14,J1*%
%TO.N,N/C*%
X104409800Y-109627600D03*
%TO.P,U14,J5*%
X105809900Y-109627600D03*
%TO.P,U14,K1*%
X104409800Y-109227800D03*
%TO.P,U14,K3*%
X105109900Y-109227800D03*
%TO.P,U14,K5*%
X105809900Y-109227800D03*
%TO.P,U14,L2*%
X104759800Y-109027600D03*
%TO.P,U14,L4*%
X105459600Y-109027600D03*
%TD*%
D18*
%TO.P,C41,1*%
%TO.N,V_LS*%
X48210400Y-108522300D03*
%TO.P,C41,2*%
%TO.N,GND*%
X48210400Y-107432200D03*
%TD*%
D19*
%TO.P,C7,1*%
%TO.N,V_LS*%
X83185500Y-99077700D03*
%TO.P,C7,2*%
%TO.N,GND*%
X83733900Y-99077700D03*
%TD*%
%TO.P,C26,1*%
%TO.N,V_SD*%
X89409800Y-42926900D03*
%TO.P,C26,2*%
%TO.N,GND*%
X89409800Y-43475300D03*
%TD*%
%TO.P,C40,1*%
%TO.N,V_LS*%
X62260300Y-122603400D03*
%TO.P,C40,2*%
%TO.N,GND*%
X62260300Y-123151800D03*
%TD*%
%TO.P,C4,1*%
%TO.N,GND*%
X111979800Y-96902000D03*
%TO.P,C4,2*%
%TO.N,+1.8V*%
X111979800Y-96353600D03*
%TD*%
%TO.P,C48,1*%
%TO.N,3V3*%
X65117300Y-134528400D03*
%TO.P,C48,2*%
%TO.N,GND*%
X65117300Y-135076800D03*
%TD*%
%TO.P,C47,1*%
%TO.N,V_LS*%
X44570300Y-106568500D03*
%TO.P,C47,2*%
%TO.N,GND*%
X44570300Y-106020100D03*
%TD*%
D20*
%TO.P,U3,A1*%
%TO.N,V_LS*%
X77109900Y-96177400D03*
%TO.P,U3,A2*%
%TO.N,+1.8V*%
X77109900Y-95777600D03*
%TO.P,U3,B1*%
%TO.N,GND*%
X76709900Y-96177400D03*
%TO.P,U3,B2*%
%TO.N,SENSORS_ENABLE*%
X76709900Y-95777600D03*
%TD*%
D21*
%TO.P,Q1,1*%
%TO.N,MR#*%
X105714700Y-42702700D03*
%TO.P,Q1,2*%
%TO.N,+1.8V*%
X106064800Y-42702700D03*
D22*
%TO.P,Q1,3*%
%TO.N,ON+BTN*%
X105890000Y-43352700D03*
%TD*%
D10*
%TO.P,R11,1*%
%TO.N,V_LS*%
X92769700Y-132336100D03*
%TO.P,R11,2*%
%TO.N,SDA2*%
X92769700Y-132819300D03*
%TD*%
D17*
%TO.P,U15,A1*%
%TO.N,GND*%
X57390400Y-112497900D03*
%TO.P,U15,A2*%
%TO.N,V_LS*%
X57740400Y-112497900D03*
%TO.P,U15,A3*%
%TO.N,$1N151*%
X58090400Y-112497900D03*
%TO.P,U15,A4*%
%TO.N,GND*%
X58440400Y-112497900D03*
%TO.P,U15,A5*%
%TO.N,TCK*%
X58790400Y-112497900D03*
%TO.P,U15,A6*%
%TO.N,TMS*%
X59140400Y-112497900D03*
%TO.P,U15,A7*%
%TO.N,TDO*%
X59490400Y-112497900D03*
%TO.P,U15,A8*%
%TO.N,TDI*%
X59840400Y-112497900D03*
%TO.P,U15,B1*%
%TO.N,DOUT*%
X57390400Y-112147900D03*
%TO.P,U15,B2*%
%TO.N,BCLK*%
X57740400Y-112147900D03*
%TO.P,U15,B3*%
%TO.N,$1N151*%
X58090400Y-112147900D03*
%TO.P,U15,B4*%
%TO.N,GND*%
X58440400Y-112147900D03*
%TO.P,U15,B5*%
%TO.N,V_LS*%
X58790400Y-112147900D03*
%TO.P,U15,B6*%
%TO.N,XTALO*%
X59140400Y-112147900D03*
%TO.P,U15,B7*%
%TO.N,XTALI*%
X59490400Y-112147900D03*
%TO.P,U15,B8*%
%TO.N,N/C*%
X59840400Y-112147900D03*
%TO.P,U15,C1*%
%TO.N,DIN*%
X57390400Y-111797900D03*
%TO.P,U15,C2*%
%TO.N,LRCLK*%
X57740400Y-111797900D03*
%TO.P,U15,C3*%
%TO.N,N/C*%
X58090400Y-111797900D03*
%TO.P,U15,C4*%
%TO.N,PDMCLK*%
X58440400Y-111797900D03*
%TO.P,U15,C5*%
%TO.N,PDMDIN*%
X58790400Y-111797900D03*
%TO.P,U15,C6*%
%TO.N,SDA1*%
X59140400Y-111797900D03*
%TO.P,U15,C7*%
%TO.N,SCL1*%
X59490400Y-111797900D03*
%TO.P,U15,C8*%
%TO.N,N/C*%
X59840400Y-111797900D03*
%TO.P,U15,D1*%
%TO.N,V_LS*%
X57390400Y-111447900D03*
%TO.P,U15,D2*%
%TO.N,N/C*%
X57740400Y-111447900D03*
%TO.P,U15,D3*%
X58090400Y-111447900D03*
%TO.P,U15,D4*%
X58440400Y-111447900D03*
%TO.P,U15,D5*%
X58790400Y-111447900D03*
%TO.P,U15,D6*%
%TO.N,GND*%
X59140400Y-111447900D03*
%TO.P,U15,D7*%
X59490400Y-111447900D03*
%TO.P,U15,D8*%
%TO.N,N/C*%
X59840400Y-111447900D03*
%TO.P,U15,E1*%
%TO.N,V_LS*%
X57390400Y-111097900D03*
%TO.P,U15,E2*%
%TO.N,N/C*%
X57740400Y-111097900D03*
%TO.P,U15,E3*%
X58090400Y-111097900D03*
%TO.P,U15,E4*%
%TO.N,DAC_ENABLE*%
X58440400Y-111097900D03*
%TO.P,U15,E5*%
%TO.N,N/C*%
X58790400Y-111097900D03*
%TO.P,U15,E6*%
%TO.N,GND*%
X59140400Y-111097900D03*
%TO.P,U15,E7*%
%TO.N,N/C*%
X59490400Y-111097900D03*
%TO.P,U15,E8*%
X59840400Y-111097900D03*
%TO.P,U15,F1*%
%TO.N,GND*%
X57390400Y-110747900D03*
%TO.P,U15,F2*%
%TO.N,DAC_P*%
X57740400Y-110747900D03*
%TO.P,U15,F3*%
%TO.N,V_LS*%
X58090400Y-110747900D03*
%TO.P,U15,F4*%
%TO.N,N/C*%
X58440400Y-110747900D03*
%TO.P,U15,F5*%
X58790400Y-110747900D03*
%TO.P,U15,F6*%
X59140400Y-110747900D03*
%TO.P,U15,F7*%
%TO.N,V_LS*%
X59490400Y-110747900D03*
%TO.P,U15,F8*%
%TO.N,N/C*%
X59840400Y-110747900D03*
%TO.P,U15,G1*%
%TO.N,DAC_N*%
X57390400Y-110397800D03*
%TO.P,U15,G2*%
%TO.N,V_LS*%
X57740400Y-110397800D03*
%TO.P,U15,G3*%
%TO.N,GND*%
X58090400Y-110397800D03*
%TO.P,U15,G4*%
%TO.N,$1N2586*%
X58440400Y-110397800D03*
%TO.P,U15,G5*%
%TO.N,N/C*%
X58790400Y-110397800D03*
%TO.P,U15,G6*%
X59140400Y-110397800D03*
%TO.P,U15,G7*%
%TO.N,GND*%
X59490400Y-110397800D03*
%TO.P,U15,G8*%
%TO.N,N/C*%
X59840400Y-110397800D03*
%TD*%
D23*
%TO.P,Q2,1*%
%TO.N,LED_ENABLE*%
X69799900Y-43307700D03*
%TO.P,Q2,2*%
%TO.N,GND*%
X69399800Y-43307700D03*
D24*
%TO.P,Q2,3*%
%TO.N,$1N117*%
X69599700Y-42907600D03*
%TD*%
D10*
%TO.P,R9,1*%
%TO.N,V_LS*%
X92659900Y-96542300D03*
%TO.P,R9,2*%
%TO.N,SCL1*%
X92659900Y-96059100D03*
%TD*%
D19*
%TO.P,C42,1*%
%TO.N,GND*%
X47076500Y-100872700D03*
%TO.P,C42,2*%
%TO.N,V_LS*%
X47624900Y-100872700D03*
%TD*%
D25*
%TO.P,LED3,1*%
%TO.N,3V3*%
X77941800Y-117002000D03*
%TO.P,LED3,2*%
%TO.N,RGB_R*%
X78978600Y-117002000D03*
%TO.P,LED3,3*%
%TO.N,RGB_G*%
X78978600Y-116352000D03*
%TO.P,LED3,4*%
%TO.N,RGB_B*%
X77941800Y-116352000D03*
%TD*%
D10*
%TO.P,R1,1*%
%TO.N,SD_STATE_3V3*%
X109645200Y-39815300D03*
%TO.P,R1,2*%
%TO.N,GND*%
X110128400Y-39815300D03*
%TD*%
%TO.P,R26,1*%
%TO.N,USB_DM*%
X96579900Y-96542300D03*
%TO.P,R26,2*%
%TO.N,USB_D-*%
X96579900Y-96059100D03*
%TD*%
%TO.P,R4,1*%
%TO.N,$1N119*%
X73760200Y-43286100D03*
%TO.P,R4,2*%
%TO.N,$1N117*%
X73760200Y-43769300D03*
%TD*%
D19*
%TO.P,C31,1*%
%TO.N,$1N151*%
X59164300Y-113323000D03*
%TO.P,C31,2*%
%TO.N,GND*%
X58615900Y-113323000D03*
%TD*%
D26*
%TO.P,U4,1*%
%TO.N,3V3*%
X65894900Y-43282700D03*
%TO.P,U4,2*%
%TO.N,$1N119*%
X65894900Y-42872800D03*
%TD*%
D10*
%TO.P,R2,1*%
%TO.N,+1.8V*%
X85509700Y-43286100D03*
%TO.P,R2,2*%
%TO.N,SDA*%
X85509700Y-43769300D03*
%TD*%
D27*
%TO.P,C33,1*%
%TO.N,GND*%
X56690100Y-110443100D03*
%TO.P,C33,2*%
%TO.N,V_LS*%
X56690100Y-109353000D03*
%TD*%
D23*
%TO.P,Q3,1*%
%TO.N,SD_STATE_3V3*%
X110710300Y-43927600D03*
%TO.P,Q3,2*%
%TO.N,GND*%
X110710300Y-44327700D03*
D24*
%TO.P,Q3,3*%
%TO.N,SD_STATE*%
X110310200Y-44127800D03*
%TD*%
D28*
%TO.P,CARD1,1*%
%TO.N,N/C*%
X79104700Y-17842800D03*
%TO.P,CARD1,2*%
%TO.N,SPI_CS_SD*%
X78004900Y-17842800D03*
%TO.P,CARD1,3*%
%TO.N,SPI_MOSI_SD*%
X76904800Y-17842800D03*
%TO.P,CARD1,4*%
%TO.N,V_SD*%
X76154700Y-17842800D03*
%TO.P,CARD1,5*%
%TO.N,SPI_CLK_SD*%
X74704900Y-17842800D03*
%TO.P,CARD1,6*%
%TO.N,GND*%
X73604800Y-17842800D03*
%TO.P,CARD1,7*%
%TO.N,SPI_MISO_SD*%
X72504800Y-17842800D03*
%TO.P,CARD1,8*%
%TO.N,$1N36*%
X71404700Y-17842800D03*
D29*
%TO.P,CARD1,10*%
%TO.N,GND*%
X70029800Y-19482600D03*
%TO.P,CARD1,11*%
X70029800Y-23932700D03*
%TO.P,CARD1,12*%
X80479900Y-23932700D03*
%TO.P,CARD1,13*%
X80479900Y-19482600D03*
D28*
%TO.P,CARD1,G*%
%TO.N,SD_STATE_3V3*%
X75454700Y-17842800D03*
%TD*%
D30*
%TO.P,U5,1*%
%TO.N,N/C*%
X87334700Y-118377700D03*
%TO.P,U5,2*%
%TO.N,RGB_B*%
X87334700Y-117977700D03*
%TO.P,U5,3*%
%TO.N,RGB_G*%
X87334700Y-117577600D03*
%TO.P,U5,4*%
%TO.N,RGB_R*%
X87334700Y-117177600D03*
%TO.P,U5,5*%
%TO.N,3V3*%
X88784800Y-117177600D03*
%TO.P,U5,6*%
%TO.N,SCL*%
X88784800Y-117577600D03*
%TO.P,U5,7*%
%TO.N,SDA*%
X88784800Y-117977700D03*
%TO.P,U5,8*%
%TO.N,GND*%
X88784800Y-118377700D03*
D31*
%TO.P,U5,9*%
X88059900Y-117777500D03*
%TD*%
D19*
%TO.P,C32,1*%
%TO.N,$1N2586*%
X64410300Y-100952000D03*
%TO.P,C32,2*%
%TO.N,GND*%
X64410300Y-100403600D03*
%TD*%
%TO.P,C28,1*%
%TO.N,V_SD*%
X106884800Y-34103400D03*
%TO.P,C28,2*%
%TO.N,GND*%
X106884800Y-34651800D03*
%TD*%
D10*
%TO.P,R23,1*%
%TO.N,USB_DP*%
X100489900Y-96542300D03*
%TO.P,R23,2*%
%TO.N,USB_D+*%
X100489900Y-96059100D03*
%TD*%
D19*
%TO.P,C1,1*%
%TO.N,GND*%
X86084300Y-72603000D03*
%TO.P,C1,2*%
%TO.N,+1.8V*%
X85535900Y-72603000D03*
%TD*%
%TO.P,C3,1*%
%TO.N,$1N98*%
X108144800Y-96353400D03*
%TO.P,C3,2*%
%TO.N,GND*%
X108144800Y-96901800D03*
%TD*%
D10*
%TO.P,U8,1*%
%TO.N,LED_ENABLE*%
X77709900Y-43769300D03*
%TO.P,U8,2*%
%TO.N,GND*%
X77709900Y-43286100D03*
%TD*%
D19*
%TO.P,C5,1*%
%TO.N,GND*%
X94362300Y-118101500D03*
%TO.P,C5,2*%
%TO.N,3V3*%
X94362300Y-117553100D03*
%TD*%
D10*
%TO.P,R5,1*%
%TO.N,V_LS*%
X88759900Y-96542300D03*
%TO.P,R5,2*%
%TO.N,SDA1*%
X88759900Y-96059100D03*
%TD*%
D19*
%TO.P,C12,1*%
%TO.N,GND*%
X93359800Y-43475500D03*
%TO.P,C12,2*%
%TO.N,V_LS*%
X93359800Y-42927100D03*
%TD*%
D10*
%TO.P,R10,1*%
%TO.N,V_LS*%
X92769900Y-127669300D03*
%TO.P,R10,2*%
%TO.N,SCL2*%
X92769900Y-127186100D03*
%TD*%
D27*
%TO.P,C16,1*%
%TO.N,GND*%
X68843000Y-31799000D03*
%TO.P,C16,2*%
%TO.N,V_PMID*%
X68843000Y-32889100D03*
%TD*%
D19*
%TO.P,C36,1*%
%TO.N,$1N151*%
X56171000Y-120477700D03*
%TO.P,C36,2*%
%TO.N,GND*%
X56719400Y-120477700D03*
%TD*%
%TO.P,C17,1*%
%TO.N,3V3*%
X62660300Y-43053400D03*
%TO.P,C17,2*%
%TO.N,GND*%
X62660300Y-43601800D03*
%TD*%
D10*
%TO.P,R15,1*%
%TO.N,SPI_MISO_SD*%
X101209700Y-43286100D03*
%TO.P,R15,2*%
%TO.N,V_SD*%
X101209700Y-43769300D03*
%TD*%
D32*
%TO.P,MDBT531,1*%
%TO.N,GND*%
X75010300Y-65927700D03*
%TO.P,MDBT531,2*%
%TO.N,SWCLK*%
X75985200Y-65927700D03*
%TO.P,MDBT531,3*%
%TO.N,LED_ENABLE*%
X76360400Y-66877600D03*
%TO.P,MDBT531,4*%
%TO.N,SWDIO*%
X76735300Y-65927700D03*
%TO.P,MDBT531,5*%
%TO.N,N/C*%
X77110200Y-66877600D03*
%TO.P,MDBT531,6*%
%TO.N,RESETN*%
X77485300Y-65927700D03*
%TO.P,MDBT531,7*%
%TO.N,N/C*%
X77860200Y-66877600D03*
%TO.P,MDBT531,8*%
%TO.N,SCL*%
X78235400Y-65927700D03*
%TO.P,MDBT531,9*%
%TO.N,IO1*%
X78610300Y-66877600D03*
%TO.P,MDBT531,10*%
%TO.N,N/C*%
X78985200Y-65927700D03*
%TO.P,MDBT531,11*%
%TO.N,IO2*%
X79310300Y-66877600D03*
%TO.P,MDBT531,12*%
%TO.N,SDA*%
X79735300Y-65927700D03*
%TO.P,MDBT531,13*%
%TO.N,IO3*%
X80060400Y-66877600D03*
%TO.P,MDBT531,14*%
%TO.N,INT*%
X80485300Y-65927700D03*
%TO.P,MDBT531,15*%
%TO.N,IO6*%
X80810200Y-66877600D03*
%TO.P,MDBT531,16*%
%TO.N,CC_#PG*%
X81235400Y-65927700D03*
%TO.P,MDBT531,17*%
%TO.N,SPI_CS*%
X81560200Y-66877600D03*
%TO.P,MDBT531,18*%
%TO.N,SPI_MISO*%
X81985200Y-65927700D03*
%TO.P,MDBT531,19*%
%TO.N,SPI_MOSI*%
X82310300Y-66877600D03*
%TO.P,MDBT531,20*%
%TO.N,N/C*%
X82735200Y-65927700D03*
%TO.P,MDBT531,21*%
%TO.N,IO5*%
X83060400Y-66877600D03*
%TO.P,MDBT531,22*%
%TO.N,ON+BTN*%
X83485300Y-65927700D03*
%TO.P,MDBT531,23*%
%TO.N,SD_STATE*%
X83810200Y-66877600D03*
%TO.P,MDBT531,24*%
%TO.N,GND*%
X84810200Y-65852700D03*
%TO.P,MDBT531,25*%
%TO.N,GPOUT*%
X84810200Y-66602800D03*
%TO.P,MDBT531,26*%
%TO.N,CC_#CD*%
X84810200Y-67352600D03*
%TO.P,MDBT531,27*%
%TO.N,LSCTRL*%
X83860200Y-67727800D03*
%TO.P,MDBT531,28*%
%TO.N,N/C*%
X84810200Y-68102700D03*
%TO.P,MDBT531,29*%
%TO.N,SPI_CLK*%
X83860200Y-68477600D03*
%TO.P,MDBT531,30*%
%TO.N,N/C*%
X84810200Y-68852700D03*
%TO.P,MDBT531,31*%
%TO.N,SDA2*%
X83860200Y-69227600D03*
%TO.P,MDBT531,32*%
%TO.N,N/C*%
X84810200Y-69602800D03*
%TO.P,MDBT531,33*%
%TO.N,SCL2*%
X83860200Y-69977700D03*
%TO.P,MDBT531,34*%
%TO.N,XL1*%
X84810200Y-70352600D03*
%TO.P,MDBT531,35*%
%TO.N,IO4*%
X83860200Y-70727800D03*
%TO.P,MDBT531,36*%
%TO.N,XL2*%
X84810200Y-71102700D03*
%TO.P,MDBT531,37*%
%TO.N,DAC_ENABLE*%
X83860200Y-71477800D03*
%TO.P,MDBT531,38*%
%TO.N,+1.8V*%
X84810200Y-71852700D03*
%TO.P,MDBT531,39*%
%TO.N,N/C*%
X83860200Y-72227600D03*
%TO.P,MDBT531,40*%
X84810200Y-72602800D03*
%TO.P,MDBT531,41*%
%TO.N,+1.8V*%
X84810200Y-73352600D03*
%TO.P,MDBT531,42*%
%TO.N,GND*%
X84810200Y-74102700D03*
%TO.P,MDBT531,43*%
%TO.N,SPI_CS_FLASH*%
X83810200Y-73077800D03*
%TO.P,MDBT531,44*%
%TO.N,$1N98*%
X83485300Y-74027700D03*
%TO.P,MDBT531,45*%
%TO.N,SCL1*%
X83060400Y-73077800D03*
%TO.P,MDBT531,46*%
%TO.N,USB_D+*%
X82735200Y-74027700D03*
%TO.P,MDBT531,47*%
%TO.N,SDA1*%
X82310300Y-73077800D03*
%TO.P,MDBT531,48*%
%TO.N,USB_D-*%
X81985200Y-74027700D03*
%TO.P,MDBT531,49*%
%TO.N,N/C*%
X81560200Y-73077800D03*
%TO.P,MDBT531,50*%
X81235400Y-74027700D03*
%TO.P,MDBT531,51*%
%TO.N,FLASH_RESET*%
X80810200Y-73077800D03*
%TO.P,MDBT531,52*%
%TO.N,N/C*%
X80485300Y-74027700D03*
%TO.P,MDBT531,53*%
%TO.N,SD_ENABLE*%
X80060400Y-73077800D03*
%TO.P,MDBT531,54*%
%TO.N,N/C*%
X79735300Y-74027700D03*
%TO.P,MDBT531,55*%
%TO.N,SENSORS_ENABLE*%
X79310300Y-73077800D03*
%TO.P,MDBT531,56*%
%TO.N,DOUT*%
X78985200Y-74027700D03*
%TO.P,MDBT531,57*%
%TO.N,LRCLK*%
X78560200Y-73077800D03*
%TO.P,MDBT531,58*%
%TO.N,N/C*%
X78235400Y-74027700D03*
%TO.P,MDBT531,59*%
%TO.N,BCLK*%
X77810200Y-73077800D03*
%TO.P,MDBT531,60*%
%TO.N,DIN*%
X77485300Y-74027700D03*
%TO.P,MDBT531,61*%
%TO.N,GND*%
X75010300Y-74027700D03*
%TO.P,MDBT531,62*%
%TO.N,N/C*%
X76960300Y-67602800D03*
%TO.P,MDBT531,63*%
X76960300Y-68252800D03*
%TO.P,MDBT531,64*%
X76960300Y-69002600D03*
%TO.P,MDBT531,65*%
X76960300Y-69752700D03*
%TD*%
D19*
%TO.P,C43,1*%
%TO.N,V_LS*%
X48556300Y-116926900D03*
%TO.P,C43,2*%
%TO.N,GND*%
X48556300Y-117475300D03*
%TD*%
D20*
%TO.P,U9,A1*%
%TO.N,V_SD*%
X109409400Y-28677400D03*
%TO.P,U9,A2*%
%TO.N,3V3*%
X109409400Y-28277600D03*
%TO.P,U9,B1*%
%TO.N,GND*%
X109009400Y-28677400D03*
%TO.P,U9,B2*%
%TO.N,SD_ENABLE*%
X109009400Y-28277600D03*
%TD*%
D10*
%TO.P,R20,1*%
%TO.N,SPI_CS_SD*%
X97259700Y-43286100D03*
%TO.P,R20,2*%
%TO.N,V_SD*%
X97259700Y-43769300D03*
%TD*%
D19*
%TO.P,C29,1*%
%TO.N,GND*%
X111159800Y-34752000D03*
%TO.P,C29,2*%
%TO.N,3V3*%
X111159800Y-34203600D03*
%TD*%
D33*
%TO.N,LED_ENABLE*%
X76163500Y-68852900D03*
X77054200Y-43971800D03*
%TO.N,$1N119*%
X73095900Y-43165600D03*
X66552600Y-42765000D03*
D34*
%TO.N,$1N151*%
X59190400Y-113497900D03*
X58090400Y-112147900D03*
X56171000Y-120477700D03*
D33*
%TO.N,$1N36*%
X71404700Y-16781400D03*
X50082300Y-5638100D03*
%TO.N,$1N48*%
X79909700Y-4827700D03*
X90188600Y-24675100D03*
%TO.N,$1N49*%
X76909700Y-2362500D03*
X58827500Y-27771600D03*
D34*
%TO.N,$1N65*%
X66298380Y-32250480D03*
X62798380Y-28377800D03*
D33*
%TO.N,$1N98*%
X83104600Y-74747100D03*
X104378000Y-94859700D03*
%TO.N,+1.8V*%
X111979800Y-95669900D03*
X82282600Y-43067000D03*
X78584900Y-95398400D03*
X106612800Y-43083600D03*
X53962500Y-39606500D03*
X80505500Y-58245500D03*
D35*
X66909800Y-30900000D03*
D33*
X85589100Y-73351000D03*
%TO.N,3V3*%
X77296600Y-117488500D03*
X65117300Y-133855600D03*
X64478100Y-43139600D03*
X79413000Y-51909900D03*
X94362300Y-116870500D03*
X89491100Y-116870500D03*
D34*
X66509800Y-31877100D03*
D33*
X110930400Y-31256700D03*
D34*
%TO.N,BCLK*%
X77510200Y-73077800D03*
X58240400Y-109277800D03*
X64140400Y-91977800D03*
X57740400Y-112147900D03*
%TO.N,CC_#CD*%
X67085125Y-36294507D03*
X91985125Y-32694507D03*
X74185125Y-38994507D03*
X90285125Y-34094507D03*
X73485125Y-38994507D03*
%TO.N,CC_#PG*%
X65931158Y-32248676D03*
X77731158Y-52048676D03*
X66031158Y-33948676D03*
%TO.N,DAC_ENABLE*%
X76266460Y-73177800D03*
X81966460Y-71577800D03*
X78466460Y-71377800D03*
X58440400Y-111097900D03*
X65066460Y-98077800D03*
X68166460Y-86577800D03*
X62266460Y-105477800D03*
X59466460Y-108278822D03*
%TO.N,DIN*%
X56897996Y-111884724D03*
X77740617Y-75127676D03*
%TO.N,DOUT*%
X56602553Y-112286818D03*
X79585200Y-75066900D03*
%TO.N,FLASH_RESET*%
X80667915Y-72175175D03*
X104609800Y-110227800D03*
%TO.N,GND*%
X58159700Y-28469200D03*
D35*
X110534100Y-62977600D03*
X57390400Y-113097900D03*
D33*
X79098000Y-129559400D03*
X110518900Y-1142100D03*
D34*
X66373012Y-30437000D03*
X105559851Y-110963931D03*
X69399800Y-44292900D03*
D35*
X78800000Y-25813400D03*
D34*
X68843000Y-31049000D03*
D35*
X96500000Y-34927700D03*
D34*
X61643000Y-113209000D03*
D33*
X61768100Y-123733200D03*
X107454600Y-96815600D03*
X44893000Y-31785500D03*
X70384300Y-119573700D03*
X64287900Y-116381900D03*
X52665300Y-35956600D03*
X84810200Y-74823400D03*
D34*
X86534000Y-72952999D03*
D33*
X63299200Y-24298700D03*
X73642100Y-3273400D03*
D34*
X106334000Y-110828000D03*
D33*
X103546000Y-3135900D03*
X78409500Y-58267800D03*
X62660300Y-44292900D03*
X48210400Y-106646600D03*
X79367300Y-23765300D03*
X64410300Y-99739200D03*
X77043900Y-43073300D03*
X91531100Y-25377800D03*
X84825800Y-65114000D03*
D35*
X89124300Y-72149800D03*
X109009700Y-1552000D03*
D33*
X88059900Y-113896100D03*
D35*
X59230592Y-109947800D03*
X51760300Y-26977800D03*
X68009900Y-31950001D03*
D33*
X109803200Y-63642500D03*
X70028600Y-21317600D03*
D34*
X56719400Y-124327200D03*
D33*
X65812200Y-134990600D03*
X84347200Y-95554900D03*
D34*
X58278094Y-113843442D03*
D35*
X75650000Y-66800000D03*
D34*
X68384000Y-32043987D03*
D33*
X56114700Y-102380700D03*
D35*
X96500000Y-35527800D03*
X58440400Y-113097900D03*
D33*
X48347800Y-118147500D03*
X83729600Y-3273300D03*
D34*
X61955000Y-111436000D03*
D35*
X78931900Y-132069300D03*
D33*
X75774200Y-25820500D03*
D35*
X89124300Y-69649900D03*
X76200000Y-74527700D03*
D33*
X58826700Y-28683000D03*
D35*
X56790400Y-110747900D03*
D34*
X57144278Y-110744604D03*
D33*
X108583300Y-29103500D03*
D35*
X62535500Y-24977600D03*
D34*
X63860000Y-113336000D03*
D33*
X76289500Y-96597800D03*
D34*
X60520000Y-110459000D03*
D33*
X94362300Y-118773800D03*
X57806100Y-20910400D03*
D35*
X58090400Y-109797800D03*
D33*
X107454600Y-85114900D03*
D35*
X67909900Y-33977300D03*
D33*
%TO.N,GPOUT*%
X85608000Y-66602800D03*
X50877200Y-28005600D03*
D34*
%TO.N,INT*%
X66009776Y-33414832D03*
X80199999Y-65400000D03*
X67600000Y-33000000D03*
X80000000Y-58900000D03*
D33*
%TO.N,IO1*%
X78610300Y-67597800D03*
%TO.N,IO2*%
X77802600Y-67753800D03*
X80300000Y-51910300D03*
%TO.N,IO3*%
X78128800Y-69207100D03*
X81515400Y-54084500D03*
%TO.N,IO4*%
X81785400Y-70488800D03*
X78231900Y-132191400D03*
%TO.N,IO6*%
X80590800Y-67598700D03*
X77531900Y-131756900D03*
D34*
%TO.N,LRCLK*%
X57589338Y-111652021D03*
X64000000Y-103377800D03*
X78800000Y-76677799D03*
X59000000Y-108500000D03*
%TO.N,LSCTRL*%
X84195500Y-67486300D03*
D33*
%TO.N,MR#*%
X92802300Y-40860500D03*
X83845600Y-107564300D03*
X65684500Y-34306600D03*
X105254500Y-42242500D03*
%TO.N,ON+BTN*%
X83701800Y-65209500D03*
X105890000Y-44142500D03*
%TO.N,PDMCLK*%
X75487000Y-126733300D03*
D34*
X63240399Y-116997900D03*
X58440400Y-111797900D03*
D33*
X78411100Y-135454700D03*
D34*
%TO.N,PDMDIN*%
X78581900Y-134785200D03*
X58790400Y-111797900D03*
%TO.N,RESETN*%
X67900000Y-33000000D03*
X66109700Y-32877200D03*
D33*
X77603500Y-39225200D03*
X77485300Y-58272700D03*
%TO.N,RGB_B*%
X77298200Y-115847500D03*
X86657800Y-118177700D03*
%TO.N,RGB_G*%
X79830300Y-116274000D03*
X86105900Y-117577600D03*
D34*
%TO.N,SCL*%
X80235400Y-74598600D03*
D33*
X82278500Y-43982700D03*
X52260200Y-28117600D03*
X78235400Y-65198600D03*
X65264400Y-31468500D03*
D34*
X89284800Y-117577600D03*
X87435400Y-114498600D03*
%TO.N,SCL1*%
X61788533Y-113726262D03*
X85488533Y-100454500D03*
X83688533Y-101654500D03*
D33*
X92002100Y-95854500D03*
X83060400Y-72354400D03*
D34*
X59490400Y-111797900D03*
X76188533Y-109154500D03*
D33*
%TO.N,SCL2*%
X82588100Y-70126900D03*
X92101900Y-126971300D03*
%TO.N,SDA*%
X86164700Y-43769300D03*
D34*
X87035299Y-114623500D03*
D33*
X51578900Y-28607200D03*
D34*
X85535299Y-110723500D03*
D33*
X79735300Y-65223500D03*
D34*
X64809699Y-32877200D03*
X89235300Y-118023500D03*
%TO.N,SDA1*%
X59100400Y-111797900D03*
X69940400Y-118599823D03*
D33*
X88759900Y-95372300D03*
D34*
X79440400Y-132399823D03*
X60640400Y-109199823D03*
D33*
X82102000Y-72367800D03*
X79281900Y-135446100D03*
%TO.N,SDA2*%
X80619000Y-109800500D03*
X77545200Y-135450800D03*
X83062800Y-69448400D03*
X92091600Y-133044200D03*
%TO.N,SD_ENABLE*%
X108583300Y-27851500D03*
X79901600Y-72364700D03*
D34*
%TO.N,SD_STATE*%
X110284318Y-44224392D03*
X84220600Y-65750000D03*
D33*
%TO.N,SD_STATE_3V3*%
X75682900Y-18912700D03*
X109520600Y-38068700D03*
%TO.N,SENSORS_ENABLE*%
X76709900Y-95166300D03*
X78854900Y-72352600D03*
D34*
%TO.N,SPI_CLK*%
X104845836Y-109704827D03*
X83268831Y-68438048D03*
X93868831Y-59100000D03*
X93559400Y-32095200D03*
D33*
%TO.N,SPI_CLK_SD*%
X74704900Y-18898600D03*
X93459400Y-36597800D03*
D34*
%TO.N,SPI_CS*%
X82360200Y-64945300D03*
X82160200Y-67916830D03*
X82660200Y-63545300D03*
D33*
%TO.N,SPI_CS_SD*%
X78004900Y-18886800D03*
X96876500Y-42645500D03*
X92514500Y-36600000D03*
D34*
%TO.N,SPI_MISO*%
X93385200Y-34795200D03*
X88985199Y-42295200D03*
X81585200Y-64727700D03*
X92085199Y-36095200D03*
X105585200Y-110327700D03*
X86685200Y-76327700D03*
X94385200Y-84027700D03*
D33*
%TO.N,SPI_MISO_SD*%
X72504800Y-16782600D03*
X100630600Y-42801200D03*
D34*
%TO.N,SPI_MOSI*%
X91220724Y-33695200D03*
X82220724Y-68295200D03*
X87020724Y-46995200D03*
X82720724Y-68005231D03*
X81920724Y-64995200D03*
X85020724Y-55395200D03*
%TO.N,SPI_MOSI_SD*%
X93104800Y-35742800D03*
X93104800Y-32742800D03*
X76904800Y-17842800D03*
D33*
%TO.N,SWCLK*%
X75780000Y-58274500D03*
%TO.N,SWDIO*%
X76735300Y-58676100D03*
D34*
%TO.N,TCK*%
X78390400Y-53197700D03*
%TO.N,TDI*%
X76010200Y-53097700D03*
X64840400Y-90897700D03*
X75740400Y-54597700D03*
%TO.N,TDO*%
X61890400Y-102897700D03*
X76810300Y-53097700D03*
X59490400Y-112497900D03*
%TO.N,TMS*%
X65099999Y-91197700D03*
X77610100Y-53097700D03*
X58200000Y-106397700D03*
X59237652Y-112397192D03*
X58000000Y-109000000D03*
D33*
%TO.N,TS*%
X45566900Y-12093500D03*
X44895400Y-4446400D03*
D34*
X66579799Y-32877200D03*
D33*
%TO.N,USB_D+*%
X99830200Y-96080100D03*
X82529400Y-75305900D03*
%TO.N,USB_D-*%
X81901100Y-74785500D03*
X96067800Y-95547000D03*
%TO.N,USB_DM*%
X85260400Y-2359200D03*
X85258800Y-24371200D03*
X95893000Y-96549400D03*
%TO.N,USB_DP*%
X100279100Y-97207000D03*
X80981700Y-25802900D03*
X78702900Y-4824700D03*
%TO.N,VCC*%
X62210600Y-25661400D03*
D34*
X66909800Y-33677300D03*
D33*
X51760300Y-24395400D03*
D34*
X62622700Y-25661400D03*
D33*
%TO.N,VUSB*%
X74027900Y-25486800D03*
X84539700Y-24810200D03*
X46651400Y-12087000D03*
D34*
X66135618Y-29742281D03*
D33*
X76486600Y-4844700D03*
D34*
X67739900Y-33292300D03*
D33*
X103632200Y-96384000D03*
%TO.N,V_BAT*%
X50026900Y-24021800D03*
X58067300Y-22258000D03*
%TO.N,V_LS*%
X92769900Y-131008600D03*
D35*
X57565400Y-109900000D03*
D33*
X76294100Y-110531800D03*
X91108500Y-116191500D03*
X48059500Y-99724900D03*
X83185500Y-99755700D03*
X77532900Y-96600400D03*
X90996000Y-35127700D03*
D34*
X92114202Y-34377900D03*
D33*
X77459400Y-125401200D03*
X57204800Y-102386400D03*
D34*
X94527600Y-34227900D03*
D35*
X57915400Y-112947900D03*
D33*
X97859800Y-116849900D03*
X93338700Y-96549400D03*
X69884800Y-131463600D03*
D35*
X96000000Y-34327900D03*
D34*
X104859800Y-110800805D03*
D33*
X48556300Y-110549100D03*
X62260300Y-121909000D03*
X80430700Y-59329700D03*
D34*
X58090400Y-110747900D03*
X78311900Y-133334400D03*
D33*
X94073200Y-43011700D03*
D35*
X56790400Y-111447900D03*
D34*
X105384800Y-109697796D03*
X59490400Y-110747900D03*
%TO.N,V_PMID*%
X69374818Y-32472000D03*
X67109000Y-32877200D03*
D33*
X53966500Y-33044900D03*
X78261600Y-25401800D03*
X54539400Y-32472000D03*
%TO.N,V_SD*%
X76154700Y-16790600D03*
X105651600Y-3702800D03*
X101209700Y-44459900D03*
X107769300Y-32755200D03*
X89408200Y-38145600D03*
%TO.N,XL1*%
X85820100Y-70600900D03*
%TO.N,XL2*%
X85795500Y-71529100D03*
D34*
%TO.N,XTALI*%
X59402706Y-112168145D03*
X60245000Y-111624000D03*
%TO.N,XTALO*%
X59140400Y-112147900D03*
X62282000Y-113837000D03*
%TD*%
D36*
%TO.N,LED_ENABLE*%
X77709900Y-43769300D02*
X77256700Y-43769300D01*
D37*
X73899899Y-44107699D02*
X77599899Y-43807700D01*
X69799900Y-43307700D02*
X71099899Y-44007700D01*
X77599899Y-43807700D02*
X77709900Y-43769300D01*
D36*
X76360400Y-66877600D02*
X76360400Y-68656000D01*
X76360400Y-68656000D02*
X76163500Y-68852900D01*
X77054200Y-43971800D02*
X77256700Y-43769300D01*
D37*
X71099899Y-44007700D02*
X73899899Y-44107699D01*
D38*
%TO.N,$1N117*%
X69599700Y-42907600D02*
X69599700Y-42381000D01*
X70226800Y-42907500D02*
X70226800Y-42775800D01*
D36*
X73760200Y-43769300D02*
X71088600Y-43769300D01*
D38*
X69832000Y-42381000D02*
X69599700Y-42381000D01*
X70226800Y-42775800D02*
X69832000Y-42381000D01*
D36*
X71088600Y-43769300D02*
X70226800Y-42907500D01*
D39*
%TO.N,$1N119*%
X73332000Y-43286100D02*
X73216400Y-43286100D01*
X73216400Y-43286100D02*
X73095900Y-43165600D01*
D36*
X66444400Y-42765000D02*
X66552600Y-42765000D01*
X66336600Y-42872800D02*
X66444400Y-42765000D01*
X65894900Y-42872800D02*
X66336600Y-42872800D01*
D39*
X73760200Y-43286100D02*
X73332000Y-43286100D01*
D37*
%TO.N,$1N151*%
X58090400Y-112497900D02*
X58090400Y-112147900D01*
X59190400Y-113497900D02*
X59190400Y-113297900D01*
D36*
X56171000Y-120478000D02*
X56171000Y-120477700D01*
D37*
%TO.N,$1N2586*%
X58650000Y-109940400D02*
X58650000Y-106712300D01*
X58440400Y-110150000D02*
X58650000Y-109940400D01*
X58650000Y-106712300D02*
X64410300Y-100952000D01*
X58440400Y-110273800D02*
X58440400Y-110150000D01*
D36*
%TO.N,$1N36*%
X71404700Y-17842800D02*
X71404700Y-16781400D01*
D37*
%TO.N,$1N65*%
X65698380Y-31077800D02*
X62798380Y-28377800D01*
X66298380Y-32250480D02*
X65698380Y-31077800D01*
D36*
%TO.N,$1N98*%
X104309900Y-96061100D02*
X104310000Y-96061100D01*
X108128600Y-96337200D02*
X108128600Y-96082100D01*
X104309900Y-96061100D02*
X104309900Y-95597400D01*
D39*
X104759200Y-96082100D02*
X104738200Y-96061100D01*
D36*
X104309900Y-95597400D02*
X104309900Y-94927800D01*
X83485300Y-74529400D02*
X83267600Y-74747100D01*
X104309900Y-94927800D02*
X104378000Y-94859700D01*
X108144800Y-96353400D02*
X108128600Y-96337200D01*
D39*
X104309900Y-96061100D02*
X104738200Y-96061100D01*
D36*
X83267600Y-74747100D02*
X83104600Y-74747100D01*
D39*
X108128600Y-96082100D02*
X104759200Y-96082100D01*
D36*
X83485300Y-74027700D02*
X83485300Y-74529400D01*
%TO.N,+1.8V*%
X85386900Y-73352600D02*
X85386900Y-72209400D01*
X84810200Y-73352600D02*
X85386900Y-73352600D01*
X84837400Y-43067000D02*
X85056500Y-43286100D01*
X106366900Y-42802500D02*
X106612800Y-43048400D01*
D40*
X106164600Y-42802500D02*
X106064800Y-42702700D01*
D36*
X111979800Y-95669900D02*
X111979800Y-96353600D01*
D41*
X77489100Y-95398400D02*
X77109900Y-95777600D01*
D36*
X85509700Y-43286100D02*
X85056500Y-43286100D01*
X82282600Y-43067000D02*
X82063500Y-43286100D01*
X82282600Y-43067000D02*
X84837400Y-43067000D01*
X85386900Y-73352600D02*
X85587500Y-73352600D01*
X85030200Y-71852700D02*
X84810200Y-71852700D01*
X78655600Y-95327700D02*
X78584900Y-95398400D01*
D38*
X106366900Y-42802500D02*
X106164600Y-42802500D01*
D36*
X85587500Y-73352600D02*
X85589100Y-73351000D01*
X81610200Y-43286100D02*
X82063500Y-43286100D01*
X78584900Y-95398400D02*
X77489100Y-95398400D01*
D37*
X85386900Y-72209400D02*
X85486899Y-72609400D01*
D36*
X106612800Y-43048400D02*
X106612800Y-43083600D01*
X85386900Y-72209400D02*
X85030200Y-71852700D01*
D37*
%TO.N,3V3*%
X78142372Y-136262411D02*
X77881900Y-134785200D01*
D36*
X65117300Y-133855600D02*
X65117300Y-134528400D01*
D37*
X65894900Y-43282700D02*
X65594900Y-43177100D01*
X65594900Y-43177100D02*
X65494900Y-43077100D01*
D42*
X64335000Y-43139600D02*
X63790600Y-43139600D01*
D37*
X65594900Y-40777100D02*
X66509800Y-31877100D01*
D36*
X111159800Y-31486100D02*
X111159800Y-34203600D01*
D42*
X63790600Y-43053400D02*
X63131100Y-43053400D01*
D36*
X64478100Y-43139600D02*
X64621200Y-43282700D01*
D39*
X88784800Y-117177600D02*
X89236500Y-117177600D01*
D36*
X63790600Y-43053400D02*
X63790600Y-43139600D01*
D39*
X89236500Y-117177600D02*
X89236500Y-117125100D01*
D37*
X65817300Y-134428400D02*
X78017300Y-136228400D01*
D36*
X94362300Y-117553000D02*
X94362300Y-117553100D01*
D39*
X89236500Y-117125100D02*
X89491100Y-116870500D01*
D36*
X110930400Y-31256700D02*
X111159800Y-31486100D01*
D41*
X110930400Y-28277600D02*
X109409400Y-28277600D01*
D36*
X64621200Y-43282700D02*
X65894900Y-43282700D01*
X94362300Y-116870500D02*
X94362300Y-117553100D01*
X65117300Y-134528000D02*
X65117300Y-134528400D01*
X110930400Y-31256700D02*
X110930400Y-28277600D01*
D37*
X65494900Y-43077100D02*
X65594900Y-40777100D01*
D42*
X62660300Y-43053400D02*
X63131100Y-43053400D01*
D37*
X65117300Y-134528400D02*
X65817300Y-134428400D01*
D36*
X111159800Y-34203600D02*
X111160000Y-34203600D01*
X64335000Y-43139600D02*
X64478100Y-43139600D01*
X77296600Y-117488500D02*
X77296600Y-117002000D01*
D37*
X78017300Y-136228400D02*
X78142372Y-136262411D01*
D36*
X77941800Y-117002000D02*
X77296600Y-117002000D01*
D39*
%TO.N,BCLK*%
X77810200Y-73077800D02*
X76770970Y-73677799D01*
D37*
X58240400Y-109277800D02*
X58340400Y-106577800D01*
X77510200Y-73077800D02*
X77810200Y-73077800D01*
X58340400Y-106577800D02*
X64140400Y-91977800D01*
%TO.N,CC_#CD*%
X74185125Y-38994507D02*
X90285125Y-34094507D01*
X94285125Y-31894507D02*
X94885125Y-34194507D01*
X67085125Y-36294507D02*
X73485125Y-38994507D01*
X91985125Y-32694507D02*
X93285125Y-31394507D01*
X93285125Y-31394507D02*
X93885125Y-31394507D01*
X94285125Y-59194507D02*
X86010200Y-67352600D01*
D39*
X84810200Y-67352600D02*
X86010200Y-67352600D01*
D37*
X93885125Y-31394507D02*
X94285125Y-31894507D01*
X94885125Y-34194507D02*
X94985125Y-47694507D01*
X94985125Y-47694507D02*
X94285125Y-59194507D01*
%TO.N,CC_#PG*%
X78831158Y-53148676D02*
X80635400Y-64888470D01*
X65931158Y-32248676D02*
X65831158Y-33548676D01*
X77731158Y-52048676D02*
X78831158Y-53148676D01*
D39*
X81235400Y-65927700D02*
X80635400Y-64888470D01*
D37*
X65831158Y-33548676D02*
X66031158Y-33948676D01*
%TO.N,DAC_ENABLE*%
X59466460Y-108277800D02*
X62266460Y-105477800D01*
X76266460Y-73177800D02*
X78466460Y-71377800D01*
D39*
X83860200Y-71477800D02*
X82678431Y-71686177D01*
D37*
X65066460Y-98077800D02*
X68166460Y-86577800D01*
X81966460Y-71577800D02*
X83866460Y-71477800D01*
D39*
%TO.N,DIN*%
X77485300Y-74027700D02*
X78085300Y-75066930D01*
D37*
X78085300Y-75066900D02*
X77740617Y-75127676D01*
X56602553Y-111936818D02*
X57390400Y-111797900D01*
X56897996Y-111884724D02*
X56602553Y-111936818D01*
%TO.N,DOUT*%
X79585200Y-75066900D02*
X79585200Y-75066900D01*
D39*
X78985200Y-74027700D02*
X79585200Y-75066930D01*
D37*
X56602553Y-112286818D02*
X57390400Y-112147900D01*
%TO.N,FLASH_RESET*%
X104609800Y-110227800D02*
X104759800Y-110227800D01*
D39*
X80810200Y-73077800D02*
X80399776Y-71950169D01*
D37*
X80399800Y-71950200D02*
X80667915Y-72175175D01*
D43*
%TO.N,GND*%
X75250000Y-74027700D02*
X75700000Y-74027700D01*
D39*
X88333100Y-118377700D02*
X88332900Y-118377900D01*
D36*
X64410300Y-99939900D02*
X64410300Y-99739200D01*
D43*
X78931900Y-132869000D02*
X78931900Y-132869300D01*
D36*
X84347200Y-95554900D02*
X84120000Y-95327700D01*
X94362300Y-118101500D02*
X94362300Y-118565200D01*
X83634100Y-95791400D02*
X83733900Y-95891200D01*
X80479900Y-23932700D02*
X79578200Y-23932700D01*
D39*
X88784800Y-118377700D02*
X88333100Y-118377700D01*
D36*
X93359800Y-43475500D02*
X91631700Y-43475500D01*
D43*
X75250000Y-66400000D02*
X75650000Y-66800000D01*
D36*
X77055800Y-106281700D02*
X76289500Y-105515400D01*
X47076500Y-106020100D02*
X47076500Y-100872700D01*
X48210400Y-106860500D02*
X48210400Y-106646600D01*
X56719400Y-120478000D02*
X56719400Y-120477700D01*
X84810200Y-74102700D02*
X84810200Y-74823400D01*
X80479900Y-23932700D02*
X80479900Y-19482600D01*
X110128400Y-42064100D02*
X109581100Y-42611400D01*
X47076500Y-100873000D02*
X47076500Y-100872700D01*
X48210400Y-107432200D02*
X48210400Y-106860500D01*
X61885800Y-123615500D02*
X62260300Y-123615500D01*
X88059900Y-117777500D02*
X88059900Y-113896100D01*
D37*
X59140400Y-111097900D02*
X59140400Y-111447900D01*
X56690100Y-110443100D02*
X57190100Y-110743100D01*
D36*
X77709900Y-43286100D02*
X77256700Y-43286100D01*
X110128400Y-34752000D02*
X107470900Y-34752000D01*
D37*
X105409900Y-110927700D02*
X105559851Y-110963931D01*
D36*
X110128400Y-39815300D02*
X110128400Y-42064100D01*
D37*
X58578094Y-113323000D02*
X58278094Y-113823000D01*
D36*
X83634100Y-95327700D02*
X84120000Y-95327700D01*
X48347800Y-118147500D02*
X48556300Y-117939000D01*
X91631500Y-25478200D02*
X91631500Y-43475300D01*
X79184100Y-106883400D02*
X77707500Y-106883400D01*
D37*
X69399800Y-44292900D02*
X69399800Y-43307700D01*
X59140400Y-111447900D02*
X59490400Y-111447900D01*
D36*
X111979800Y-96902000D02*
X108630900Y-96902000D01*
X110092000Y-44729600D02*
X110485400Y-44729600D01*
D41*
X108583300Y-29103500D02*
X109009400Y-28677400D01*
D36*
X88309600Y-118377900D02*
X88059900Y-118128200D01*
X77055800Y-106883400D02*
X77707500Y-106883400D01*
X108144800Y-96901800D02*
X108630700Y-96901800D01*
X109581100Y-44218700D02*
X110092000Y-44729600D01*
X91531100Y-25377800D02*
X91631500Y-25478200D01*
X76289500Y-96597800D02*
X76709900Y-96177400D01*
X62260300Y-123152000D02*
X62260300Y-123151800D01*
X88059900Y-118128200D02*
X88059900Y-117777500D01*
X109581100Y-42611400D02*
X109581100Y-44218700D01*
D43*
X78931900Y-132869300D02*
X78931900Y-132069300D01*
D36*
X76289500Y-105515400D02*
X76289500Y-96597800D01*
X83733900Y-95891200D02*
X83733900Y-99077700D01*
X73604800Y-17842800D02*
X73604800Y-18684500D01*
D39*
X110685400Y-44529600D02*
X110685400Y-44352600D01*
D36*
X91631500Y-43475300D02*
X89895700Y-43475300D01*
D37*
X68843000Y-31049000D02*
X68843000Y-31849000D01*
D39*
X65812200Y-134990600D02*
X65664400Y-134990600D01*
D36*
X70029800Y-23932700D02*
X70029800Y-21317600D01*
X111159800Y-34752000D02*
X110128400Y-34752000D01*
D39*
X107454600Y-96815600D02*
X107597700Y-96815600D01*
D36*
X56719400Y-124327000D02*
X56719400Y-124327200D01*
X77055800Y-106883400D02*
X77055800Y-106281700D01*
X84810200Y-65129600D02*
X84825800Y-65114000D01*
X48210400Y-107432000D02*
X48210400Y-107432200D01*
D39*
X110685400Y-44352600D02*
X110710300Y-44327700D01*
D37*
X58440400Y-112271900D02*
X58440400Y-112373900D01*
D36*
X62660300Y-44292900D02*
X62660300Y-43601800D01*
X94362300Y-118102000D02*
X94362300Y-118101500D01*
D37*
X59490400Y-110273800D02*
X59230592Y-109947800D01*
D36*
X61768100Y-123733200D02*
X61885800Y-123615500D01*
X110485400Y-44729600D02*
X110685400Y-44529600D01*
X84810200Y-65852700D02*
X84810200Y-65129600D01*
X110128400Y-34752000D02*
X110128400Y-39815300D01*
D43*
X75700000Y-74027700D02*
X76200000Y-74527700D01*
D36*
X107470900Y-34752000D02*
X107370700Y-34651800D01*
D43*
X75250000Y-65927700D02*
X75250000Y-66400000D01*
D36*
X70029800Y-19482600D02*
X72806700Y-19482600D01*
X106884800Y-34651800D02*
X106398900Y-34651800D01*
D39*
X65664400Y-134990600D02*
X65578200Y-135076800D01*
D37*
X57266400Y-110747900D02*
X56790400Y-110747900D01*
D36*
X106398900Y-31287900D02*
X108583300Y-29103500D01*
D37*
X68384300Y-32043987D02*
X68184300Y-32443987D01*
D36*
X108630900Y-96902000D02*
X108630700Y-96901800D01*
D37*
X57390400Y-112621900D02*
X57390400Y-113097900D01*
D36*
X70029800Y-21317600D02*
X70029800Y-19482600D01*
X94362300Y-118565200D02*
X94362300Y-118773800D01*
X77043900Y-43073300D02*
X77256700Y-43286100D01*
D39*
X88332900Y-118377900D02*
X88309600Y-118377900D01*
D36*
X106884800Y-34651800D02*
X107370700Y-34651800D01*
D39*
X108144800Y-96901800D02*
X107683900Y-96901800D01*
X65117300Y-135076800D02*
X65578200Y-135076800D01*
X107597700Y-96815600D02*
X107683900Y-96901800D01*
D36*
X83634100Y-95327700D02*
X83634100Y-95791400D01*
X48556300Y-117475300D02*
X48556300Y-117939000D01*
D37*
X105109900Y-110427700D02*
X105209899Y-110827700D01*
D36*
X64410300Y-100403600D02*
X64410300Y-99939900D01*
X62260300Y-123151800D02*
X62260300Y-123615500D01*
X106398900Y-34651800D02*
X106398900Y-31287900D01*
X72806700Y-19482600D02*
X73604800Y-18684500D01*
X70029800Y-21317600D02*
X70028600Y-21317600D01*
X79835800Y-106883400D02*
X79184100Y-106883400D01*
D37*
X86084300Y-72603000D02*
X86484300Y-72902999D01*
D36*
X47076500Y-106020100D02*
X47370000Y-106020100D01*
X44570300Y-106020100D02*
X47076500Y-106020100D01*
D37*
X58090400Y-110273800D02*
X58090400Y-109797800D01*
D36*
X89409800Y-43475300D02*
X89895700Y-43475300D01*
X79410800Y-23765300D02*
X79578200Y-23932700D01*
D37*
X105209899Y-110827700D02*
X105409900Y-110927700D01*
D36*
X91631700Y-43475500D02*
X91631500Y-43475300D01*
D37*
X58440400Y-112621900D02*
X58440400Y-113097900D01*
D36*
X56719400Y-120477700D02*
X56719400Y-124327200D01*
X47370000Y-106020100D02*
X48210400Y-106860500D01*
X79367300Y-23765300D02*
X79410800Y-23765300D01*
%TO.N,GPOUT*%
X84810200Y-66602800D02*
X85608000Y-66602800D01*
D37*
%TO.N,INT*%
X78000000Y-43100000D02*
X78199999Y-44000000D01*
X80199999Y-65400000D02*
X80485300Y-65927700D01*
X78199999Y-44000000D02*
X79600000Y-57400000D01*
X67899999Y-33200000D02*
X78000000Y-43100000D01*
X67600000Y-33000000D02*
X67899999Y-33200000D01*
X79600000Y-57400000D02*
X80000000Y-58900000D01*
D36*
%TO.N,IO1*%
X78610300Y-66877600D02*
X78610300Y-67379300D01*
X78610300Y-67379300D02*
X78610300Y-67597800D01*
%TO.N,IO2*%
X78250000Y-68201200D02*
X77802600Y-67753800D01*
X78862400Y-68201200D02*
X78250000Y-68201200D01*
X79310300Y-66877600D02*
X79310300Y-67753300D01*
X79310300Y-67753300D02*
X78862400Y-68201200D01*
%TO.N,IO3*%
X79937300Y-67726800D02*
X78457000Y-69207100D01*
X78457000Y-69207100D02*
X78128800Y-69207100D01*
X80060400Y-66877600D02*
X79937300Y-67000700D01*
X79937300Y-67000700D02*
X79937300Y-67726800D01*
%TO.N,IO4*%
X82028100Y-70731500D02*
X81785400Y-70488800D01*
X83279900Y-70731500D02*
X82028100Y-70731500D01*
X83283600Y-70727800D02*
X83279900Y-70731500D01*
D43*
X78231900Y-132191400D02*
X78231900Y-132869300D01*
X78231900Y-132869000D02*
X78231900Y-132869300D01*
D36*
X83860200Y-70727800D02*
X83283600Y-70727800D01*
D37*
%TO.N,IO5*%
X80181900Y-107459400D02*
X76581900Y-107459400D01*
X76381900Y-107659400D02*
X76381900Y-108359400D01*
X76381900Y-73559400D02*
X84681900Y-95059400D01*
X76681900Y-117659400D02*
X80981900Y-133159400D01*
X77181900Y-134059399D02*
X77181900Y-133459400D01*
D39*
X83060400Y-66877600D02*
X83268777Y-68059369D01*
D37*
X80381900Y-107359400D02*
X80181900Y-107459400D01*
X84981900Y-95459400D02*
X84181900Y-99359400D01*
X84181900Y-99359400D02*
X80381900Y-107359400D01*
X76381900Y-108359400D02*
X76981900Y-111059400D01*
X77881900Y-133059399D02*
X77881900Y-132869300D01*
X84681900Y-95059400D02*
X84981900Y-95459400D01*
X76981900Y-111059400D02*
X76681900Y-115959400D01*
X77181900Y-133459400D02*
X77781900Y-133259400D01*
X83268800Y-68059400D02*
X82481900Y-68659399D01*
X76581900Y-107459400D02*
X76381900Y-107659400D01*
X82481900Y-68659399D02*
X77281900Y-72759400D01*
X77281900Y-134259400D02*
X77181900Y-134059399D01*
X79481900Y-134259400D02*
X77281900Y-134259400D01*
X77281900Y-72759400D02*
X76381900Y-73559400D01*
X77781900Y-133259400D02*
X77881900Y-133059399D01*
X80981900Y-133559399D02*
X79481900Y-134259400D01*
X80981900Y-133159400D02*
X80981900Y-133559399D01*
X76681900Y-115959400D02*
X76681900Y-117659400D01*
D36*
%TO.N,IO6*%
X80810200Y-67379300D02*
X80590800Y-67598700D01*
X80810200Y-66877600D02*
X80810200Y-67379300D01*
D43*
X77531900Y-131756900D02*
X77531900Y-132869300D01*
X77531900Y-132869000D02*
X77531900Y-132869300D01*
D37*
%TO.N,LRCLK*%
X59000000Y-108500000D02*
X60300000Y-107077800D01*
X60300000Y-107077800D02*
X64000000Y-103377800D01*
X78800000Y-76677799D02*
X78560200Y-73077800D01*
X57740400Y-111797900D02*
X57589338Y-111652021D01*
%TO.N,LSCTRL*%
X83860200Y-67727800D02*
X84260200Y-67727800D01*
D39*
X84260200Y-67727800D02*
X84195500Y-67486300D01*
D36*
%TO.N,MR#*%
X77707500Y-108009400D02*
X79184100Y-108009400D01*
X79835800Y-108009000D02*
X83400900Y-108009000D01*
X79835800Y-108009400D02*
X79835800Y-108009000D01*
X77055800Y-108009400D02*
X77707500Y-108009400D01*
X83400900Y-108009000D02*
X83845600Y-107564300D01*
X77055800Y-108009400D02*
X77055800Y-108009000D01*
D40*
X105576300Y-42564300D02*
X105714700Y-42702700D01*
D36*
X105254500Y-42242500D02*
X105576300Y-42564300D01*
X79835800Y-108009400D02*
X79184100Y-108009400D01*
%TO.N,ON+BTN*%
X83485300Y-65426000D02*
X83701800Y-65209500D01*
X105890000Y-44142500D02*
X105890000Y-43352700D01*
X83485300Y-65927700D02*
X83485300Y-65426000D01*
%TO.N,PDMCLK*%
X78411100Y-135423800D02*
X78231900Y-135244600D01*
D37*
X65040400Y-117197900D02*
X75440400Y-126697900D01*
D36*
X78411100Y-135454700D02*
X78411100Y-135423800D01*
D43*
X78231900Y-135244600D02*
X78231900Y-134785200D01*
D37*
X63240399Y-116997900D02*
X65040400Y-117197900D01*
D36*
%TO.N,RESETN*%
X77485300Y-65927700D02*
X77485300Y-58272700D01*
%TO.N,RGB_B*%
X77296600Y-116352000D02*
X77296600Y-115849100D01*
X86657800Y-118177700D02*
X86857800Y-117977700D01*
X77941800Y-116352000D02*
X77296600Y-116352000D01*
X77296600Y-115849100D02*
X77298200Y-115847500D01*
D39*
X86857800Y-117977700D02*
X87334700Y-117977700D01*
%TO.N,RGB_G*%
X86105900Y-117577600D02*
X87334700Y-117577600D01*
D36*
X79701800Y-116274000D02*
X79830300Y-116274000D01*
X79623800Y-116352000D02*
X79701800Y-116274000D01*
X78978600Y-116352000D02*
X79623800Y-116352000D01*
D39*
%TO.N,RGB_R*%
X78978600Y-117002000D02*
X79598800Y-117002000D01*
X85850600Y-117002000D02*
X86018400Y-116834200D01*
X79598800Y-117002000D02*
X85850600Y-117002000D01*
D36*
X86993200Y-116834200D02*
X86018400Y-116834200D01*
D39*
X87334700Y-117175700D02*
X87334700Y-117177600D01*
D36*
X87334700Y-117175700D02*
X86993200Y-116834200D01*
%TO.N,SCL*%
X82276900Y-43982700D02*
X82278500Y-43982700D01*
X81610200Y-43769300D02*
X82063500Y-43769300D01*
D37*
X83335400Y-77698600D02*
X80235400Y-74598600D01*
X87435400Y-114498600D02*
X83335400Y-77698600D01*
X88784800Y-117577600D02*
X89284800Y-117577600D01*
D36*
X78235400Y-65927700D02*
X78235400Y-65198600D01*
X82063500Y-43769300D02*
X82276900Y-43982700D01*
%TO.N,SCL1*%
X92206700Y-96059100D02*
X92002100Y-95854500D01*
D37*
X83688533Y-101654500D02*
X85488533Y-100454500D01*
D36*
X83060400Y-73077800D02*
X83060400Y-72354400D01*
X92659900Y-96059100D02*
X92206700Y-96059100D01*
D37*
X61788533Y-113726262D02*
X76188533Y-109154500D01*
X79188533Y-131926262D02*
X79288533Y-132826262D01*
X61788533Y-113726262D02*
X62988533Y-117026262D01*
X62988533Y-117026262D02*
X70988533Y-124726262D01*
X70988533Y-124726262D02*
X79188533Y-131926262D01*
%TO.N,SCL2*%
X78931900Y-134785200D02*
X78931900Y-134771300D01*
X79131900Y-135871300D02*
X79431900Y-135871300D01*
D36*
X83860200Y-69977700D02*
X83711000Y-70126900D01*
D37*
X78931900Y-134771300D02*
X78831900Y-135571300D01*
D36*
X92769900Y-127186100D02*
X92769900Y-127186000D01*
X92101900Y-126971300D02*
X92316700Y-127186100D01*
D37*
X78831900Y-135571300D02*
X79131900Y-135871300D01*
D36*
X92769900Y-127186100D02*
X92316700Y-127186100D01*
D37*
X79431900Y-135871300D02*
X92031900Y-126971300D01*
X92031900Y-126971300D02*
X92101900Y-126971300D01*
D36*
X83711000Y-70126900D02*
X82588100Y-70126900D01*
D37*
%TO.N,SDA*%
X85535299Y-110723500D02*
X87035299Y-114623500D01*
X89235300Y-118023500D02*
X88784800Y-117977700D01*
D39*
X85938000Y-43769300D02*
X86164700Y-43769300D01*
D36*
X79735300Y-65927700D02*
X79735300Y-65223500D01*
D39*
X85509700Y-43769300D02*
X85938000Y-43769300D01*
D37*
%TO.N,SDA1*%
X75940400Y-126599823D02*
X79340400Y-131899823D01*
D36*
X82102000Y-72367800D02*
X82310300Y-72576100D01*
X82310300Y-73077800D02*
X82310300Y-72576100D01*
D37*
X59140400Y-111797900D02*
X59100400Y-111797900D01*
D43*
X79281900Y-135446100D02*
X79281900Y-134785200D01*
D37*
X79340400Y-131899823D02*
X79440400Y-132399823D01*
X69940400Y-118599823D02*
X69940400Y-119699823D01*
D36*
X88759900Y-96059100D02*
X88759900Y-95372300D01*
D37*
X69940400Y-119699823D02*
X75940400Y-126599823D01*
D36*
%TO.N,SDA2*%
X83860200Y-69227600D02*
X83283600Y-69227600D01*
X92769700Y-132819300D02*
X92316500Y-132819300D01*
D43*
X77531900Y-135437500D02*
X77545200Y-135450800D01*
D36*
X92091600Y-133044200D02*
X92316500Y-132819300D01*
X92769700Y-132819300D02*
X92769700Y-132819000D01*
D43*
X77531900Y-134785200D02*
X77531900Y-135437500D01*
D36*
X83283600Y-69227600D02*
X83062800Y-69448400D01*
%TO.N,SD_ENABLE*%
X79901600Y-72417300D02*
X79901600Y-72364700D01*
X108583300Y-27851500D02*
X109009400Y-28277600D01*
X80060400Y-73077800D02*
X80060400Y-72576100D01*
X109009400Y-28277600D02*
X109009000Y-28277600D01*
X80060400Y-72576100D02*
X79901600Y-72417300D01*
D37*
%TO.N,SD_STATE*%
X110284318Y-44224392D02*
X110310200Y-44127800D01*
D39*
X83810200Y-66877600D02*
X84220624Y-65749969D01*
D36*
%TO.N,SD_STATE_3V3*%
X110710300Y-45131300D02*
X111112000Y-44729600D01*
X109645200Y-38193300D02*
X109645200Y-39815300D01*
X75454700Y-17842800D02*
X75454700Y-18684500D01*
X109520600Y-38068700D02*
X109645200Y-38193300D01*
X109925700Y-45131300D02*
X110710300Y-45131300D01*
X109645200Y-39815300D02*
X109645000Y-39815300D01*
D39*
X110710300Y-43927600D02*
X111112000Y-43927600D01*
D36*
X75454700Y-18684500D02*
X75682900Y-18912700D01*
D39*
X111112000Y-44729600D02*
X111112000Y-43927600D01*
D36*
X109179400Y-44385000D02*
X109925700Y-45131300D01*
X109645200Y-39815300D02*
X109645200Y-40279000D01*
X109645200Y-40279000D02*
X109179400Y-40744800D01*
X109179400Y-40744800D02*
X109179400Y-44385000D01*
%TO.N,SENSORS_ENABLE*%
X79310300Y-73077800D02*
X79310300Y-72808000D01*
D41*
X76709900Y-95166300D02*
X76709900Y-95777600D01*
D36*
X79310300Y-72808000D02*
X78854900Y-72352600D01*
D37*
%TO.N,SPI_CLK*%
X93868831Y-59100000D02*
X94659399Y-42995200D01*
D39*
X83860200Y-68477600D02*
X82732569Y-68888024D01*
D37*
X94659399Y-42995200D02*
X93559400Y-32195200D01*
X82732600Y-68888000D02*
X83268831Y-68438048D01*
X104845836Y-109704827D02*
X104759800Y-109827700D01*
D36*
%TO.N,SPI_CLK_SD*%
X74704900Y-18898600D02*
X74704900Y-17842800D01*
D37*
%TO.N,SPI_CS*%
X82360200Y-64945300D02*
X82660200Y-63545300D01*
D39*
X81560200Y-66877600D02*
X82160200Y-67916830D01*
D37*
%TO.N,SPI_CS_FLASH*%
X84320600Y-75105400D02*
X106220600Y-109205400D01*
X105720600Y-110505400D02*
X105459900Y-110627600D01*
X106220600Y-109205400D02*
X106120600Y-109805399D01*
X106120600Y-109805399D02*
X105720600Y-110505400D01*
D39*
X83810200Y-73077800D02*
X84220624Y-74205431D01*
D37*
X84220600Y-74205400D02*
X84320600Y-75105400D01*
D36*
%TO.N,SPI_CS_SD*%
X78004900Y-18684500D02*
X78004900Y-18886800D01*
X97259700Y-42822400D02*
X97053400Y-42822400D01*
X97259700Y-43286100D02*
X97259700Y-42822400D01*
X78004900Y-17842800D02*
X78004900Y-18684500D01*
X97053400Y-42822400D02*
X96876500Y-42645500D01*
D37*
%TO.N,SPI_MISO*%
X92085199Y-36095200D02*
X93385200Y-34795200D01*
X81585200Y-64727700D02*
X81485200Y-65027699D01*
X105459900Y-110227800D02*
X105485200Y-110227700D01*
X105485200Y-110227700D02*
X105585200Y-110327700D01*
X81485199Y-64888470D02*
X88985199Y-42295200D01*
X94385200Y-84027700D02*
X86685200Y-76327700D01*
X81485200Y-65027699D02*
X81985200Y-65927700D01*
D39*
X81985200Y-65927700D02*
X81385200Y-64888470D01*
D36*
%TO.N,SPI_MISO_SD*%
X72504800Y-16782600D02*
X72504800Y-17842800D01*
X101209700Y-43286100D02*
X100756500Y-43286100D01*
X100630600Y-42801200D02*
X100756500Y-42927100D01*
X100756500Y-42927100D02*
X100756500Y-43286100D01*
D37*
%TO.N,SPI_MOSI*%
X84220724Y-68195200D02*
X83420724Y-67995200D01*
D39*
X82310300Y-66877600D02*
X82720724Y-68005231D01*
D37*
X83120724Y-68995200D02*
X84120724Y-68795200D01*
X81620724Y-73795200D02*
X81920724Y-73295200D01*
X83420724Y-67995200D02*
X83420724Y-66595199D01*
X81720724Y-72595199D02*
X81320724Y-70495200D01*
X81520724Y-74895199D02*
X81620724Y-73795200D01*
X83420724Y-66595199D02*
X82720724Y-66595199D01*
X81920724Y-64995200D02*
X82220724Y-65295199D01*
X87020724Y-46995200D02*
X88920724Y-37795200D01*
X88920724Y-37795200D02*
X90520724Y-34795200D01*
X81920724Y-72695200D02*
X81720724Y-72595199D01*
X81320724Y-70495200D02*
X82320724Y-69095199D01*
X84220724Y-68695200D02*
X84220724Y-68195200D01*
X82220724Y-65295199D02*
X82520724Y-65295199D01*
X82520724Y-65295199D02*
X84220724Y-63295200D01*
X82320724Y-67995200D02*
X82220724Y-68195200D01*
X84220724Y-63295200D02*
X85020724Y-55395200D01*
X104420724Y-109895199D02*
X88120724Y-96395199D01*
X82320724Y-69095199D02*
X83120724Y-68995200D01*
X81920724Y-73295200D02*
X81920724Y-72695200D01*
X90520724Y-34795200D02*
X91220724Y-33695200D01*
X88120724Y-96395199D02*
X83520724Y-77695200D01*
X83520724Y-77695200D02*
X81520724Y-74895199D01*
X105109900Y-110027600D02*
X105120724Y-109995200D01*
X105020724Y-109595200D02*
X104820724Y-109495200D01*
X82220724Y-68195200D02*
X82220724Y-68295200D01*
X105120724Y-109995200D02*
X105020724Y-109595200D01*
X82720724Y-66595199D02*
X82320724Y-67995200D01*
X84120724Y-68795200D02*
X84220724Y-68695200D01*
X104820724Y-109495200D02*
X104420724Y-109895199D01*
%TO.N,SPI_MOSI_SD*%
X93104800Y-32742800D02*
X93604800Y-34842800D01*
X93604800Y-34842800D02*
X93104800Y-35742800D01*
D36*
%TO.N,SWCLK*%
X75985200Y-65426000D02*
X75780000Y-65220800D01*
X75985200Y-65927700D02*
X75985200Y-65426000D01*
X75780000Y-65220800D02*
X75780000Y-58274500D01*
%TO.N,SWDIO*%
X76735300Y-58676100D02*
X76735300Y-65927700D01*
D37*
%TO.N,TCK*%
X58890400Y-112797700D02*
X59890400Y-112897700D01*
X58790400Y-112497900D02*
X58790400Y-112497700D01*
X59890400Y-112897700D02*
X66190400Y-106697700D01*
X70890400Y-65097700D02*
X78390400Y-53197700D01*
X66190400Y-106697700D02*
X70890400Y-65097700D01*
X58790400Y-112497700D02*
X58890400Y-112797700D01*
%TO.N,TDI*%
X64840400Y-101197700D02*
X64840400Y-90897700D01*
X75740400Y-54597700D02*
X76010200Y-53097700D01*
X62540400Y-109197700D02*
X64840400Y-101197700D01*
X59840400Y-112497900D02*
X62540400Y-109197700D01*
%TO.N,TDO*%
X61890400Y-102897700D02*
X70590400Y-64897700D01*
X70590400Y-64897700D02*
X76810300Y-53097700D01*
%TO.N,TMS*%
X59140400Y-112497900D02*
X59237652Y-112397192D01*
X70800000Y-64897700D02*
X77610100Y-53097700D01*
X65099999Y-91197700D02*
X70800000Y-64897700D01*
X58000000Y-109000000D02*
X58200000Y-106397700D01*
%TO.N,TS*%
X46566900Y-12693500D02*
X45566900Y-12093500D01*
X66579799Y-32877200D02*
X66766899Y-31893500D01*
X66766899Y-31893500D02*
X46566900Y-12693500D01*
D36*
%TO.N,USB_D+*%
X82735200Y-74027700D02*
X82735200Y-74265700D01*
X82735200Y-74265700D02*
X82502900Y-74498000D01*
X82502900Y-74498000D02*
X82502900Y-75279400D01*
D39*
X100061700Y-96059100D02*
X100040700Y-96080100D01*
D36*
X82502900Y-75279400D02*
X82529400Y-75305900D01*
D39*
X100040700Y-96080100D02*
X99830200Y-96080100D01*
X100489900Y-96059100D02*
X100061700Y-96059100D01*
D36*
%TO.N,USB_D-*%
X96067800Y-95547000D02*
X96579900Y-96059100D01*
X81985200Y-74027700D02*
X81985200Y-74701400D01*
X81985200Y-74701400D02*
X81901100Y-74785500D01*
%TO.N,USB_DM*%
X95893000Y-96549400D02*
X96119600Y-96549400D01*
X96119600Y-96549400D02*
X96126700Y-96542300D01*
X96579900Y-96542300D02*
X96126700Y-96542300D01*
%TO.N,USB_DP*%
X100480100Y-97006000D02*
X100279100Y-97207000D01*
X100489900Y-96542300D02*
X100489900Y-97006000D01*
X100489900Y-97006000D02*
X100480100Y-97006000D01*
D37*
%TO.N,VCC*%
X62622700Y-25661400D02*
X66922700Y-31861400D01*
X66722700Y-33061400D02*
X66922700Y-33261400D01*
X66922700Y-31861400D02*
X66722700Y-33061400D01*
X66922700Y-33261400D02*
X66909800Y-33677300D01*
D36*
%TO.N,VUSB*%
X103856700Y-96544300D02*
X103792500Y-96544300D01*
D37*
X67335618Y-30742281D02*
X67635618Y-32442281D01*
D36*
X104309900Y-96544300D02*
X103856700Y-96544300D01*
X103792500Y-96544300D02*
X103632200Y-96384000D01*
D37*
X66135618Y-29742281D02*
X67135618Y-30542281D01*
X67135618Y-30542281D02*
X67335618Y-30742281D01*
D36*
%TO.N,V_LS*%
X92769700Y-132336000D02*
X92769700Y-132336100D01*
D41*
X77532900Y-96600400D02*
X77109900Y-96177400D01*
D37*
X104759800Y-110627600D02*
X104859800Y-110727600D01*
D36*
X48210400Y-108522300D02*
X48210400Y-109094000D01*
X92769700Y-131008800D02*
X92769700Y-132336100D01*
X93338700Y-96549400D02*
X93120300Y-96549400D01*
D37*
X57740400Y-112772900D02*
X57915400Y-112947900D01*
X57266400Y-111097900D02*
X57140000Y-111097900D01*
D36*
X48210400Y-109094000D02*
X48210400Y-110203200D01*
X48556300Y-110549100D02*
X48556300Y-116926900D01*
X93120300Y-96549400D02*
X93113200Y-96542300D01*
X78451900Y-133344400D02*
X78581900Y-133214400D01*
D37*
X105459900Y-109827700D02*
X105384800Y-109697796D01*
X57740400Y-112621900D02*
X57740400Y-112772900D01*
D36*
X83185500Y-99755700D02*
X83185500Y-99077700D01*
D37*
X104859800Y-110727600D02*
X104859800Y-110800805D01*
D41*
X78321900Y-133344400D02*
X78451900Y-133344400D01*
D37*
X93727600Y-31727900D02*
X93427600Y-31727900D01*
D36*
X48059500Y-99724900D02*
X47624900Y-100159500D01*
D37*
X57740400Y-110397800D02*
X58090400Y-110747900D01*
D36*
X92769900Y-127669300D02*
X92769900Y-128133000D01*
D39*
X48210400Y-108522300D02*
X47538700Y-108522300D01*
D37*
X104859800Y-110800805D02*
X104759800Y-110627600D01*
D36*
X62260300Y-121909000D02*
X62260300Y-122603400D01*
D37*
X94527600Y-34227900D02*
X94527600Y-34327900D01*
D36*
X62260300Y-122603000D02*
X62260300Y-122603400D01*
D37*
X57140000Y-111097900D02*
X56790400Y-111447900D01*
D36*
X92769900Y-131008600D02*
X92769700Y-131008800D01*
D37*
X94527600Y-34327900D02*
X93927600Y-31927900D01*
D39*
X47018800Y-108002400D02*
X47538700Y-108522300D01*
D37*
X57266400Y-111447900D02*
X56790400Y-111447900D01*
D36*
X92769900Y-128133000D02*
X92769900Y-131008600D01*
D37*
X57590100Y-109853000D02*
X56690100Y-109353000D01*
D39*
X44570300Y-108002400D02*
X47018800Y-108002400D01*
D43*
X78581900Y-133214400D02*
X78581900Y-132869300D01*
D36*
X44570300Y-106568500D02*
X44570300Y-108002400D01*
D37*
X92927600Y-32227900D02*
X92027600Y-34327900D01*
D39*
X93905300Y-43011700D02*
X94073200Y-43011700D01*
X93820700Y-42927100D02*
X93905300Y-43011700D01*
D37*
X57740400Y-110273800D02*
X57740400Y-110147800D01*
D36*
X47624900Y-100159500D02*
X47624900Y-100872700D01*
D39*
X93359800Y-42927100D02*
X93820700Y-42927100D01*
D41*
X78311900Y-133334400D02*
X78321900Y-133344400D01*
D36*
X88759900Y-96542300D02*
X92659900Y-96542300D01*
D37*
X92027600Y-34327900D02*
X92114202Y-34377900D01*
X57740400Y-110147800D02*
X57565400Y-109900000D01*
X93427600Y-31727900D02*
X92927600Y-32227900D01*
D36*
X48210400Y-110203200D02*
X48556300Y-110549100D01*
D37*
X93927600Y-31927900D02*
X93727600Y-31727900D01*
D36*
X92659900Y-96542300D02*
X93113200Y-96542300D01*
D37*
%TO.N,V_PMID*%
X69343000Y-32472000D02*
X68843000Y-32872000D01*
D36*
%TO.N,V_SD*%
X106884800Y-34103400D02*
X106885000Y-34103400D01*
X89409800Y-38147200D02*
X89408200Y-38145600D01*
X106884800Y-33639700D02*
X107769300Y-32755200D01*
X101209700Y-43769300D02*
X101210000Y-43769300D01*
X97259700Y-43769300D02*
X101209700Y-43769300D01*
X76154700Y-16790600D02*
X76154700Y-17842800D01*
X107769300Y-32755200D02*
X109409400Y-31115100D01*
X89409800Y-42926900D02*
X89409800Y-38147200D01*
X109409400Y-31115100D02*
X109409400Y-28677400D01*
X101209700Y-43769300D02*
X101209700Y-44459900D01*
X106884800Y-34103400D02*
X106884800Y-33639700D01*
X109409400Y-28677400D02*
X109409000Y-28677400D01*
D39*
%TO.N,XL1*%
X85361900Y-70352600D02*
X85610200Y-70600900D01*
X84810200Y-70352600D02*
X85361900Y-70352600D01*
X85610200Y-70600900D02*
X85820100Y-70600900D01*
D36*
%TO.N,XL2*%
X84810200Y-71102700D02*
X85386900Y-71102700D01*
X85386900Y-71102700D02*
X85386900Y-71120500D01*
X85386900Y-71120500D02*
X85795500Y-71529100D01*
D37*
%TO.N,XTALI*%
X59490400Y-112147900D02*
X59402706Y-112168145D01*
%TD*%
M02*
