%TF.GenerationSoftware,KiCad,Pcbnew,9.0.9-9.0.9~ubuntu22.04.1*%
%TF.CreationDate,2026-09-18T13:39:47-04:00*%
%TF.ProjectId,haven_dev_board,68617665-6e5f-4646-9576-5f626f617264,rev?*%
%TF.SameCoordinates,Original*%
%TF.FileFunction,Copper,L6,Bot*%
%TF.FilePolarity,Positive*%
%FSLAX46Y46*%
G04 Gerber Fmt 4.6, Leading zero omitted, Abs format (unit mm)*
G04 Created by KiCad (PCBNEW 9.0.9-9.0.9~ubuntu22.04.1) date 2026-09-18 13:39:47*
%MOMM*%
%LPD*%
G01*
G04 APERTURE LIST*
G04 Aperture macros list*
%AMRotRect*
0 Rectangle, with rotation*
0 The origin of the aperture is its center*
0 $1 length*
0 $2 width*
0 $3 Rotation angle, in degrees counterclockwise*
0 Add horizontal line*
21,1,$1,$2,0,0,$3*%
G04 Aperture macros list end*
%TA.AperFunction,SMDPad,CuDef*%
%ADD10RotRect,0.900000X0.800000X225.000000*%
%TD*%
%TA.AperFunction,SMDPad,CuDef*%
%ADD11RotRect,0.368400X0.324000X315.000000*%
%TD*%
%TA.AperFunction,SMDPad,CuDef*%
%ADD12R,0.303100X0.324000*%
%TD*%
%TA.AperFunction,SMDPad,CuDef*%
%ADD13R,0.730000X0.530000*%
%TD*%
%TA.AperFunction,SMDPad,CuDef*%
%ADD14R,0.696000X0.704600*%
%TD*%
%TA.AperFunction,SMDPad,CuDef*%
%ADD15R,0.704600X0.696000*%
%TD*%
%TA.AperFunction,SMDPad,CuDef*%
%ADD16R,0.696000X0.704500*%
%TD*%
%TA.AperFunction,SMDPad,CuDef*%
%ADD17R,0.675000X0.250000*%
%TD*%
%TA.AperFunction,SMDPad,CuDef*%
%ADD18R,0.250000X0.675000*%
%TD*%
%TA.AperFunction,SMDPad,CuDef*%
%ADD19R,0.324000X0.368400*%
%TD*%
%TA.AperFunction,SMDPad,CuDef*%
%ADD20R,0.368400X0.324000*%
%TD*%
%TA.AperFunction,SMDPad,CuDef*%
%ADD21R,0.790100X0.540000*%
%TD*%
%TA.AperFunction,SMDPad,CuDef*%
%ADD22R,1.800000X1.450000*%
%TD*%
%TA.AperFunction,SMDPad,CuDef*%
%ADD23R,1.800000X1.400000*%
%TD*%
%TA.AperFunction,SMDPad,CuDef*%
%ADD24R,0.600000X1.450000*%
%TD*%
%TA.AperFunction,SMDPad,CuDef*%
%ADD25R,0.300000X1.450000*%
%TD*%
%TA.AperFunction,SMDPad,CuDef*%
%ADD26C,0.250000*%
%TD*%
%TA.AperFunction,SMDPad,CuDef*%
%ADD27R,0.565700X0.540000*%
%TD*%
%TA.AperFunction,SMDPad,CuDef*%
%ADD28R,0.300000X0.520000*%
%TD*%
%TA.AperFunction,SMDPad,CuDef*%
%ADD29R,0.508000X1.370100*%
%TD*%
%TA.AperFunction,SMDPad,CuDef*%
%ADD30R,1.800000X1.000000*%
%TD*%
%TA.AperFunction,SMDPad,CuDef*%
%ADD31R,0.200000X0.765000*%
%TD*%
%TA.AperFunction,SMDPad,CuDef*%
%ADD32R,0.200000X0.665000*%
%TD*%
%TA.AperFunction,SMDPad,CuDef*%
%ADD33R,0.665000X0.200000*%
%TD*%
%TA.AperFunction,ViaPad*%
%ADD34C,0.600000*%
%TD*%
%TA.AperFunction,ViaPad*%
%ADD35C,0.200000*%
%TD*%
%TA.AperFunction,ViaPad*%
%ADD36C,0.300000*%
%TD*%
%TA.AperFunction,Conductor*%
%ADD37C,0.090000*%
%TD*%
%TA.AperFunction,Conductor*%
%ADD38C,0.200000*%
%TD*%
%TA.AperFunction,Conductor*%
%ADD39C,0.150000*%
%TD*%
%TA.AperFunction,Conductor*%
%ADD40C,0.120000*%
%TD*%
%TA.AperFunction,Conductor*%
%ADD41C,0.100000*%
%TD*%
G04 APERTURE END LIST*
D10*
%TO.P,CRYSTAL1,1*%
%TO.N,XTALI*%
X60415975Y-112456207D03*
%TO.P,CRYSTAL1,2*%
%TO.N,GND*%
X61406207Y-111465975D03*
%TO.P,CRYSTAL1,3*%
%TO.N,$1N16368*%
X62183813Y-112244005D03*
%TO.P,CRYSTAL1,4*%
%TO.N,GND*%
X61193793Y-113234025D03*
%TD*%
D11*
%TO.P,C45,1*%
%TO.N,$1N16368*%
X63240041Y-112450041D03*
%TO.P,C45,2*%
%TO.N,GND*%
X63627959Y-112837959D03*
%TD*%
D12*
%TO.P,R6,1*%
%TO.N,GND*%
X45459900Y-4936200D03*
%TO.P,R6,2*%
%TO.N,TS*%
X45459900Y-5419300D03*
%TD*%
D13*
%TO.P,U13,1*%
%TO.N,PDMDIN*%
X79289800Y-126168100D03*
%TO.P,U13,2*%
%TO.N,GND*%
X79289800Y-126990100D03*
D14*
%TO.P,U13,3*%
X77993100Y-127806400D03*
D13*
%TO.P,U13,4*%
%TO.N,PDMCLK*%
X77613900Y-126990100D03*
%TO.P,U13,5*%
%TO.N,V_LS*%
X77613900Y-126168100D03*
D15*
%TO.P,U13,6*%
%TO.N,GND*%
X77998700Y-128687300D03*
D16*
%TO.P,U13,7*%
X78910500Y-128677600D03*
D15*
%TO.P,U13,8*%
X78905000Y-127796800D03*
%TD*%
D17*
%TO.P,U1,1*%
%TO.N,GND*%
X79672700Y-110277700D03*
%TO.P,U1,2*%
X79672700Y-110777600D03*
%TO.P,U1,3*%
X79672700Y-111277700D03*
%TO.P,U1,4*%
%TO.N,N/C*%
X79672700Y-111777600D03*
D18*
%TO.P,U1,5*%
%TO.N,V_LS*%
X78910200Y-112040800D03*
%TO.P,U1,6*%
%TO.N,GND*%
X78410400Y-112040800D03*
D17*
%TO.P,U1,7*%
X77910200Y-112040800D03*
%TO.P,U1,8*%
%TO.N,V_LS*%
X77147700Y-111777600D03*
%TO.P,U1,9*%
%TO.N,N/C*%
X77147700Y-111277700D03*
%TO.P,U1,10*%
X77147700Y-110777600D03*
%TO.P,U1,11*%
X77147700Y-110277700D03*
D18*
%TO.P,U1,12*%
%TO.N,V_LS*%
X77910200Y-110014600D03*
%TO.P,U1,13*%
%TO.N,SCL2*%
X78410400Y-110014600D03*
D17*
%TO.P,U1,14*%
%TO.N,SDA2*%
X78910200Y-110014600D03*
%TD*%
D19*
%TO.P,C46,1*%
%TO.N,GND*%
X60366000Y-110881700D03*
%TO.P,C46,2*%
%TO.N,XTALI*%
X60366000Y-111430300D03*
%TD*%
D20*
%TO.P,C44,1*%
%TO.N,V_LS*%
X47649600Y-100370700D03*
%TO.P,C44,2*%
%TO.N,GND*%
X47101200Y-100370700D03*
%TD*%
D21*
%TO.P,C34,1*%
%TO.N,V_LS*%
X48210300Y-108572700D03*
%TO.P,C34,2*%
%TO.N,GND*%
X48210300Y-107482600D03*
%TD*%
D19*
%TO.P,C27,1*%
%TO.N,GND*%
X105384300Y-110828000D03*
%TO.P,C27,2*%
%TO.N,V_LS*%
X104835900Y-110828000D03*
%TD*%
D22*
%TO.P,U12,12*%
%TO.N,GND*%
X83729600Y-4504100D03*
%TO.P,U12,13*%
X73589700Y-4504100D03*
D23*
%TO.P,U12,14*%
X83729600Y-8464200D03*
%TO.P,U12,15*%
X73589700Y-8464200D03*
D24*
%TO.P,U12,A1B12*%
X81859700Y-3591200D03*
%TO.P,U12,A4B9*%
%TO.N,VUSB*%
X81059800Y-3591200D03*
D25*
%TO.P,U12,A5*%
%TO.N,$1N48*%
X79909700Y-3591200D03*
%TO.P,U12,A6*%
%TO.N,USB_DP*%
X78909700Y-3591200D03*
%TO.P,U12,A7*%
%TO.N,USB_DM*%
X78409900Y-3591200D03*
%TO.P,U12,A8*%
%TO.N,N/C*%
X77409900Y-3591200D03*
D24*
%TO.P,U12,A9B4*%
%TO.N,VUSB*%
X76259800Y-3591200D03*
%TO.P,U12,A12B1*%
%TO.N,GND*%
X75459700Y-3591200D03*
D25*
%TO.P,U12,B5*%
%TO.N,$1N49*%
X76909700Y-3591200D03*
%TO.P,U12,B6*%
%TO.N,USB_DP*%
X77909700Y-3591200D03*
%TO.P,U12,B7*%
%TO.N,USB_DM*%
X79409900Y-3591200D03*
%TO.P,U12,B8*%
%TO.N,N/C*%
X80409900Y-3591200D03*
%TD*%
D26*
%TO.P,U2,A1*%
%TO.N,GND*%
X67309900Y-33677300D03*
%TO.P,U2,A2*%
%TO.N,VUSB*%
X67309900Y-33277300D03*
%TO.P,U2,A3*%
%TO.N,V_PMID*%
X67309900Y-32877200D03*
%TO.P,U2,A4*%
%TO.N,SW*%
X67309900Y-32477200D03*
%TO.P,U2,A5*%
%TO.N,GND*%
X67309900Y-32077100D03*
%TO.P,U2,B1*%
%TO.N,VCC*%
X66909800Y-33677300D03*
%TO.P,U2,B2*%
X66909800Y-33277300D03*
%TO.P,U2,B3*%
%TO.N,V_PMID*%
X66909800Y-32877200D03*
%TO.P,U2,B4*%
X66909800Y-32477200D03*
%TO.P,U2,B5*%
%TO.N,+1.8V*%
X66909800Y-32077100D03*
%TO.P,U2,C1*%
%TO.N,GND*%
X66508300Y-33677300D03*
%TO.P,U2,C2*%
X66509800Y-33277300D03*
%TO.P,U2,C3*%
%TO.N,TS*%
X66509800Y-32877200D03*
%TO.P,U2,C4*%
%TO.N,$1N65*%
X66509800Y-32477200D03*
%TO.P,U2,C5*%
%TO.N,3V3*%
X66509800Y-32077100D03*
%TO.P,U2,D1*%
%TO.N,GND*%
X66109700Y-33677300D03*
%TO.P,U2,D2*%
%TO.N,INT*%
X66109700Y-33277300D03*
%TO.P,U2,D3*%
%TO.N,RESETN*%
X66109700Y-32877200D03*
%TO.P,U2,D4*%
%TO.N,CC_#PG*%
X66109700Y-32477200D03*
%TO.P,U2,D5*%
%TO.N,GND*%
X66109700Y-32077100D03*
%TO.P,U2,E1*%
%TO.N,MR#*%
X65709700Y-33677300D03*
%TO.P,U2,E2*%
%TO.N,CC_#CD*%
X65709700Y-33277300D03*
%TO.P,U2,E3*%
%TO.N,LSCTRL*%
X65709700Y-32877200D03*
%TO.P,U2,E4*%
%TO.N,SDA*%
X65709700Y-32477200D03*
%TO.P,U2,E5*%
%TO.N,SCL*%
X65709700Y-32077100D03*
%TD*%
D27*
%TO.P,R21,1*%
%TO.N,V_BAT*%
X50026900Y-20227600D03*
%TO.P,R21,2*%
%TO.N,VCC*%
X50892500Y-20227600D03*
%TD*%
D20*
%TO.P,C9,1*%
%TO.N,V_PMID*%
X78760400Y-26362000D03*
%TO.P,C9,2*%
%TO.N,GND*%
X78760400Y-25813400D03*
%TD*%
D12*
%TO.P,R17,1*%
%TO.N,$1N74*%
X45359200Y-25961200D03*
%TO.P,R17,2*%
%TO.N,GND*%
X45359200Y-25478100D03*
%TD*%
D28*
%TO.P,D2,1*%
%TO.N,USB_DM*%
X85260400Y-26362800D03*
%TO.P,D2,2*%
%TO.N,GND*%
X84760500Y-26362800D03*
%TO.P,D2,3*%
%TO.N,USB_DP*%
X84260400Y-26362800D03*
%TO.P,D2,4*%
X84260400Y-25592700D03*
%TO.P,D2,5*%
%TO.N,VUSB*%
X84760500Y-25592700D03*
%TO.P,D2,6*%
%TO.N,USB_DM*%
X85260400Y-25592700D03*
%TD*%
D29*
%TO.P,J1,1*%
%TO.N,SWCLK*%
X76010200Y-57057500D03*
%TO.P,J1,2*%
%TO.N,TDI*%
X76010200Y-53097700D03*
%TO.P,J1,3*%
%TO.N,SWDIO*%
X76810300Y-57057500D03*
%TO.P,J1,4*%
%TO.N,TDO*%
X76810300Y-53097700D03*
%TO.P,J1,5*%
%TO.N,RESETN*%
X77610100Y-57057500D03*
%TO.P,J1,6*%
%TO.N,TMS*%
X77610100Y-53097700D03*
%TO.P,J1,7*%
%TO.N,GND*%
X78410200Y-57057500D03*
%TO.P,J1,8*%
%TO.N,TCK*%
X78410200Y-53097700D03*
%TO.P,J1,9*%
%TO.N,+1.8V*%
X79210300Y-57057500D03*
%TO.P,J1,10*%
%TO.N,3V3*%
X79210300Y-53097700D03*
%TO.P,J1,11*%
%TO.N,IO1*%
X80010200Y-57057500D03*
%TO.P,J1,12*%
%TO.N,IO2*%
X80010200Y-53097700D03*
%TO.P,J1,13*%
%TO.N,V_LS*%
X80810300Y-57057500D03*
%TO.P,J1,14*%
%TO.N,IO3*%
X80810300Y-53097700D03*
%TD*%
D21*
%TO.P,C18,1*%
%TO.N,+1.8V*%
X67254999Y-31077000D03*
%TO.P,C18,2*%
%TO.N,GND*%
X66164899Y-31077000D03*
%TD*%
D26*
%TO.P,U6,A1*%
%TO.N,GPOUT*%
X51260200Y-27477700D03*
%TO.P,U6,A2*%
%TO.N,SDA*%
X51760300Y-27477700D03*
%TO.P,U6,A3*%
%TO.N,SCL*%
X52260200Y-27477700D03*
%TO.P,U6,B1*%
%TO.N,$1N74*%
X51260200Y-26977800D03*
%TO.P,U6,B2*%
%TO.N,GND*%
X51760300Y-26977800D03*
%TO.P,U6,B3*%
%TO.N,$1N70*%
X52260200Y-26977800D03*
%TO.P,U6,C1*%
%TO.N,V_BAT*%
X51260200Y-26477700D03*
%TO.P,U6,C2*%
%TO.N,VCC*%
X51760300Y-26477700D03*
%TO.P,U6,C3*%
%TO.N,V_BAT*%
X52260200Y-26477700D03*
%TD*%
D20*
%TO.P,C14,1*%
%TO.N,GND*%
X88674300Y-69649900D03*
%TO.P,C14,2*%
%TO.N,XL1*%
X88125700Y-69649900D03*
%TD*%
D12*
%TO.P,R28,1*%
%TO.N,$1N16368*%
X62675600Y-113294000D03*
%TO.P,R28,2*%
%TO.N,XTALO*%
X62192400Y-113294000D03*
%TD*%
%TO.P,R19,1*%
%TO.N,$1N36*%
X49410200Y-5419200D03*
%TO.P,R19,2*%
%TO.N,GND*%
X49410200Y-4936100D03*
%TD*%
D20*
%TO.P,C11,1*%
%TO.N,GND*%
X88809700Y-114303400D03*
%TO.P,C11,2*%
%TO.N,V_LS*%
X88809700Y-114852000D03*
%TD*%
D21*
%TO.P,C8,1*%
%TO.N,GND*%
X104459800Y-4222700D03*
%TO.P,C8,2*%
%TO.N,V_SD*%
X104459800Y-3132600D03*
%TD*%
D20*
%TO.P,C21,1*%
%TO.N,GND*%
X58009700Y-21303400D03*
%TO.P,C21,2*%
%TO.N,V_BAT*%
X58009700Y-21852000D03*
%TD*%
%TO.P,C13,1*%
%TO.N,V_LS*%
X69403700Y-119519900D03*
%TO.P,C13,2*%
%TO.N,GND*%
X69403700Y-120068500D03*
%TD*%
D21*
%TO.P,L2,1*%
%TO.N,SW*%
X67165000Y-30277000D03*
%TO.P,L2,2*%
%TO.N,+1.8V*%
X68255100Y-30277000D03*
%TD*%
D30*
%TO.P,X1,1*%
%TO.N,XL1*%
X87100100Y-69650000D03*
%TO.P,X1,2*%
%TO.N,XL2*%
X87100100Y-72149900D03*
%TD*%
D21*
%TO.P,C49,1*%
%TO.N,GND*%
X79611900Y-39446700D03*
%TO.P,C49,2*%
%TO.N,RESETN*%
X78521700Y-39446700D03*
%TD*%
%TO.P,C20,1*%
%TO.N,GND*%
X52665300Y-38827700D03*
%TO.P,C20,2*%
%TO.N,+1.8V*%
X53755400Y-38827700D03*
%TD*%
D20*
%TO.P,C6,1*%
%TO.N,V_SD*%
X109009700Y-1003400D03*
%TO.P,C6,2*%
%TO.N,GND*%
X109009700Y-1552000D03*
%TD*%
D12*
%TO.P,R8,1*%
%TO.N,GND*%
X58159700Y-28469200D03*
%TO.P,R8,2*%
%TO.N,$1N49*%
X58159700Y-27986100D03*
%TD*%
D20*
%TO.P,C38,1*%
%TO.N,GND*%
X69410200Y-131853400D03*
%TO.P,C38,2*%
%TO.N,V_LS*%
X69410200Y-132402000D03*
%TD*%
D27*
%TO.P,R13,1*%
%TO.N,TS*%
X45999900Y-12444800D03*
%TO.P,R13,2*%
%TO.N,VUSB*%
X45999900Y-13310400D03*
%TD*%
D20*
%TO.P,C2,1*%
%TO.N,GND*%
X88674300Y-72149800D03*
%TO.P,C2,2*%
%TO.N,XL2*%
X88125700Y-72149800D03*
%TD*%
D31*
%TO.P,U10,1*%
%TO.N,SPI_CS*%
X92659600Y-34145300D03*
D32*
%TO.P,U10,2*%
%TO.N,SPI_MOSI*%
X93059600Y-34095200D03*
%TO.P,U10,3*%
%TO.N,SPI_CLK*%
X93459400Y-34095200D03*
%TO.P,U10,4*%
%TO.N,SPI_MISO*%
X93859500Y-34095200D03*
D33*
%TO.P,U10,5*%
%TO.N,V_LS*%
X94491700Y-34327900D03*
%TO.P,U10,6*%
%TO.N,GND*%
X94491900Y-34727700D03*
%TO.P,U10,7*%
%TO.N,SPI_CS*%
X94491900Y-35127700D03*
%TO.P,U10,8*%
%TO.N,GND*%
X94491900Y-35527800D03*
D32*
%TO.P,U10,9*%
%TO.N,SPI_MISO_SD*%
X93859500Y-35760200D03*
%TO.P,U10,10*%
%TO.N,SPI_CLK_SD*%
X93459400Y-35760200D03*
%TO.P,U10,11*%
%TO.N,SPI_MOSI_SD*%
X93059600Y-35760200D03*
%TO.P,U10,12*%
%TO.N,SPI_CS_SD*%
X92659600Y-35760200D03*
D33*
%TO.P,U10,13*%
%TO.N,V_SD*%
X92027600Y-35527800D03*
%TO.P,U10,14*%
%TO.N,V_LS*%
X92027600Y-35127700D03*
%TO.P,U10,15*%
X92027600Y-34727700D03*
%TO.P,U10,16*%
X92027600Y-34327900D03*
%TD*%
D20*
%TO.P,C23,1*%
%TO.N,GND*%
X45358900Y-32922500D03*
%TO.P,C23,2*%
%TO.N,$1N70*%
X45358900Y-32373900D03*
%TD*%
%TO.P,C19,1*%
%TO.N,VCC*%
X63084100Y-24977600D03*
%TO.P,C19,2*%
%TO.N,GND*%
X62535500Y-24977600D03*
%TD*%
D12*
%TO.P,R7,1*%
%TO.N,GND*%
X90858700Y-25377700D03*
%TO.P,R7,2*%
%TO.N,$1N48*%
X90858700Y-24894600D03*
%TD*%
D20*
%TO.P,C10,1*%
%TO.N,$1N65*%
X69286000Y-24977800D03*
%TO.P,C10,2*%
%TO.N,GND*%
X69834600Y-24977800D03*
%TD*%
D34*
%TO.N,LED_ENABLE*%
X76163500Y-68852900D03*
X77054200Y-43971800D03*
%TO.N,$1N119*%
X73095900Y-43165600D03*
X66552600Y-42765000D03*
D35*
%TO.N,$1N151*%
X59190400Y-113497900D03*
X58090400Y-112147900D03*
X56171000Y-120477700D03*
D34*
%TO.N,$1N36*%
X71404700Y-16781400D03*
X50082300Y-5638100D03*
%TO.N,$1N48*%
X79909700Y-4827700D03*
X90188600Y-24675100D03*
%TO.N,$1N49*%
X76909700Y-2362500D03*
X58827500Y-27771600D03*
D35*
%TO.N,$1N65*%
X66298380Y-32250480D03*
X62798380Y-28377800D03*
D34*
%TO.N,$1N98*%
X83104600Y-74747100D03*
X104378000Y-94859700D03*
%TO.N,+1.8V*%
X111979800Y-95669900D03*
X82282600Y-43067000D03*
X78584900Y-95398400D03*
X106612800Y-43083600D03*
X53962500Y-39606500D03*
X80505500Y-58245500D03*
D36*
X66909800Y-30900000D03*
D34*
X85589100Y-73351000D03*
%TO.N,3V3*%
X77296600Y-117488500D03*
X65117300Y-133855600D03*
X64478100Y-43139600D03*
X79413000Y-51909900D03*
X94362300Y-116870500D03*
X89491100Y-116870500D03*
D35*
X66509800Y-31877100D03*
D34*
X110930400Y-31256700D03*
D35*
%TO.N,BCLK*%
X77510200Y-73077800D03*
X58240400Y-109277800D03*
X64140400Y-91977800D03*
X57740400Y-112147900D03*
%TO.N,CC_#CD*%
X67085125Y-36294507D03*
X91985125Y-32694507D03*
X74185125Y-38994507D03*
X90285125Y-34094507D03*
X73485125Y-38994507D03*
%TO.N,CC_#PG*%
X65931158Y-32248676D03*
X77731158Y-52048676D03*
X66031158Y-33948676D03*
%TO.N,DAC_ENABLE*%
X76266460Y-73177800D03*
X81966460Y-71577800D03*
X78466460Y-71377800D03*
X58440400Y-111097900D03*
X65066460Y-98077800D03*
X68166460Y-86577800D03*
X62266460Y-105477800D03*
X59466460Y-108278822D03*
%TO.N,DIN*%
X56897996Y-111884724D03*
X77740617Y-75127676D03*
%TO.N,DOUT*%
X56602553Y-112286818D03*
X79585200Y-75066900D03*
%TO.N,FLASH_RESET*%
X80667915Y-72175175D03*
X104609800Y-110227800D03*
%TO.N,GND*%
X58159700Y-28469200D03*
D36*
X110534100Y-62977600D03*
X57390400Y-113097900D03*
D34*
X79098000Y-129559400D03*
X110518900Y-1142100D03*
D35*
X66373012Y-30437000D03*
X105559851Y-110963931D03*
X69399800Y-44292900D03*
D36*
X78800000Y-25813400D03*
D35*
X68843000Y-31049000D03*
D36*
X96500000Y-34927700D03*
D35*
X61643000Y-113209000D03*
D34*
X61768100Y-123733200D03*
X107454600Y-96815600D03*
X44893000Y-31785500D03*
X70384300Y-119573700D03*
X64287900Y-116381900D03*
X52665300Y-35956600D03*
X84810200Y-74823400D03*
D35*
X86534000Y-72952999D03*
D34*
X63299200Y-24298700D03*
X73642100Y-3273400D03*
D35*
X106334000Y-110828000D03*
D34*
X103546000Y-3135900D03*
X78409500Y-58267800D03*
X62660300Y-44292900D03*
X48210400Y-106646600D03*
X79367300Y-23765300D03*
X64410300Y-99739200D03*
X77043900Y-43073300D03*
X91531100Y-25377800D03*
X84825800Y-65114000D03*
D36*
X89124300Y-72149800D03*
X109009700Y-1552000D03*
D34*
X88059900Y-113896100D03*
D36*
X59230592Y-109947800D03*
X51760300Y-26977800D03*
X68009900Y-31950001D03*
D34*
X109803200Y-63642500D03*
X70028600Y-21317600D03*
D35*
X56719400Y-124327200D03*
D34*
X65812200Y-134990600D03*
X84347200Y-95554900D03*
D35*
X58278094Y-113843442D03*
D36*
X75650000Y-66800000D03*
D35*
X68384000Y-32043987D03*
D34*
X56114700Y-102380700D03*
D36*
X96500000Y-35527800D03*
X58440400Y-113097900D03*
D34*
X48347800Y-118147500D03*
X83729600Y-3273300D03*
D35*
X61955000Y-111436000D03*
D36*
X78931900Y-132069300D03*
D34*
X75774200Y-25820500D03*
D36*
X89124300Y-69649900D03*
X76200000Y-74527700D03*
D34*
X58826700Y-28683000D03*
D36*
X56790400Y-110747900D03*
D35*
X57144278Y-110744604D03*
D34*
X108583300Y-29103500D03*
D36*
X62535500Y-24977600D03*
D35*
X63860000Y-113336000D03*
D34*
X76289500Y-96597800D03*
D35*
X60520000Y-110459000D03*
D34*
X94362300Y-118773800D03*
X57806100Y-20910400D03*
D36*
X58090400Y-109797800D03*
D34*
X107454600Y-85114900D03*
D36*
X67909900Y-33977300D03*
D34*
%TO.N,GPOUT*%
X85608000Y-66602800D03*
X50877200Y-28005600D03*
D35*
%TO.N,INT*%
X66009776Y-33414832D03*
X80199999Y-65400000D03*
X67600000Y-33000000D03*
X80000000Y-58900000D03*
D34*
%TO.N,IO1*%
X78610300Y-67597800D03*
%TO.N,IO2*%
X77802600Y-67753800D03*
X80300000Y-51910300D03*
%TO.N,IO3*%
X78128800Y-69207100D03*
X81515400Y-54084500D03*
%TO.N,IO4*%
X81785400Y-70488800D03*
X78231900Y-132191400D03*
%TO.N,IO6*%
X80590800Y-67598700D03*
X77531900Y-131756900D03*
D35*
%TO.N,LRCLK*%
X57589338Y-111652021D03*
X64000000Y-103377800D03*
X78800000Y-76677799D03*
X59000000Y-108500000D03*
%TO.N,LSCTRL*%
X84195500Y-67486300D03*
D34*
%TO.N,MR#*%
X92802300Y-40860500D03*
X83845600Y-107564300D03*
X65684500Y-34306600D03*
X105254500Y-42242500D03*
%TO.N,ON+BTN*%
X83701800Y-65209500D03*
X105890000Y-44142500D03*
%TO.N,PDMCLK*%
X75487000Y-126733300D03*
D35*
X63240399Y-116997900D03*
X58440400Y-111797900D03*
D34*
X78411100Y-135454700D03*
D35*
%TO.N,PDMDIN*%
X78581900Y-134785200D03*
X58790400Y-111797900D03*
%TO.N,RESETN*%
X67900000Y-33000000D03*
X66109700Y-32877200D03*
D34*
X77603500Y-39225200D03*
X77485300Y-58272700D03*
%TO.N,RGB_B*%
X77298200Y-115847500D03*
X86657800Y-118177700D03*
%TO.N,RGB_G*%
X79830300Y-116274000D03*
X86105900Y-117577600D03*
D35*
%TO.N,SCL*%
X80235400Y-74598600D03*
D34*
X82278500Y-43982700D03*
X52260200Y-28117600D03*
X78235400Y-65198600D03*
X65264400Y-31468500D03*
D35*
X89284800Y-117577600D03*
X87435400Y-114498600D03*
%TO.N,SCL1*%
X61788533Y-113726262D03*
X85488533Y-100454500D03*
X83688533Y-101654500D03*
D34*
X92002100Y-95854500D03*
X83060400Y-72354400D03*
D35*
X59490400Y-111797900D03*
X76188533Y-109154500D03*
D34*
%TO.N,SCL2*%
X82588100Y-70126900D03*
X92101900Y-126971300D03*
%TO.N,SDA*%
X86164700Y-43769300D03*
D35*
X87035299Y-114623500D03*
D34*
X51578900Y-28607200D03*
D35*
X85535299Y-110723500D03*
D34*
X79735300Y-65223500D03*
D35*
X64809699Y-32877200D03*
X89235300Y-118023500D03*
%TO.N,SDA1*%
X59100400Y-111797900D03*
X69940400Y-118599823D03*
D34*
X88759900Y-95372300D03*
D35*
X79440400Y-132399823D03*
X60640400Y-109199823D03*
D34*
X82102000Y-72367800D03*
X79281900Y-135446100D03*
%TO.N,SDA2*%
X80619000Y-109800500D03*
X77545200Y-135450800D03*
X83062800Y-69448400D03*
X92091600Y-133044200D03*
%TO.N,SD_ENABLE*%
X108583300Y-27851500D03*
X79901600Y-72364700D03*
D35*
%TO.N,SD_STATE*%
X110284318Y-44224392D03*
X84220600Y-65750000D03*
D34*
%TO.N,SD_STATE_3V3*%
X75682900Y-18912700D03*
X109520600Y-38068700D03*
%TO.N,SENSORS_ENABLE*%
X76709900Y-95166300D03*
X78854900Y-72352600D03*
D35*
%TO.N,SPI_CLK*%
X104845836Y-109704827D03*
X83268831Y-68438048D03*
X93868831Y-59100000D03*
X93559400Y-32095200D03*
D34*
%TO.N,SPI_CLK_SD*%
X74704900Y-18898600D03*
X93459400Y-36597800D03*
D35*
%TO.N,SPI_CS*%
X82360200Y-64945300D03*
X82160200Y-67916830D03*
X82660200Y-63545300D03*
D34*
%TO.N,SPI_CS_SD*%
X78004900Y-18886800D03*
X96876500Y-42645500D03*
X92514500Y-36600000D03*
D35*
%TO.N,SPI_MISO*%
X93385200Y-34795200D03*
X88985199Y-42295200D03*
X81585200Y-64727700D03*
X92085199Y-36095200D03*
X105585200Y-110327700D03*
X86685200Y-76327700D03*
X94385200Y-84027700D03*
D34*
%TO.N,SPI_MISO_SD*%
X72504800Y-16782600D03*
X100630600Y-42801200D03*
D35*
%TO.N,SPI_MOSI*%
X91220724Y-33695200D03*
X82220724Y-68295200D03*
X87020724Y-46995200D03*
X82720724Y-68005231D03*
X81920724Y-64995200D03*
X85020724Y-55395200D03*
%TO.N,SPI_MOSI_SD*%
X93104800Y-35742800D03*
X93104800Y-32742800D03*
X76904800Y-17842800D03*
D34*
%TO.N,SWCLK*%
X75780000Y-58274500D03*
%TO.N,SWDIO*%
X76735300Y-58676100D03*
D35*
%TO.N,TCK*%
X78390400Y-53197700D03*
%TO.N,TDI*%
X76010200Y-53097700D03*
X64840400Y-90897700D03*
X75740400Y-54597700D03*
%TO.N,TDO*%
X61890400Y-102897700D03*
X76810300Y-53097700D03*
X59490400Y-112497900D03*
%TO.N,TMS*%
X65099999Y-91197700D03*
X77610100Y-53097700D03*
X58200000Y-106397700D03*
X59237652Y-112397192D03*
X58000000Y-109000000D03*
D34*
%TO.N,TS*%
X45566900Y-12093500D03*
X44895400Y-4446400D03*
D35*
X66579799Y-32877200D03*
D34*
%TO.N,USB_D+*%
X99830200Y-96080100D03*
X82529400Y-75305900D03*
%TO.N,USB_D-*%
X81901100Y-74785500D03*
X96067800Y-95547000D03*
%TO.N,USB_DM*%
X85260400Y-2359200D03*
X85258800Y-24371200D03*
X95893000Y-96549400D03*
%TO.N,USB_DP*%
X100279100Y-97207000D03*
X80981700Y-25802900D03*
X78702900Y-4824700D03*
%TO.N,VCC*%
X62210600Y-25661400D03*
D35*
X66909800Y-33677300D03*
D34*
X51760300Y-24395400D03*
D35*
X62622700Y-25661400D03*
D34*
%TO.N,VUSB*%
X74027900Y-25486800D03*
X84539700Y-24810200D03*
X46651400Y-12087000D03*
D35*
X66135618Y-29742281D03*
D34*
X76486600Y-4844700D03*
D35*
X67739900Y-33292300D03*
D34*
X103632200Y-96384000D03*
%TO.N,V_BAT*%
X50026900Y-24021800D03*
X58067300Y-22258000D03*
%TO.N,V_LS*%
X92769900Y-131008600D03*
D36*
X57565400Y-109900000D03*
D34*
X76294100Y-110531800D03*
X91108500Y-116191500D03*
X48059500Y-99724900D03*
X83185500Y-99755700D03*
X77532900Y-96600400D03*
X90996000Y-35127700D03*
D35*
X92114202Y-34377900D03*
D34*
X77459400Y-125401200D03*
X57204800Y-102386400D03*
D35*
X94527600Y-34227900D03*
D36*
X57915400Y-112947900D03*
D34*
X97859800Y-116849900D03*
X93338700Y-96549400D03*
X69884800Y-131463600D03*
D36*
X96000000Y-34327900D03*
D35*
X104859800Y-110800805D03*
D34*
X48556300Y-110549100D03*
X62260300Y-121909000D03*
X80430700Y-59329700D03*
D35*
X58090400Y-110747900D03*
X78311900Y-133334400D03*
D34*
X94073200Y-43011700D03*
D36*
X56790400Y-111447900D03*
D35*
X105384800Y-109697796D03*
X59490400Y-110747900D03*
%TO.N,V_PMID*%
X69374818Y-32472000D03*
X67109000Y-32877200D03*
D34*
X53966500Y-33044900D03*
X78261600Y-25401800D03*
X54539400Y-32472000D03*
%TO.N,V_SD*%
X76154700Y-16790600D03*
X105651600Y-3702800D03*
X101209700Y-44459900D03*
X107769300Y-32755200D03*
X89408200Y-38145600D03*
%TO.N,XL1*%
X85820100Y-70600900D03*
%TO.N,XL2*%
X85795500Y-71529100D03*
D35*
%TO.N,XTALI*%
X59402706Y-112168145D03*
X60245000Y-111624000D03*
%TO.N,XTALO*%
X59140400Y-112147900D03*
X62282000Y-113837000D03*
%TD*%
D37*
%TO.N,$1N151*%
X57071000Y-113047900D02*
X56171000Y-120477700D01*
X56990400Y-113297900D02*
X57190400Y-113497900D01*
X57190400Y-113497900D02*
X59190400Y-113497900D01*
X58090400Y-112147900D02*
X57071000Y-113047900D01*
%TO.N,$1N16368*%
X62583813Y-112994005D02*
X62183813Y-112244005D01*
X62675600Y-113294000D02*
X62583813Y-112994005D01*
X62183813Y-112244005D02*
X63240041Y-112450041D01*
D38*
%TO.N,$1N36*%
X49410200Y-5419300D02*
X49863500Y-5419300D01*
X50082300Y-5638100D02*
X49863500Y-5419300D01*
%TO.N,$1N48*%
X90405500Y-24894600D02*
X90188600Y-24677700D01*
X79909700Y-3591200D02*
X79909700Y-4827700D01*
X90858700Y-24894600D02*
X90405500Y-24894600D01*
X90188600Y-24677700D02*
X90188600Y-24675100D01*
%TO.N,$1N49*%
X76909700Y-2362500D02*
X76909700Y-3591200D01*
X58827500Y-27771600D02*
X58613000Y-27986100D01*
X58159700Y-27986100D02*
X58613000Y-27986100D01*
D37*
%TO.N,$1N65*%
X66509800Y-32477200D02*
X66298380Y-32250480D01*
X62798380Y-28377800D02*
X69286000Y-24977800D01*
D38*
%TO.N,$1N70*%
X52366300Y-26977800D02*
X52260200Y-26977800D01*
D39*
X48641700Y-32648200D02*
X48367400Y-32373900D01*
D38*
X52913000Y-28376900D02*
X52913000Y-27524500D01*
X52913000Y-27524500D02*
X52366300Y-26977800D01*
X48641700Y-32648200D02*
X52913000Y-28376900D01*
D39*
X48367400Y-32373900D02*
X45510000Y-32373900D01*
D38*
%TO.N,$1N74*%
X48349100Y-25961300D02*
X49290700Y-26902900D01*
D39*
X49290700Y-26902900D02*
X51185300Y-26902900D01*
D38*
X45359200Y-25961300D02*
X48349100Y-25961300D01*
D39*
X51185300Y-26902900D02*
X51260200Y-26977800D01*
D37*
%TO.N,+1.8V*%
X67209800Y-31077000D02*
X67709800Y-30777000D01*
D38*
X80332100Y-34235300D02*
X80332100Y-31513500D01*
X82282600Y-38632600D02*
X82282600Y-43067000D01*
D39*
X79140400Y-30993600D02*
X79812200Y-30993600D01*
D38*
X79680400Y-35458700D02*
X79680400Y-34887000D01*
X79680400Y-35458700D02*
X79680400Y-36030400D01*
X79680400Y-36030400D02*
X82282600Y-38632600D01*
X80304300Y-58044300D02*
X80505500Y-58245500D01*
X79210300Y-57057500D02*
X79210300Y-58044300D01*
X79210300Y-58044300D02*
X80304300Y-58044300D01*
D37*
X66909800Y-30900000D02*
X67209800Y-31099999D01*
D38*
X53962500Y-39606500D02*
X53755400Y-39399400D01*
D39*
X80332100Y-31513500D02*
X79812200Y-30993600D01*
D38*
X79680400Y-34887000D02*
X80332100Y-34235300D01*
D37*
X67709800Y-30777000D02*
X68209800Y-30277000D01*
D39*
X66909800Y-32077100D02*
X66909800Y-30900000D01*
D38*
X53755400Y-38827700D02*
X53755400Y-39399400D01*
%TO.N,3V3*%
X79210300Y-52111000D02*
X79411400Y-51909900D01*
X79210300Y-53097700D02*
X79210300Y-52111000D01*
X79411400Y-51909900D02*
X79413000Y-51909900D01*
D37*
X66509800Y-31877100D02*
X66509800Y-32077100D01*
%TO.N,BCLK*%
X64140400Y-91977800D02*
X66540400Y-89377800D01*
X66540400Y-89377800D02*
X77510200Y-73077800D01*
X57840400Y-109677799D02*
X58240400Y-109277800D01*
X57740400Y-112147900D02*
X57840400Y-109677799D01*
%TO.N,CC_#CD*%
X65709700Y-33277299D02*
X65685125Y-33294507D01*
X65685125Y-33294507D02*
X65485125Y-33694507D01*
X65285125Y-34294507D02*
X65385125Y-34594507D01*
X65385125Y-34594507D02*
X67085125Y-36294507D01*
X91085125Y-33294507D02*
X91985125Y-32694507D01*
X73485125Y-38994507D02*
X74185125Y-38994507D01*
X65485125Y-33694507D02*
X65285125Y-34294507D01*
X90285125Y-34094507D02*
X91085125Y-33294507D01*
%TO.N,CC_#PG*%
X66109700Y-32477200D02*
X65931158Y-32248676D01*
X66031158Y-33948676D02*
X77731158Y-52048676D01*
%TO.N,DAC_ENABLE*%
X68166460Y-86577800D02*
X76266460Y-73177800D01*
X78466460Y-71377800D02*
X81966460Y-71577800D01*
X65066460Y-99277800D02*
X65066460Y-98077800D01*
X62266460Y-105477800D02*
X65066460Y-99277800D01*
%TO.N,DIN*%
X56497996Y-112627676D02*
X56697996Y-112627676D01*
X56097996Y-111627676D02*
X56297996Y-112427676D01*
X56097996Y-110627676D02*
X56097996Y-111627676D01*
X56697996Y-112627676D02*
X56897996Y-112427676D01*
X56897996Y-112427676D02*
X56897996Y-112027676D01*
X77697996Y-75127676D02*
X56097996Y-110627676D01*
X56297996Y-112427676D02*
X56497996Y-112627676D01*
%TO.N,DOUT*%
X56402553Y-110666900D02*
X56402553Y-111566900D01*
X56402553Y-111566900D02*
X56602553Y-112166900D01*
X79602553Y-75066900D02*
X56402553Y-110666900D01*
%TO.N,FLASH_RESET*%
X83667915Y-74475175D02*
X104467915Y-108075175D01*
X80667915Y-72175175D02*
X83667915Y-74475175D01*
X104467915Y-108075175D02*
X104567915Y-110175175D01*
D38*
%TO.N,GND*%
X69834400Y-24977700D02*
X69834400Y-21511800D01*
X78910500Y-128023700D02*
X78905000Y-128018200D01*
X67750100Y-34137100D02*
X66508300Y-34137100D01*
X78905000Y-128018200D02*
X78905000Y-127796800D01*
X79098000Y-129519100D02*
X79098000Y-129559400D01*
X60394100Y-132454500D02*
X60394100Y-126984900D01*
D37*
X59319400Y-124327200D02*
X59319400Y-125127200D01*
D38*
X74905200Y-4617900D02*
X75459700Y-4617900D01*
X60957700Y-124652700D02*
X61548700Y-125243700D01*
X65812200Y-134990600D02*
X61333800Y-134990600D01*
X60059600Y-133252700D02*
X60059600Y-133716400D01*
X44893000Y-31785500D02*
X44931000Y-31946200D01*
X57735500Y-21114000D02*
X57735500Y-20981000D01*
X73589700Y-4504100D02*
X74791400Y-4504100D01*
D39*
X61548700Y-126452900D02*
X60380300Y-126452900D01*
D37*
X58419400Y-123927200D02*
X59219400Y-124027200D01*
D38*
X73589700Y-4504100D02*
X73589700Y-3477400D01*
X67909900Y-33977300D02*
X67750100Y-34137100D01*
X65812200Y-134990600D02*
X66736800Y-134990600D01*
X77700000Y-26951400D02*
X81344000Y-26951400D01*
X66407700Y-33777900D02*
X66210200Y-33777900D01*
X84710600Y-26923000D02*
X84760500Y-26873100D01*
X81859700Y-3591200D02*
X81859700Y-4617900D01*
X66210200Y-33777900D02*
X66210200Y-33777800D01*
X49410200Y-4936100D02*
X47918200Y-4936100D01*
X48078400Y-106514600D02*
X47649400Y-106085600D01*
X83729600Y-8464200D02*
X83729600Y-4504100D01*
X61548700Y-125243700D02*
X61548700Y-126452900D01*
X83729600Y-4504100D02*
X82527900Y-4504100D01*
X77998700Y-128687000D02*
X77998700Y-128687300D01*
D39*
X68700000Y-133027400D02*
X68700000Y-131853400D01*
D38*
X78160200Y-111401600D02*
X78410400Y-111401600D01*
D40*
X66109700Y-31836200D02*
X66109700Y-32077100D01*
D38*
X88535500Y-114577700D02*
X88535500Y-114114000D01*
X78910500Y-128677600D02*
X78910500Y-129331600D01*
D40*
X66508300Y-34137100D02*
X66508300Y-33677300D01*
D38*
X66109700Y-31461300D02*
X63331400Y-28683000D01*
X79289800Y-126990100D02*
X79289800Y-127556800D01*
X77300000Y-26551400D02*
X77700000Y-26951400D01*
D39*
X75754100Y-25800400D02*
X75774200Y-25820500D01*
D40*
X66458000Y-33727600D02*
X66508300Y-33677300D01*
D37*
X56719400Y-124327200D02*
X58419400Y-123927200D01*
D38*
X69834400Y-21511800D02*
X70028600Y-21317600D01*
D39*
X68700000Y-131853400D02*
X69410200Y-131853400D01*
D38*
X52665300Y-35956600D02*
X52665300Y-38827700D01*
D39*
X66736800Y-134990600D02*
X68700000Y-133027400D01*
D41*
X95200000Y-34927700D02*
X96500000Y-34927700D01*
D38*
X75774200Y-26900000D02*
X76871200Y-26900000D01*
X79672700Y-110278000D02*
X79672700Y-110277700D01*
X84760500Y-26873100D02*
X84760500Y-26362800D01*
X75459700Y-3591200D02*
X75459700Y-4617900D01*
X78534300Y-111277700D02*
X79033500Y-111277700D01*
X57735500Y-21577700D02*
X57735500Y-21114000D01*
X76871200Y-26900000D02*
X76871200Y-26551400D01*
D39*
X76871200Y-31563800D02*
X77948800Y-31563800D01*
X103546000Y-4222700D02*
X104459800Y-4222700D01*
D38*
X58576600Y-125753000D02*
X58576600Y-125752700D01*
X58826700Y-28683000D02*
X58613000Y-28469300D01*
D37*
X59319400Y-125127200D02*
X58576600Y-125752700D01*
D38*
X66458000Y-33727600D02*
X66408500Y-33777100D01*
X77998700Y-128037600D02*
X77993100Y-128032000D01*
D40*
X66508300Y-33677300D02*
X66509800Y-33675800D01*
D39*
X60380300Y-126452900D02*
X60380300Y-126971100D01*
D38*
X60059600Y-132789000D02*
X60394100Y-132454500D01*
D40*
X66407700Y-33777900D02*
X66408500Y-33777100D01*
D38*
X48210400Y-106646600D02*
X48078400Y-106514600D01*
D37*
X61193793Y-113234025D02*
X61643000Y-113209000D01*
D38*
X82527900Y-4504100D02*
X82414100Y-4617900D01*
D39*
X44500000Y-32922500D02*
X45358900Y-32922500D01*
X82115600Y-26923000D02*
X84710600Y-26923000D01*
X47649400Y-106085600D02*
X47101200Y-105537400D01*
D38*
X58576600Y-125802700D02*
X58576600Y-125752700D01*
X77910200Y-112040800D02*
X77910200Y-111651600D01*
X60059600Y-133252700D02*
X60059600Y-132789000D01*
X78410200Y-57057500D02*
X78410200Y-58044300D01*
X88674300Y-69649900D02*
X89124300Y-69649900D01*
D39*
X79140400Y-32083700D02*
X78468700Y-32083700D01*
D37*
X61406207Y-111465975D02*
X61955000Y-111436000D01*
D38*
X60957700Y-124652700D02*
X60957700Y-124543600D01*
D39*
X48210400Y-106646600D02*
X48210300Y-107482600D01*
X67309900Y-32077100D02*
X68009900Y-31950001D01*
D38*
X78410200Y-58267100D02*
X78409500Y-58267800D01*
X90858700Y-25377800D02*
X91531100Y-25377800D01*
X79672700Y-110777600D02*
X79672700Y-110277700D01*
X76871200Y-26551400D02*
X77300000Y-26551400D01*
X88674300Y-72149800D02*
X89124300Y-72149800D01*
X77998700Y-128687300D02*
X77998700Y-128037600D01*
D41*
X94491900Y-35527800D02*
X96500000Y-35527800D01*
D38*
X78410400Y-112040800D02*
X78410400Y-111502400D01*
X78410400Y-111502400D02*
X78410400Y-111403100D01*
X60957700Y-124543600D02*
X61768100Y-123733200D01*
X63331400Y-28683000D02*
X58826700Y-28683000D01*
X79672700Y-110777600D02*
X79033500Y-110777600D01*
D39*
X44931000Y-31946200D02*
X44931000Y-25478100D01*
D38*
X84941400Y-110777600D02*
X88059900Y-113896100D01*
D39*
X47101200Y-105537400D02*
X47101200Y-100370700D01*
D38*
X79672700Y-111277700D02*
X79033500Y-111277700D01*
D41*
X94491900Y-34727700D02*
X95000000Y-34727700D01*
D38*
X60394100Y-126984900D02*
X60380300Y-126971100D01*
X77043900Y-43073300D02*
X79611900Y-40505300D01*
X81744000Y-26551400D02*
X82115600Y-26923000D01*
X79672700Y-110777600D02*
X84941400Y-110777600D01*
X73589700Y-3325800D02*
X73642100Y-3273400D01*
X88317600Y-113896100D02*
X88059900Y-113896100D01*
D37*
X106284300Y-110828000D02*
X105384300Y-110828000D01*
D41*
X95000000Y-34727700D02*
X95200000Y-34927700D01*
D38*
X47918200Y-4936100D02*
X47435000Y-5419300D01*
X75774200Y-25820500D02*
X75774200Y-26900000D01*
D39*
X70384300Y-119573700D02*
X70384300Y-120068500D01*
D37*
X66364899Y-30437000D02*
X66164899Y-31037000D01*
D38*
X74791400Y-4504100D02*
X74905200Y-4617900D01*
D40*
X66109700Y-33677300D02*
X66210200Y-33777800D01*
D38*
X61333800Y-134990600D02*
X60059600Y-133716400D01*
X77993100Y-128032000D02*
X77993100Y-127806400D01*
X59226800Y-126452900D02*
X58576600Y-125802700D01*
X78910500Y-129331600D02*
X79098000Y-129519100D01*
X78410400Y-111403100D02*
X78410400Y-111401600D01*
X78652400Y-127796800D02*
X78642800Y-127806400D01*
X58159700Y-28469300D02*
X58613000Y-28469300D01*
X77993100Y-127806400D02*
X78642800Y-127806400D01*
X73589700Y-8464200D02*
X73589700Y-4504100D01*
X47435000Y-5419300D02*
X47435000Y-10539300D01*
D39*
X77948800Y-31563800D02*
X78468700Y-32083700D01*
D38*
X79145000Y-127556800D02*
X78905000Y-127796800D01*
X78905000Y-127796800D02*
X78652400Y-127796800D01*
X47435000Y-10539300D02*
X57806100Y-20910400D01*
X78410200Y-58044300D02*
X78410200Y-58267100D01*
X79611900Y-40505300D02*
X79611900Y-39446700D01*
X83729600Y-3273300D02*
X83729600Y-4504100D01*
X73589700Y-3477400D02*
X73589700Y-3325800D01*
D39*
X44500000Y-31946200D02*
X44500000Y-32922500D01*
X45359200Y-25478100D02*
X44931000Y-25478100D01*
D38*
X81344000Y-26951400D02*
X81744000Y-26551400D01*
D40*
X66509800Y-33675800D02*
X66509800Y-33277300D01*
D38*
X78910500Y-128677600D02*
X78910500Y-128023700D01*
D39*
X44893000Y-31785500D02*
X44500000Y-31946200D01*
X47435000Y-4936200D02*
X45459900Y-4936200D01*
D38*
X57735500Y-20981000D02*
X57806100Y-20910400D01*
D37*
X60366000Y-110881700D02*
X60520000Y-110459000D01*
D38*
X77910200Y-111651600D02*
X78160200Y-111401600D01*
X78410400Y-111401600D02*
X78534300Y-111277700D01*
D39*
X47435000Y-5419300D02*
X47435000Y-4936200D01*
D38*
X76871200Y-26551400D02*
X76871200Y-31563800D01*
X79289800Y-127556800D02*
X79145000Y-127556800D01*
D37*
X63627959Y-112837959D02*
X63860000Y-113336000D01*
D38*
X82414100Y-4617900D02*
X81859700Y-4617900D01*
D39*
X67309900Y-33677300D02*
X67909900Y-33977300D01*
X70384300Y-120068500D02*
X69403700Y-120068500D01*
D38*
X66109700Y-31836200D02*
X66109700Y-31461300D01*
D39*
X103546000Y-3135900D02*
X103546000Y-4222700D01*
D38*
X88535500Y-114114000D02*
X88317600Y-113896100D01*
D37*
X59219400Y-124027200D02*
X59319400Y-124327200D01*
D38*
X79033500Y-110777600D02*
X79033500Y-111277700D01*
D39*
X60380300Y-126452900D02*
X59226800Y-126452900D01*
D38*
%TO.N,GPOUT*%
X51260200Y-27622600D02*
X50877200Y-28005600D01*
X51260200Y-27477700D02*
X51260200Y-27622600D01*
D37*
%TO.N,INT*%
X79800000Y-59400000D02*
X80199999Y-65400000D01*
X80000000Y-58900000D02*
X79800000Y-59400000D01*
D38*
%TO.N,IO1*%
X81126600Y-65081500D02*
X78610300Y-67597800D01*
X81508900Y-64205200D02*
X81453600Y-64205200D01*
X80010200Y-56318200D02*
X80010200Y-57057500D01*
X81101000Y-64557800D02*
X81101000Y-65056000D01*
D39*
X81364500Y-56072300D02*
X80256100Y-56072300D01*
D38*
X81101000Y-65056000D02*
X81126600Y-65081500D01*
X81453600Y-64205200D02*
X81101000Y-64557800D01*
X81364500Y-56072300D02*
X81508900Y-56216700D01*
X80256100Y-56072300D02*
X80010200Y-56318200D01*
X81508900Y-56216700D02*
X81508900Y-64205200D01*
%TO.N,IO2*%
X80010200Y-52200100D02*
X80010200Y-53097700D01*
X80300000Y-51910300D02*
X80010200Y-52200100D01*
%TO.N,IO3*%
X80810300Y-54084500D02*
X81515400Y-54084500D01*
X80810300Y-53097700D02*
X80810300Y-54084500D01*
D37*
%TO.N,LRCLK*%
X64000000Y-103377800D02*
X78800000Y-76677799D01*
D39*
%TO.N,LSCTRL*%
X65709700Y-32877200D02*
X65359700Y-32877200D01*
X81919900Y-62954800D02*
X81919900Y-56054800D01*
X84195500Y-67486300D02*
X81919900Y-62954800D01*
X75719900Y-54154800D02*
X65819900Y-43154800D01*
X65319900Y-33154800D02*
X65359700Y-32877200D01*
X81919900Y-56054800D02*
X79619900Y-54054800D01*
X79619900Y-54054800D02*
X75719900Y-54154800D01*
X65819900Y-43154800D02*
X65019899Y-34254799D01*
X65019899Y-34254799D02*
X65319900Y-33154800D01*
%TO.N,MR#*%
X65684500Y-34306600D02*
X65684500Y-33702500D01*
D40*
X65684500Y-33702500D02*
X65709700Y-33677300D01*
D37*
%TO.N,PDMCLK*%
X58440400Y-111797900D02*
X59140400Y-112897900D01*
D39*
X77613900Y-126990100D02*
X76972200Y-126990100D01*
X76715400Y-126733300D02*
X76972200Y-126990100D01*
X75487000Y-126733300D02*
X76715400Y-126733300D01*
D38*
X77613900Y-126990100D02*
X77613900Y-126990000D01*
D37*
X59140400Y-112897900D02*
X63240399Y-116997900D01*
%TO.N,PDMDIN*%
X78581900Y-134785200D02*
X79781900Y-129368100D01*
X79781900Y-126668100D02*
X79289800Y-126168100D01*
X73390400Y-120697900D02*
X79290400Y-126197900D01*
X64490399Y-115997900D02*
X73390400Y-120697900D01*
X58790400Y-111797900D02*
X59190400Y-112697900D01*
X79781900Y-129368100D02*
X79781900Y-126668100D01*
X59190400Y-112697900D02*
X62990400Y-115897900D01*
X62990400Y-115897900D02*
X64490399Y-115997900D01*
%TO.N,RESETN*%
X73900000Y-38700000D02*
X77603500Y-39225200D01*
D38*
X77485300Y-58169100D02*
X77610100Y-58044300D01*
X77485300Y-58272700D02*
X77485300Y-58169100D01*
X77825000Y-39446700D02*
X77603500Y-39225200D01*
X77610100Y-57057500D02*
X77610100Y-58044300D01*
X78521700Y-39446700D02*
X77825000Y-39446700D01*
D37*
X67900000Y-33000000D02*
X73900000Y-38700000D01*
%TO.N,SCL*%
X87435400Y-115098600D02*
X87435400Y-114998600D01*
X87435400Y-114698600D02*
X87435400Y-114598600D01*
X87435400Y-115498600D02*
X87435400Y-115398600D01*
X77335400Y-67098600D02*
X78235400Y-65198600D01*
X80235400Y-74598600D02*
X78235400Y-72498600D01*
X87435400Y-115698600D02*
X87435400Y-115598600D01*
X87435400Y-114598600D02*
X87435400Y-114498600D01*
X88135400Y-116498600D02*
X88035400Y-116398600D01*
X88235400Y-116598600D02*
X88135400Y-116498600D01*
X87435400Y-115298600D02*
X87435400Y-115198600D01*
X88835400Y-117198600D02*
X88735400Y-117098600D01*
D40*
X65709700Y-32077100D02*
X65264400Y-31631800D01*
D37*
X89035400Y-117398600D02*
X88935400Y-117298600D01*
X87535400Y-115798600D02*
X87435400Y-115698600D01*
X78235400Y-72498600D02*
X77235400Y-67798600D01*
X77235400Y-67798600D02*
X77335400Y-67098600D01*
X88935400Y-117298600D02*
X88835400Y-117198600D01*
X89284800Y-117577600D02*
X89135400Y-117498600D01*
D40*
X65264400Y-31631800D02*
X65264400Y-31468500D01*
D37*
X89135400Y-117498600D02*
X89035400Y-117398600D01*
X87835400Y-116198600D02*
X87735400Y-116098600D01*
X87635400Y-115998600D02*
X87535400Y-115898600D01*
X88535400Y-116898600D02*
X88435400Y-116798600D01*
X87435400Y-115598600D02*
X87435400Y-115498600D01*
X87435400Y-115198600D02*
X87435400Y-115098600D01*
X87535400Y-115898600D02*
X87535400Y-115798600D01*
X87435400Y-115398600D02*
X87435400Y-115298600D01*
X87735400Y-116098600D02*
X87635400Y-115998600D01*
X87435400Y-114998600D02*
X87435400Y-114898600D01*
X88035400Y-116398600D02*
X87935400Y-116298600D01*
X88435400Y-116798600D02*
X88335400Y-116698600D01*
X87935400Y-116298600D02*
X87835400Y-116198600D01*
D38*
X52260200Y-27477700D02*
X52260200Y-28117600D01*
D37*
X88735400Y-117098600D02*
X88635400Y-116998600D01*
X88635400Y-116998600D02*
X88535400Y-116898600D01*
X87435400Y-114898600D02*
X87435400Y-114798600D01*
X87435400Y-114798600D02*
X87435400Y-114698600D01*
X88335400Y-116698600D02*
X88235400Y-116598600D01*
%TO.N,SCL1*%
X76188533Y-109154500D02*
X83688533Y-101654500D01*
X85488533Y-100454500D02*
X92002100Y-95854500D01*
%TO.N,SCL2*%
X76110400Y-109614600D02*
X75810400Y-110514600D01*
X75810400Y-110514600D02*
X76110400Y-111514600D01*
X78110400Y-109514600D02*
X76110400Y-109614600D01*
X76110400Y-111514600D02*
X84310400Y-119814600D01*
X92010400Y-127014600D02*
X92101900Y-126971300D01*
X84310400Y-119814600D02*
X92010400Y-127014600D01*
X78410400Y-110014600D02*
X78110400Y-109514600D01*
%TO.N,SDA*%
X64809699Y-32477200D02*
X64809699Y-32877200D01*
X87035299Y-114623500D02*
X87135300Y-115823500D01*
X87135300Y-115823500D02*
X87335299Y-116123500D01*
D38*
X51760300Y-27477700D02*
X51760300Y-27766700D01*
D37*
X79735300Y-65223500D02*
X78335299Y-64623500D01*
X78335299Y-64623500D02*
X78035299Y-64623500D01*
X78035299Y-64623500D02*
X77635300Y-65023500D01*
X79935300Y-74923500D02*
X85535299Y-110723500D01*
X76935300Y-67423500D02*
X76935300Y-69723500D01*
X76935300Y-69723500D02*
X78135300Y-73123500D01*
X65709700Y-32477200D02*
X64809699Y-32477200D01*
X78135300Y-73123500D02*
X79935300Y-74923500D01*
D38*
X51578900Y-27948100D02*
X51578900Y-28607200D01*
D37*
X77635300Y-65023500D02*
X76935300Y-67423500D01*
X87335299Y-116123500D02*
X89235300Y-118023500D01*
D38*
X51760300Y-27766700D02*
X51578900Y-27948100D01*
D37*
%TO.N,SDA1*%
X60640400Y-109199823D02*
X69940400Y-118599823D01*
X79440400Y-132399823D02*
X79240400Y-135399823D01*
D38*
%TO.N,SDA2*%
X78910200Y-110014600D02*
X79124300Y-109800500D01*
X79124300Y-109800500D02*
X80619000Y-109800500D01*
D37*
%TO.N,SD_STATE*%
X85320600Y-65424392D02*
X110220600Y-44224392D01*
X84220600Y-65724392D02*
X84920600Y-65724392D01*
X84920600Y-65724392D02*
X85320600Y-65424392D01*
%TO.N,SPI_CLK*%
X93459400Y-32095200D02*
X93459400Y-34095200D01*
X83268831Y-68400000D02*
X85968831Y-67000000D01*
X83268831Y-68438048D02*
X104568831Y-102738048D01*
X85968831Y-67000000D02*
X93868831Y-59100000D01*
X104568831Y-102738048D02*
X104868831Y-109638048D01*
D39*
%TO.N,SPI_CLK_SD*%
X93459400Y-36597800D02*
X93459400Y-35760200D01*
D37*
%TO.N,SPI_CS*%
X90760200Y-34545300D02*
X91660200Y-33945299D01*
X91660200Y-33945299D02*
X92460200Y-33945299D01*
X92659600Y-34545300D02*
X93159600Y-35145300D01*
X82660200Y-63545300D02*
X89260200Y-36145300D01*
X93159600Y-35145300D02*
X94491900Y-35127700D01*
X89260200Y-36145300D02*
X90760200Y-34545300D01*
X92460200Y-33945299D02*
X92659600Y-34145300D01*
X82160200Y-67916830D02*
X82360200Y-64945300D01*
X92659600Y-34145300D02*
X92659600Y-34545300D01*
D39*
%TO.N,SPI_CS_SD*%
X92659600Y-36339800D02*
X92659600Y-35760200D01*
D38*
X92514500Y-36484900D02*
X92659600Y-36339800D01*
X92514500Y-36600000D02*
X92514500Y-36484900D01*
D37*
%TO.N,SPI_MISO*%
X81385200Y-70927700D02*
X81185200Y-70527700D01*
X81485200Y-65227700D02*
X81585200Y-64727700D01*
X105785200Y-109827700D02*
X104985200Y-94727700D01*
X83285200Y-71727700D02*
X81385200Y-70927700D01*
X88985199Y-42295200D02*
X92085199Y-36095200D01*
X81185200Y-70527700D02*
X81385200Y-65327700D01*
X105585200Y-110327700D02*
X105785200Y-109827700D01*
X104985200Y-94727700D02*
X104385200Y-94027700D01*
X81385200Y-65327700D02*
X81485200Y-65227700D01*
X86685200Y-76327700D02*
X83285200Y-71727700D01*
X104385200Y-94027700D02*
X94385200Y-84027700D01*
X93385200Y-34795200D02*
X93785199Y-34595200D01*
X93785199Y-34595200D02*
X93859500Y-34095200D01*
D39*
%TO.N,SPI_MISO_SD*%
X93859500Y-36030100D02*
X93859500Y-35760200D01*
D38*
X94009400Y-36180000D02*
X100630600Y-42801200D01*
D39*
X94009400Y-36180000D02*
X93859500Y-36030100D01*
D37*
%TO.N,SPI_MOSI*%
X81820724Y-68095200D02*
X81720724Y-65495200D01*
X85020724Y-55395200D02*
X87020724Y-46995200D01*
X81720724Y-65495200D02*
X81920724Y-64995200D01*
X92620724Y-33495199D02*
X92920724Y-33495199D01*
X93020724Y-33695200D02*
X93059600Y-34095200D01*
X91220724Y-33695200D02*
X92620724Y-33495199D01*
X82720724Y-68005231D02*
X82220724Y-68295200D01*
X82220724Y-68295200D02*
X82020724Y-68295200D01*
X92920724Y-33495199D02*
X93020724Y-33695200D01*
X82020724Y-68295200D02*
X81820724Y-68095200D01*
%TO.N,SPI_MOSI_SD*%
X93104800Y-35742800D02*
X93059600Y-35760200D01*
X85504799Y-24042800D02*
X93104800Y-32742800D01*
X76904800Y-17842800D02*
X78404800Y-18642800D01*
X78404800Y-18642800D02*
X85504799Y-24042800D01*
%TO.N,SW*%
X68565000Y-32377000D02*
X68765000Y-32177000D01*
X68265000Y-29677000D02*
X67765000Y-29677000D01*
X67765000Y-29677000D02*
X67165000Y-30277000D01*
D39*
X67309900Y-32477200D02*
X68100000Y-32477200D01*
D37*
X69265000Y-30977000D02*
X68865000Y-29777000D01*
X68765000Y-32177000D02*
X69265000Y-30977000D01*
X68865000Y-29777000D02*
X68265000Y-29677000D01*
X68065000Y-32477000D02*
X68565000Y-32377000D01*
D38*
%TO.N,SWCLK*%
X76010200Y-57057500D02*
X76010200Y-58044300D01*
X76010200Y-58044300D02*
X75780000Y-58274500D01*
%TO.N,SWDIO*%
X76810300Y-57057500D02*
X76810300Y-58601100D01*
X76810300Y-58601100D02*
X76735300Y-58676100D01*
D37*
%TO.N,TCK*%
X78390400Y-53197700D02*
X78410200Y-53097700D01*
%TO.N,TDI*%
X71240400Y-63497700D02*
X75740400Y-54597700D01*
X64840400Y-90897700D02*
X71240400Y-63497700D01*
%TO.N,TDO*%
X59490400Y-112497900D02*
X61890400Y-102897700D01*
%TO.N,TMS*%
X58200000Y-106397700D02*
X65099999Y-91197700D01*
%TO.N,TS*%
X66509800Y-32877200D02*
X66579799Y-32877200D01*
D38*
X45566900Y-12093500D02*
X45566900Y-12877600D01*
D39*
X44500000Y-5419300D02*
X45459900Y-5419300D01*
X44895400Y-4446400D02*
X44500000Y-4446400D01*
X44500000Y-4446400D02*
X44500000Y-5419300D01*
D38*
%TO.N,USB_DM*%
X85260400Y-24372800D02*
X85258800Y-24371200D01*
X79409900Y-2616000D02*
X79666700Y-2359200D01*
X79409900Y-2616000D02*
X79409900Y-3591200D01*
X78409900Y-3591200D02*
X78409900Y-2566000D01*
X79666700Y-2359200D02*
X85260400Y-2359200D01*
D39*
X78409900Y-2566000D02*
X79359900Y-2566000D01*
D38*
X85260400Y-25592700D02*
X85260400Y-24372800D01*
X79359900Y-2566000D02*
X79409900Y-2616000D01*
X85260400Y-25592700D02*
X85260400Y-26362800D01*
%TO.N,USB_DP*%
X78909700Y-3591200D02*
X78909700Y-4617900D01*
X78702900Y-4824700D02*
X78909700Y-4617900D01*
X81052300Y-25873500D02*
X80981700Y-25802900D01*
X84260400Y-25873500D02*
X84260400Y-26154400D01*
X84260400Y-26154400D02*
X84260400Y-26362800D01*
X84260400Y-25873500D02*
X81052300Y-25873500D01*
X77909700Y-3591200D02*
X77909700Y-4617900D01*
X84260400Y-25592700D02*
X84260400Y-25873500D01*
X77909700Y-4617900D02*
X78909700Y-4617900D01*
D39*
%TO.N,VCC*%
X63084100Y-25200000D02*
X62622700Y-25661400D01*
D38*
X50892500Y-20227600D02*
X50892500Y-20799300D01*
X51760300Y-26477700D02*
X51760300Y-24395400D01*
D40*
X66909800Y-33677300D02*
X66909800Y-33277300D01*
D39*
X62622700Y-25661400D02*
X62210600Y-25661400D01*
D38*
X51760300Y-21667100D02*
X50892500Y-20799300D01*
D39*
X63084100Y-24977600D02*
X63084100Y-25200000D01*
D38*
X51760300Y-24395400D02*
X51760300Y-21667100D01*
D41*
%TO.N,VUSB*%
X67324900Y-33292300D02*
X67309900Y-33277300D01*
D38*
X81059800Y-3591200D02*
X81059800Y-4617900D01*
D39*
X46850000Y-12285600D02*
X46850000Y-13310400D01*
D38*
X84539700Y-24810200D02*
X84760500Y-25031000D01*
X76259800Y-3591200D02*
X76259800Y-4617900D01*
D39*
X46651400Y-12087000D02*
X46850000Y-12285600D01*
X46850000Y-13310400D02*
X45999900Y-13310400D01*
D38*
X76486600Y-4844700D02*
X76259800Y-4617900D01*
X80229200Y-5448500D02*
X81059800Y-4617900D01*
X77090400Y-5448500D02*
X80229200Y-5448500D01*
X76486600Y-4844700D02*
X77090400Y-5448500D01*
D41*
X67739900Y-33292300D02*
X67324900Y-33292300D01*
D38*
X84760500Y-25592700D02*
X84760500Y-25031000D01*
%TO.N,V_BAT*%
X50026900Y-24021800D02*
X50026900Y-25244400D01*
X56479900Y-22258000D02*
X52260200Y-26477700D01*
X50026900Y-25244400D02*
X51260200Y-26477700D01*
X58067300Y-22258000D02*
X58283900Y-22041400D01*
X58067300Y-22258000D02*
X56479900Y-22258000D01*
X58283900Y-21577700D02*
X58283900Y-22041400D01*
X50026900Y-20227600D02*
X50026900Y-24021800D01*
D39*
%TO.N,V_LS*%
X70150000Y-131728800D02*
X70150000Y-132401999D01*
D38*
X77147700Y-111777600D02*
X76784900Y-111777600D01*
D39*
X49402100Y-109703300D02*
X49402100Y-108572700D01*
D38*
X48556300Y-110549100D02*
X49402100Y-109703300D01*
D39*
X48059500Y-99724900D02*
X48059500Y-99960800D01*
D38*
X80430800Y-59171100D02*
X81107200Y-58494700D01*
X91418400Y-35127700D02*
X90996000Y-35127700D01*
D37*
X105335900Y-109697796D02*
X104835900Y-110797795D01*
D38*
X80430700Y-59329700D02*
X80430700Y-59171100D01*
D37*
X105459800Y-109827700D02*
X104859800Y-110727700D01*
D38*
X77147700Y-112215900D02*
X77611800Y-112680000D01*
D39*
X76784900Y-111777600D02*
X76309800Y-111302500D01*
D38*
X77785400Y-109852500D02*
X77910200Y-109977300D01*
D37*
X104859800Y-110727700D02*
X104859800Y-110800805D01*
D39*
X69884800Y-131463600D02*
X70150000Y-131728800D01*
D38*
X76309800Y-111302500D02*
X76309800Y-110531800D01*
X81107200Y-57354400D02*
X80810300Y-57057500D01*
X62260300Y-121909000D02*
X67478400Y-121909000D01*
D39*
X68700000Y-120687400D02*
X68700000Y-119519900D01*
D38*
X77147700Y-111777600D02*
X77147700Y-112215900D01*
D39*
X48059500Y-99960800D02*
X47649600Y-100370700D01*
D38*
X76309800Y-110531800D02*
X76294100Y-110531800D01*
X78910200Y-112040800D02*
X78910200Y-112680000D01*
D39*
X70150000Y-132401999D02*
X69410200Y-132401999D01*
D41*
X94491700Y-34327900D02*
X96000000Y-34327900D01*
D38*
X77613900Y-126168100D02*
X77613900Y-125555700D01*
D37*
X97859800Y-116849900D02*
X104859800Y-110800805D01*
D38*
X81107200Y-58494700D02*
X81107200Y-57354400D01*
X77613900Y-126168000D02*
X77613900Y-126168100D01*
X77910200Y-109977300D02*
X77910200Y-110014600D01*
D39*
X91418400Y-34727700D02*
X91418400Y-35127700D01*
X92027600Y-34727700D02*
X91418400Y-34727700D01*
D38*
X90234000Y-116191500D02*
X91108500Y-116191500D01*
D39*
X76309800Y-109852500D02*
X77785400Y-109852500D01*
X49402100Y-108572700D02*
X48210300Y-108572700D01*
D38*
X80430700Y-59171100D02*
X80430800Y-59171100D01*
X77611800Y-112680000D02*
X78910200Y-112680000D01*
X89083900Y-115041400D02*
X90234000Y-116191500D01*
D37*
X105384800Y-109697796D02*
X105459800Y-109827700D01*
D38*
X89083900Y-114577700D02*
X89083900Y-115041400D01*
D37*
X59490400Y-110747900D02*
X58090400Y-110747900D01*
D39*
X67478400Y-121909000D02*
X68700000Y-120687400D01*
D38*
X76309800Y-110531800D02*
X76309800Y-109852500D01*
D37*
X94491700Y-34327900D02*
X94527600Y-34227900D01*
D39*
X92027600Y-35127700D02*
X91418400Y-35127700D01*
X68700000Y-119519900D02*
X69403700Y-119519900D01*
D38*
X77613900Y-125555700D02*
X77459400Y-125401200D01*
D37*
X92114202Y-34377900D02*
X92027600Y-34327900D01*
D38*
X78910200Y-112041000D02*
X78910200Y-112040800D01*
X92027600Y-34327900D02*
X92027600Y-34727700D01*
D39*
%TO.N,V_PMID*%
X67083900Y-32852100D02*
X67083600Y-32852100D01*
D40*
X66909800Y-32877200D02*
X66909800Y-32477200D01*
D38*
X53755400Y-33256000D02*
X53966500Y-33044900D01*
D39*
X78261600Y-25401800D02*
X77650000Y-25401800D01*
X77650000Y-25401800D02*
X77650000Y-26362000D01*
X67109000Y-32877200D02*
X67083900Y-32852100D01*
D40*
X67058500Y-32877200D02*
X66909800Y-32877200D01*
X67309900Y-32877200D02*
X67109000Y-32877200D01*
D39*
X77650000Y-26362000D02*
X78760400Y-26362000D01*
D40*
X67083600Y-32852100D02*
X67058500Y-32877200D01*
D38*
%TO.N,V_SD*%
X91554800Y-35999000D02*
X89408200Y-38145600D01*
D39*
X105081400Y-3132600D02*
X104459800Y-3132600D01*
X91418400Y-35862600D02*
X91418400Y-35527800D01*
D38*
X106972900Y-3504000D02*
X106972900Y-3702800D01*
D39*
X91554800Y-35999000D02*
X91418400Y-35862600D01*
X106972900Y-3702800D02*
X105651600Y-3702800D01*
X106972900Y-3504000D02*
X108350000Y-2126900D01*
X92027600Y-35527800D02*
X91418400Y-35527800D01*
X105651600Y-3702800D02*
X105081400Y-3132600D01*
X108350000Y-2126900D02*
X108350000Y-1003400D01*
X108350000Y-1003400D02*
X109009700Y-1003400D01*
D38*
%TO.N,XL1*%
X85820000Y-70601000D02*
X87100100Y-69650000D01*
X87100100Y-69650000D02*
X88125700Y-69649900D01*
%TO.N,XL2*%
X87100100Y-72149900D02*
X88125700Y-72149800D01*
X85796000Y-71529000D02*
X87100100Y-72149900D01*
D37*
%TO.N,XTALI*%
X60415975Y-112456207D02*
X60366000Y-111430300D01*
X60245000Y-111624000D02*
X60415975Y-112456207D01*
%TO.N,XTALO*%
X62282000Y-113837000D02*
X62192400Y-113294000D01*
%TD*%
M02*
