%TF.GenerationSoftware,KiCad,Pcbnew,9.0.9-9.0.9~ubuntu22.04.1*%
%TF.CreationDate,2026-09-18T13:39:47-04:00*%
%TF.ProjectId,haven_dev_board,68617665-6e5f-4646-9576-5f626f617264,rev?*%
%TF.SameCoordinates,Original*%
%TF.FileFunction,Paste,Bot*%
%TF.FilePolarity,Positive*%
%FSLAX46Y46*%
G04 Gerber Fmt 4.6, Leading zero omitted, Abs format (unit mm)*
G04 Created by KiCad (PCBNEW 9.0.9-9.0.9~ubuntu22.04.1) date 2026-09-18 13:39:47*
%MOMM*%
%LPD*%
G01*
G04 APERTURE LIST*
G04 Aperture macros list*
%AMRotRect*
0 Rectangle, with rotation*
0 The origin of the aperture is its center*
0 $1 length*
0 $2 width*
0 $3 Rotation angle, in degrees counterclockwise*
0 Add horizontal line*
21,1,$1,$2,0,0,$3*%
G04 Aperture macros list end*
%ADD10RotRect,0.900000X0.800000X225.000000*%
%ADD11RotRect,0.368400X0.324000X315.000000*%
%ADD12R,0.303100X0.324000*%
%ADD13R,0.730000X0.530000*%
%ADD14R,0.696000X0.704600*%
%ADD15R,0.704600X0.696000*%
%ADD16R,0.696000X0.704500*%
%ADD17R,0.675000X0.250000*%
%ADD18R,0.250000X0.675000*%
%ADD19R,0.324000X0.368400*%
%ADD20R,0.368400X0.324000*%
%ADD21R,0.790100X0.540000*%
%ADD22R,1.800000X1.450000*%
%ADD23R,1.800000X1.400000*%
%ADD24R,0.600000X1.450000*%
%ADD25R,0.300000X1.450000*%
%ADD26C,0.250000*%
%ADD27R,0.565700X0.540000*%
%ADD28R,0.300000X0.520000*%
%ADD29R,0.508000X1.370100*%
%ADD30R,1.800000X1.000000*%
%ADD31R,0.200000X0.765000*%
%ADD32R,0.200000X0.665000*%
%ADD33R,0.665000X0.200000*%
G04 APERTURE END LIST*
D10*
%TO.C,CRYSTAL1*%
X60415975Y-112456207D03*
X61406207Y-111465975D03*
X62183813Y-112244005D03*
X61193793Y-113234025D03*
%TD*%
D11*
%TO.C,C45*%
X63240041Y-112450041D03*
X63627959Y-112837959D03*
%TD*%
D12*
%TO.C,R6*%
X45459900Y-4936200D03*
X45459900Y-5419300D03*
%TD*%
D13*
%TO.C,U13*%
X79289800Y-126168100D03*
X79289800Y-126990100D03*
D14*
X77993100Y-127806400D03*
D13*
X77613900Y-126990100D03*
X77613900Y-126168100D03*
D15*
X77998700Y-128687300D03*
D16*
X78910500Y-128677600D03*
D15*
X78905000Y-127796800D03*
%TD*%
D17*
%TO.C,U1*%
X79672700Y-110277700D03*
X79672700Y-110777600D03*
X79672700Y-111277700D03*
X79672700Y-111777600D03*
D18*
X78910200Y-112040800D03*
X78410400Y-112040800D03*
D17*
X77910200Y-112040800D03*
X77147700Y-111777600D03*
X77147700Y-111277700D03*
X77147700Y-110777600D03*
X77147700Y-110277700D03*
D18*
X77910200Y-110014600D03*
X78410400Y-110014600D03*
D17*
X78910200Y-110014600D03*
%TD*%
D19*
%TO.C,C46*%
X60366000Y-110881700D03*
X60366000Y-111430300D03*
%TD*%
D20*
%TO.C,C44*%
X47649600Y-100370700D03*
X47101200Y-100370700D03*
%TD*%
D21*
%TO.C,C34*%
X48210300Y-108572700D03*
X48210300Y-107482600D03*
%TD*%
D19*
%TO.C,C27*%
X105384300Y-110828000D03*
X104835900Y-110828000D03*
%TD*%
D22*
%TO.C,U12*%
X83729600Y-4504100D03*
X73589700Y-4504100D03*
D23*
X83729600Y-8464200D03*
X73589700Y-8464200D03*
D24*
X81859700Y-3591200D03*
X81059800Y-3591200D03*
D25*
X79909700Y-3591200D03*
X78909700Y-3591200D03*
X78409900Y-3591200D03*
X77409900Y-3591200D03*
D24*
X76259800Y-3591200D03*
X75459700Y-3591200D03*
D25*
X76909700Y-3591200D03*
X77909700Y-3591200D03*
X79409900Y-3591200D03*
X80409900Y-3591200D03*
%TD*%
D26*
%TO.C,U2*%
X67309900Y-33677300D03*
X67309900Y-33277300D03*
X67309900Y-32877200D03*
X67309900Y-32477200D03*
X67309900Y-32077100D03*
X66909800Y-33677300D03*
X66909800Y-33277300D03*
X66909800Y-32877200D03*
X66909800Y-32477200D03*
X66909800Y-32077100D03*
X66508300Y-33677300D03*
X66509800Y-33277300D03*
X66509800Y-32877200D03*
X66509800Y-32477200D03*
X66509800Y-32077100D03*
X66109700Y-33677300D03*
X66109700Y-33277300D03*
X66109700Y-32877200D03*
X66109700Y-32477200D03*
X66109700Y-32077100D03*
X65709700Y-33677300D03*
X65709700Y-33277300D03*
X65709700Y-32877200D03*
X65709700Y-32477200D03*
X65709700Y-32077100D03*
%TD*%
D27*
%TO.C,R21*%
X50026900Y-20227600D03*
X50892500Y-20227600D03*
%TD*%
D20*
%TO.C,C9*%
X78760400Y-26362000D03*
X78760400Y-25813400D03*
%TD*%
D12*
%TO.C,R17*%
X45359200Y-25961200D03*
X45359200Y-25478100D03*
%TD*%
D28*
%TO.C,D2*%
X85260400Y-26362800D03*
X84760500Y-26362800D03*
X84260400Y-26362800D03*
X84260400Y-25592700D03*
X84760500Y-25592700D03*
X85260400Y-25592700D03*
%TD*%
D29*
%TO.C,J1*%
X76010200Y-57057500D03*
X76010200Y-53097700D03*
X76810300Y-57057500D03*
X76810300Y-53097700D03*
X77610100Y-57057500D03*
X77610100Y-53097700D03*
X78410200Y-57057500D03*
X78410200Y-53097700D03*
X79210300Y-57057500D03*
X79210300Y-53097700D03*
X80010200Y-57057500D03*
X80010200Y-53097700D03*
X80810300Y-57057500D03*
X80810300Y-53097700D03*
%TD*%
D21*
%TO.C,C18*%
X67254999Y-31077000D03*
X66164899Y-31077000D03*
%TD*%
D26*
%TO.C,U6*%
X51260200Y-27477700D03*
X51760300Y-27477700D03*
X52260200Y-27477700D03*
X51260200Y-26977800D03*
X51760300Y-26977800D03*
X52260200Y-26977800D03*
X51260200Y-26477700D03*
X51760300Y-26477700D03*
X52260200Y-26477700D03*
%TD*%
D20*
%TO.C,C14*%
X88674300Y-69649900D03*
X88125700Y-69649900D03*
%TD*%
D12*
%TO.C,R28*%
X62675600Y-113294000D03*
X62192400Y-113294000D03*
%TD*%
%TO.C,R19*%
X49410200Y-5419200D03*
X49410200Y-4936100D03*
%TD*%
D20*
%TO.C,C11*%
X88809700Y-114303400D03*
X88809700Y-114852000D03*
%TD*%
D21*
%TO.C,C8*%
X104459800Y-4222700D03*
X104459800Y-3132600D03*
%TD*%
D20*
%TO.C,C21*%
X58009700Y-21303400D03*
X58009700Y-21852000D03*
%TD*%
%TO.C,C13*%
X69403700Y-119519900D03*
X69403700Y-120068500D03*
%TD*%
D21*
%TO.C,L2*%
X67165000Y-30277000D03*
X68255100Y-30277000D03*
%TD*%
D30*
%TO.C,X1*%
X87100100Y-69650000D03*
X87100100Y-72149900D03*
%TD*%
D21*
%TO.C,C49*%
X79611900Y-39446700D03*
X78521700Y-39446700D03*
%TD*%
%TO.C,C20*%
X52665300Y-38827700D03*
X53755400Y-38827700D03*
%TD*%
D20*
%TO.C,C6*%
X109009700Y-1003400D03*
X109009700Y-1552000D03*
%TD*%
D12*
%TO.C,R8*%
X58159700Y-28469200D03*
X58159700Y-27986100D03*
%TD*%
D20*
%TO.C,C38*%
X69410200Y-131853400D03*
X69410200Y-132402000D03*
%TD*%
D27*
%TO.C,R13*%
X45999900Y-12444800D03*
X45999900Y-13310400D03*
%TD*%
D20*
%TO.C,C2*%
X88674300Y-72149800D03*
X88125700Y-72149800D03*
%TD*%
D31*
%TO.C,U10*%
X92659600Y-34145300D03*
D32*
X93059600Y-34095200D03*
X93459400Y-34095200D03*
X93859500Y-34095200D03*
D33*
X94491700Y-34327900D03*
X94491900Y-34727700D03*
X94491900Y-35127700D03*
X94491900Y-35527800D03*
D32*
X93859500Y-35760200D03*
X93459400Y-35760200D03*
X93059600Y-35760200D03*
X92659600Y-35760200D03*
D33*
X92027600Y-35527800D03*
X92027600Y-35127700D03*
X92027600Y-34727700D03*
X92027600Y-34327900D03*
%TD*%
D20*
%TO.C,C23*%
X45358900Y-32922500D03*
X45358900Y-32373900D03*
%TD*%
%TO.C,C19*%
X63084100Y-24977600D03*
X62535500Y-24977600D03*
%TD*%
D12*
%TO.C,R7*%
X90858700Y-25377700D03*
X90858700Y-24894600D03*
%TD*%
D20*
%TO.C,C10*%
X69286000Y-24977800D03*
X69834600Y-24977800D03*
%TD*%
M02*
