%TF.GenerationSoftware,KiCad,Pcbnew,9.0.9-9.0.9~ubuntu22.04.1*%
%TF.CreationDate,2026-09-18T13:39:47-04:00*%
%TF.ProjectId,haven_dev_board,68617665-6e5f-4646-9576-5f626f617264,rev?*%
%TF.SameCoordinates,Original*%
%TF.FileFunction,Paste,Top*%
%TF.FilePolarity,Positive*%
%FSLAX46Y46*%
G04 Gerber Fmt 4.6, Leading zero omitted, Abs format (unit mm)*
G04 Created by KiCad (PCBNEW 9.0.9-9.0.9~ubuntu22.04.1) date 2026-09-18 13:39:47*
%MOMM*%
%LPD*%
G01*
G04 APERTURE LIST*
%ADD10R,0.303100X0.324000*%
%ADD11R,0.180000X0.315000*%
%ADD12R,0.525000X0.315000*%
%ADD13R,0.380000X0.330000*%
%ADD14R,0.180000X0.370000*%
%ADD15R,0.700000X0.600000*%
%ADD16R,0.324000X0.368400*%
%ADD17C,0.250000*%
%ADD18R,0.790100X0.540000*%
%ADD19R,0.368400X0.324000*%
%ADD20C,0.180000*%
%ADD21R,0.150100X0.250000*%
%ADD22R,0.350000X0.500000*%
%ADD23R,0.250000X0.200000*%
%ADD24R,0.150000X0.500000*%
%ADD25O,0.687000X0.364000*%
%ADD26R,0.280000X0.170000*%
%ADD27R,0.540000X0.790100*%
%ADD28R,0.500000X1.080000*%
%ADD29R,1.200000X1.050000*%
%ADD30R,0.350000X0.200000*%
%ADD31R,0.700000X1.200000*%
%ADD32R,0.549900X0.400000*%
G04 APERTURE END LIST*
D10*
%TO.C,R3*%
X81610200Y-43286100D03*
X81610200Y-43769300D03*
%TD*%
D11*
%TO.C,CN1*%
X77531900Y-134785200D03*
X77531900Y-132869300D03*
X77881900Y-134785200D03*
X77881900Y-132869300D03*
X78231900Y-134785200D03*
X78231900Y-132869300D03*
X78581900Y-134785200D03*
X78581900Y-132869300D03*
X78931900Y-134785200D03*
X78931900Y-132869300D03*
X79281900Y-134785200D03*
X79281900Y-132869800D03*
D12*
X79804400Y-134785200D03*
X79804700Y-132869500D03*
X77009400Y-134785200D03*
X77008900Y-132869300D03*
D13*
X80511800Y-134402200D03*
X80511800Y-133252100D03*
X76301700Y-134402200D03*
X76301700Y-133252100D03*
D14*
X77531900Y-133827100D03*
X78121900Y-133827100D03*
X78691900Y-133827100D03*
X79281900Y-133827100D03*
%TD*%
D15*
%TO.C,SW1*%
X77055800Y-108009400D03*
X79835800Y-108009400D03*
X77055800Y-106883400D03*
X79835800Y-106883400D03*
%TD*%
D10*
%TO.C,R27*%
X104309900Y-96544300D03*
X104309900Y-96061100D03*
%TD*%
D16*
%TO.C,C22*%
X67635700Y-32476899D03*
X68184300Y-32476899D03*
%TD*%
D17*
%TO.C,U14*%
X104759800Y-111427700D03*
X105459900Y-111427700D03*
X104409800Y-111227800D03*
X105109900Y-111227800D03*
X105809900Y-111227800D03*
X104409800Y-110827700D03*
X105809900Y-110827700D03*
X104759800Y-110627600D03*
X105459900Y-110627600D03*
X105109900Y-110427700D03*
X104759800Y-110227800D03*
X105459900Y-110227800D03*
X105109900Y-110027600D03*
X104759800Y-109827700D03*
X105459900Y-109827700D03*
X104409800Y-109627600D03*
X105809900Y-109627600D03*
X104409800Y-109227800D03*
X105109900Y-109227800D03*
X105809900Y-109227800D03*
X104759800Y-109027600D03*
X105459600Y-109027600D03*
%TD*%
D18*
%TO.C,C41*%
X48210400Y-108522300D03*
X48210400Y-107432200D03*
%TD*%
D19*
%TO.C,C7*%
X83185500Y-99077700D03*
X83733900Y-99077700D03*
%TD*%
%TO.C,C26*%
X89409800Y-42926900D03*
X89409800Y-43475300D03*
%TD*%
%TO.C,C40*%
X62260300Y-122603400D03*
X62260300Y-123151800D03*
%TD*%
%TO.C,C4*%
X111979800Y-96902000D03*
X111979800Y-96353600D03*
%TD*%
%TO.C,C48*%
X65117300Y-134528400D03*
X65117300Y-135076800D03*
%TD*%
%TO.C,C47*%
X44570300Y-106568500D03*
X44570300Y-106020100D03*
%TD*%
D20*
%TO.C,U3*%
X77109900Y-96177400D03*
X77109900Y-95777600D03*
X76709900Y-96177400D03*
X76709900Y-95777600D03*
%TD*%
D21*
%TO.C,Q1*%
X105714700Y-42702700D03*
X106064800Y-42702700D03*
D22*
X105890000Y-43352700D03*
%TD*%
D10*
%TO.C,R11*%
X92769700Y-132336100D03*
X92769700Y-132819300D03*
%TD*%
D17*
%TO.C,U15*%
X57390400Y-112497900D03*
X57740400Y-112497900D03*
X58090400Y-112497900D03*
X58440400Y-112497900D03*
X58790400Y-112497900D03*
X59140400Y-112497900D03*
X59490400Y-112497900D03*
X59840400Y-112497900D03*
X57390400Y-112147900D03*
X57740400Y-112147900D03*
X58090400Y-112147900D03*
X58440400Y-112147900D03*
X58790400Y-112147900D03*
X59140400Y-112147900D03*
X59490400Y-112147900D03*
X59840400Y-112147900D03*
X57390400Y-111797900D03*
X57740400Y-111797900D03*
X58090400Y-111797900D03*
X58440400Y-111797900D03*
X58790400Y-111797900D03*
X59140400Y-111797900D03*
X59490400Y-111797900D03*
X59840400Y-111797900D03*
X57390400Y-111447900D03*
X57740400Y-111447900D03*
X58090400Y-111447900D03*
X58440400Y-111447900D03*
X58790400Y-111447900D03*
X59140400Y-111447900D03*
X59490400Y-111447900D03*
X59840400Y-111447900D03*
X57390400Y-111097900D03*
X57740400Y-111097900D03*
X58090400Y-111097900D03*
X58440400Y-111097900D03*
X58790400Y-111097900D03*
X59140400Y-111097900D03*
X59490400Y-111097900D03*
X59840400Y-111097900D03*
X57390400Y-110747900D03*
X57740400Y-110747900D03*
X58090400Y-110747900D03*
X58440400Y-110747900D03*
X58790400Y-110747900D03*
X59140400Y-110747900D03*
X59490400Y-110747900D03*
X59840400Y-110747900D03*
X57390400Y-110397800D03*
X57740400Y-110397800D03*
X58090400Y-110397800D03*
X58440400Y-110397800D03*
X58790400Y-110397800D03*
X59140400Y-110397800D03*
X59490400Y-110397800D03*
X59840400Y-110397800D03*
%TD*%
D23*
%TO.C,Q2*%
X69799900Y-43307700D03*
X69399800Y-43307700D03*
D24*
X69599700Y-42907600D03*
%TD*%
D10*
%TO.C,R9*%
X92659900Y-96542300D03*
X92659900Y-96059100D03*
%TD*%
D19*
%TO.C,C42*%
X47076500Y-100872700D03*
X47624900Y-100872700D03*
%TD*%
D25*
%TO.C,LED3*%
X77941800Y-117002000D03*
X78978600Y-117002000D03*
X78978600Y-116352000D03*
X77941800Y-116352000D03*
%TD*%
D10*
%TO.C,R1*%
X109645200Y-39815300D03*
X110128400Y-39815300D03*
%TD*%
%TO.C,R26*%
X96579900Y-96542300D03*
X96579900Y-96059100D03*
%TD*%
%TO.C,R4*%
X73760200Y-43286100D03*
X73760200Y-43769300D03*
%TD*%
D19*
%TO.C,C31*%
X59164300Y-113323000D03*
X58615900Y-113323000D03*
%TD*%
D26*
%TO.C,U4*%
X65894900Y-43282700D03*
X65894900Y-42872800D03*
%TD*%
D10*
%TO.C,R2*%
X85509700Y-43286100D03*
X85509700Y-43769300D03*
%TD*%
D27*
%TO.C,C33*%
X56690100Y-110443100D03*
X56690100Y-109353000D03*
%TD*%
D23*
%TO.C,Q3*%
X110710300Y-43927600D03*
X110710300Y-44327700D03*
D24*
X110310200Y-44127800D03*
%TD*%
D28*
%TO.C,CARD1*%
X79104700Y-17842800D03*
X78004900Y-17842800D03*
X76904800Y-17842800D03*
X76154700Y-17842800D03*
X74704900Y-17842800D03*
X73604800Y-17842800D03*
X72504800Y-17842800D03*
X71404700Y-17842800D03*
D29*
X70029800Y-19482600D03*
X70029800Y-23932700D03*
X80479900Y-23932700D03*
X80479900Y-19482600D03*
D28*
X75454700Y-17842800D03*
%TD*%
D30*
%TO.C,U5*%
X87334700Y-118377700D03*
X87334700Y-117977700D03*
X87334700Y-117577600D03*
X87334700Y-117177600D03*
X88784800Y-117177600D03*
X88784800Y-117577600D03*
X88784800Y-117977700D03*
X88784800Y-118377700D03*
D31*
X88059900Y-117777500D03*
%TD*%
D19*
%TO.C,C32*%
X64410300Y-100952000D03*
X64410300Y-100403600D03*
%TD*%
%TO.C,C28*%
X106884800Y-34103400D03*
X106884800Y-34651800D03*
%TD*%
D10*
%TO.C,R23*%
X100489900Y-96542300D03*
X100489900Y-96059100D03*
%TD*%
D19*
%TO.C,C1*%
X86084300Y-72603000D03*
X85535900Y-72603000D03*
%TD*%
%TO.C,C3*%
X108144800Y-96353400D03*
X108144800Y-96901800D03*
%TD*%
D10*
%TO.C,U8*%
X77709900Y-43769300D03*
X77709900Y-43286100D03*
%TD*%
D19*
%TO.C,C5*%
X94362300Y-118101500D03*
X94362300Y-117553100D03*
%TD*%
D10*
%TO.C,R5*%
X88759900Y-96542300D03*
X88759900Y-96059100D03*
%TD*%
D19*
%TO.C,C12*%
X93359800Y-43475500D03*
X93359800Y-42927100D03*
%TD*%
D10*
%TO.C,R10*%
X92769900Y-127669300D03*
X92769900Y-127186100D03*
%TD*%
D27*
%TO.C,C16*%
X68843000Y-31799000D03*
X68843000Y-32889100D03*
%TD*%
D19*
%TO.C,C36*%
X56171000Y-120477700D03*
X56719400Y-120477700D03*
%TD*%
%TO.C,C17*%
X62660300Y-43053400D03*
X62660300Y-43601800D03*
%TD*%
D10*
%TO.C,R15*%
X101209700Y-43286100D03*
X101209700Y-43769300D03*
%TD*%
D32*
%TO.C,MDBT531*%
X75010300Y-65927700D03*
X75985200Y-65927700D03*
X76360400Y-66877600D03*
X76735300Y-65927700D03*
X77110200Y-66877600D03*
X77485300Y-65927700D03*
X77860200Y-66877600D03*
X78235400Y-65927700D03*
X78610300Y-66877600D03*
X78985200Y-65927700D03*
X79310300Y-66877600D03*
X79735300Y-65927700D03*
X80060400Y-66877600D03*
X80485300Y-65927700D03*
X80810200Y-66877600D03*
X81235400Y-65927700D03*
X81560200Y-66877600D03*
X81985200Y-65927700D03*
X82310300Y-66877600D03*
X82735200Y-65927700D03*
X83060400Y-66877600D03*
X83485300Y-65927700D03*
X83810200Y-66877600D03*
X84810200Y-65852700D03*
X84810200Y-66602800D03*
X84810200Y-67352600D03*
X83860200Y-67727800D03*
X84810200Y-68102700D03*
X83860200Y-68477600D03*
X84810200Y-68852700D03*
X83860200Y-69227600D03*
X84810200Y-69602800D03*
X83860200Y-69977700D03*
X84810200Y-70352600D03*
X83860200Y-70727800D03*
X84810200Y-71102700D03*
X83860200Y-71477800D03*
X84810200Y-71852700D03*
X83860200Y-72227600D03*
X84810200Y-72602800D03*
X84810200Y-73352600D03*
X84810200Y-74102700D03*
X83810200Y-73077800D03*
X83485300Y-74027700D03*
X83060400Y-73077800D03*
X82735200Y-74027700D03*
X82310300Y-73077800D03*
X81985200Y-74027700D03*
X81560200Y-73077800D03*
X81235400Y-74027700D03*
X80810200Y-73077800D03*
X80485300Y-74027700D03*
X80060400Y-73077800D03*
X79735300Y-74027700D03*
X79310300Y-73077800D03*
X78985200Y-74027700D03*
X78560200Y-73077800D03*
X78235400Y-74027700D03*
X77810200Y-73077800D03*
X77485300Y-74027700D03*
X75010300Y-74027700D03*
X76960300Y-67602800D03*
X76960300Y-68252800D03*
X76960300Y-69002600D03*
X76960300Y-69752700D03*
%TD*%
D19*
%TO.C,C43*%
X48556300Y-116926900D03*
X48556300Y-117475300D03*
%TD*%
D20*
%TO.C,U9*%
X109409400Y-28677400D03*
X109409400Y-28277600D03*
X109009400Y-28677400D03*
X109009400Y-28277600D03*
%TD*%
D10*
%TO.C,R20*%
X97259700Y-43286100D03*
X97259700Y-43769300D03*
%TD*%
D19*
%TO.C,C29*%
X111159800Y-34752000D03*
X111159800Y-34203600D03*
%TD*%
M02*
