%TF.GenerationSoftware,KiCad,Pcbnew,9.0.9-9.0.9~ubuntu22.04.1*%
%TF.CreationDate,2026-09-18T13:39:47-04:00*%
%TF.ProjectId,haven_dev_board,68617665-6e5f-4646-9576-5f626f617264,rev?*%
%TF.SameCoordinates,Original*%
%TF.FileFunction,Soldermask,Bot*%
%TF.FilePolarity,Negative*%
%FSLAX46Y46*%
G04 Gerber Fmt 4.6, Leading zero omitted, Abs format (unit mm)*
G04 Created by KiCad (PCBNEW 9.0.9-9.0.9~ubuntu22.04.1) date 2026-09-18 13:39:47*
%MOMM*%
%LPD*%
G01*
G04 APERTURE LIST*
G04 APERTURE END LIST*
G36*
X69594400Y-132564000D02*
G01*
X69226000Y-132564000D01*
X69226000Y-132240000D01*
X69594400Y-132240000D01*
X69594400Y-132564000D01*
G37*
G36*
X69594400Y-132015400D02*
G01*
X69226000Y-132015400D01*
X69226000Y-131691400D01*
X69594400Y-131691400D01*
X69594400Y-132015400D01*
G37*
G36*
X78351000Y-129035300D02*
G01*
X77646400Y-129035300D01*
X77646400Y-128339300D01*
X78351000Y-128339300D01*
X78351000Y-129035300D01*
G37*
G36*
X79258500Y-129029850D02*
G01*
X78562500Y-129029850D01*
X78562500Y-128325350D01*
X79258500Y-128325350D01*
X79258500Y-129029850D01*
G37*
G36*
X78341100Y-128158700D02*
G01*
X77645100Y-128158700D01*
X77645100Y-127454100D01*
X78341100Y-127454100D01*
X78341100Y-128158700D01*
G37*
G36*
X79257300Y-128144800D02*
G01*
X78552700Y-128144800D01*
X78552700Y-127448800D01*
X79257300Y-127448800D01*
X79257300Y-128144800D01*
G37*
G36*
X77978900Y-127255100D02*
G01*
X77248900Y-127255100D01*
X77248900Y-126725100D01*
X77978900Y-126725100D01*
X77978900Y-127255100D01*
G37*
G36*
X79654800Y-127255100D02*
G01*
X78924800Y-127255100D01*
X78924800Y-126725100D01*
X79654800Y-126725100D01*
X79654800Y-127255100D01*
G37*
G36*
X77978900Y-126433100D02*
G01*
X77248900Y-126433100D01*
X77248900Y-125903100D01*
X77978900Y-125903100D01*
X77978900Y-126433100D01*
G37*
G36*
X79654800Y-126433100D02*
G01*
X78924800Y-126433100D01*
X78924800Y-125903100D01*
X79654800Y-125903100D01*
X79654800Y-126433100D01*
G37*
G36*
X69587900Y-120230500D02*
G01*
X69219500Y-120230500D01*
X69219500Y-119906500D01*
X69587900Y-119906500D01*
X69587900Y-120230500D01*
G37*
G36*
X69587900Y-119681900D02*
G01*
X69219500Y-119681900D01*
X69219500Y-119357900D01*
X69587900Y-119357900D01*
X69587900Y-119681900D01*
G37*
G36*
X88993900Y-115014000D02*
G01*
X88625500Y-115014000D01*
X88625500Y-114690000D01*
X88993900Y-114690000D01*
X88993900Y-115014000D01*
G37*
G36*
X88993900Y-114465400D02*
G01*
X88625500Y-114465400D01*
X88625500Y-114141400D01*
X88993900Y-114141400D01*
X88993900Y-114465400D01*
G37*
G36*
X61794834Y-113198670D02*
G01*
X61158438Y-113835066D01*
X60592752Y-113269380D01*
X61229148Y-112632984D01*
X61794834Y-113198670D01*
G37*
G36*
X62343950Y-113456000D02*
G01*
X62040850Y-113456000D01*
X62040850Y-113132000D01*
X62343950Y-113132000D01*
X62343950Y-113456000D01*
G37*
G36*
X62827150Y-113456000D02*
G01*
X62524050Y-113456000D01*
X62524050Y-113132000D01*
X62827150Y-113132000D01*
X62827150Y-113456000D01*
G37*
G36*
X63872759Y-112853657D02*
G01*
X63643657Y-113082759D01*
X63383159Y-112822261D01*
X63612261Y-112593159D01*
X63872759Y-112853657D01*
G37*
G36*
X61017016Y-112420852D02*
G01*
X60380620Y-113057248D01*
X59814934Y-112491562D01*
X60451330Y-111855166D01*
X61017016Y-112420852D01*
G37*
G36*
X62784854Y-112208650D02*
G01*
X62148458Y-112845046D01*
X61582772Y-112279360D01*
X62219168Y-111642964D01*
X62784854Y-112208650D01*
G37*
G36*
X63484841Y-112465739D02*
G01*
X63255739Y-112694841D01*
X62995241Y-112434343D01*
X63224343Y-112205241D01*
X63484841Y-112465739D01*
G37*
G36*
X78535400Y-112378300D02*
G01*
X78285400Y-112378300D01*
X78285400Y-112195087D01*
X78256111Y-112165799D01*
X78247700Y-112165799D01*
X78247700Y-112165800D01*
X77572700Y-112165800D01*
X77572700Y-111915800D01*
X78247700Y-111915800D01*
X78256111Y-111915800D01*
X78285400Y-111886511D01*
X78285400Y-111708222D01*
X78285400Y-111703300D01*
X78535400Y-111703300D01*
X78535400Y-112378300D01*
G37*
G36*
X79035200Y-112378300D02*
G01*
X78785200Y-112378300D01*
X78785200Y-111703300D01*
X79035200Y-111703300D01*
X79035200Y-112378300D01*
G37*
G36*
X62007248Y-111430620D02*
G01*
X61370852Y-112067016D01*
X60805166Y-111501330D01*
X61441562Y-110864934D01*
X62007248Y-111430620D01*
G37*
G36*
X77485200Y-111902600D02*
G01*
X76810200Y-111902600D01*
X76810200Y-111652600D01*
X77485200Y-111652600D01*
X77485200Y-111902600D01*
G37*
G36*
X80010200Y-111902600D02*
G01*
X79335200Y-111902600D01*
X79335200Y-111652600D01*
X80010200Y-111652600D01*
X80010200Y-111902600D01*
G37*
G36*
X60528000Y-111614500D02*
G01*
X60204000Y-111614500D01*
X60204000Y-111246100D01*
X60528000Y-111246100D01*
X60528000Y-111614500D01*
G37*
G36*
X77485200Y-111402700D02*
G01*
X76810200Y-111402700D01*
X76810200Y-111152700D01*
X77485200Y-111152700D01*
X77485200Y-111402700D01*
G37*
G36*
X80010200Y-111402700D02*
G01*
X79335200Y-111402700D01*
X79335200Y-111152700D01*
X80010200Y-111152700D01*
X80010200Y-111402700D01*
G37*
G36*
X60528000Y-111065900D02*
G01*
X60204000Y-111065900D01*
X60204000Y-110697500D01*
X60528000Y-110697500D01*
X60528000Y-111065900D01*
G37*
G36*
X104997900Y-111012200D02*
G01*
X104673900Y-111012200D01*
X104673900Y-110643800D01*
X104997900Y-110643800D01*
X104997900Y-111012200D01*
G37*
G36*
X105546300Y-111012200D02*
G01*
X105222300Y-111012200D01*
X105222300Y-110643800D01*
X105546300Y-110643800D01*
X105546300Y-111012200D01*
G37*
G36*
X77485200Y-110902600D02*
G01*
X76810200Y-110902600D01*
X76810200Y-110652600D01*
X77485200Y-110652600D01*
X77485200Y-110902600D01*
G37*
G36*
X80010200Y-110902600D02*
G01*
X79335200Y-110902600D01*
X79335200Y-110652600D01*
X80010200Y-110652600D01*
X80010200Y-110902600D01*
G37*
G36*
X77485200Y-110402700D02*
G01*
X76810200Y-110402700D01*
X76810200Y-110152700D01*
X77485200Y-110152700D01*
X77485200Y-110402700D01*
G37*
G36*
X80010200Y-110402700D02*
G01*
X79335200Y-110402700D01*
X79335200Y-110152700D01*
X80010200Y-110152700D01*
X80010200Y-110402700D01*
G37*
G36*
X78035200Y-110352100D02*
G01*
X77785200Y-110352100D01*
X77785200Y-109677100D01*
X78035200Y-109677100D01*
X78035200Y-110352100D01*
G37*
G36*
X78535400Y-109860312D02*
G01*
X78564688Y-109889600D01*
X78572700Y-109889600D01*
X79247700Y-109889600D01*
X79247700Y-110139600D01*
X78572700Y-110139600D01*
X78572700Y-110139599D01*
X78564688Y-110139599D01*
X78535400Y-110168887D01*
X78535400Y-110352100D01*
X78285400Y-110352100D01*
X78285400Y-109677100D01*
X78535400Y-109677100D01*
X78535400Y-109860312D01*
G37*
G36*
X48605350Y-108842700D02*
G01*
X47815250Y-108842700D01*
X47815250Y-108302700D01*
X48605350Y-108302700D01*
X48605350Y-108842700D01*
G37*
G36*
X48605350Y-107752600D02*
G01*
X47815250Y-107752600D01*
X47815250Y-107212600D01*
X48605350Y-107212600D01*
X48605350Y-107752600D01*
G37*
G36*
X47285400Y-100532700D02*
G01*
X46917000Y-100532700D01*
X46917000Y-100208700D01*
X47285400Y-100208700D01*
X47285400Y-100532700D01*
G37*
G36*
X47833800Y-100532700D02*
G01*
X47465400Y-100532700D01*
X47465400Y-100208700D01*
X47833800Y-100208700D01*
X47833800Y-100532700D01*
G37*
G36*
X88000100Y-71958512D02*
G01*
X88029388Y-71987800D01*
X88309900Y-71987800D01*
X88309900Y-72311800D01*
X88029387Y-72311800D01*
X88000100Y-72341087D01*
X88000100Y-72649900D01*
X86200100Y-72649900D01*
X86200100Y-71649900D01*
X88000100Y-71649900D01*
X88000100Y-71958512D01*
G37*
G36*
X88858500Y-72311800D02*
G01*
X88490100Y-72311800D01*
X88490100Y-71987800D01*
X88858500Y-71987800D01*
X88858500Y-72311800D01*
G37*
G36*
X88000100Y-69458612D02*
G01*
X88029388Y-69487900D01*
X88309900Y-69487900D01*
X88309900Y-69811900D01*
X88029387Y-69811900D01*
X88000100Y-69841187D01*
X88000100Y-70150000D01*
X86200100Y-70150000D01*
X86200100Y-69150000D01*
X88000100Y-69150000D01*
X88000100Y-69458612D01*
G37*
G36*
X88858500Y-69811900D02*
G01*
X88490100Y-69811900D01*
X88490100Y-69487900D01*
X88858500Y-69487900D01*
X88858500Y-69811900D01*
G37*
G36*
X76264200Y-57742550D02*
G01*
X75756200Y-57742550D01*
X75756200Y-56372450D01*
X76264200Y-56372450D01*
X76264200Y-57742550D01*
G37*
G36*
X77064300Y-57742550D02*
G01*
X76556300Y-57742550D01*
X76556300Y-56372450D01*
X77064300Y-56372450D01*
X77064300Y-57742550D01*
G37*
G36*
X77864100Y-57742550D02*
G01*
X77356100Y-57742550D01*
X77356100Y-56372450D01*
X77864100Y-56372450D01*
X77864100Y-57742550D01*
G37*
G36*
X78664200Y-57742550D02*
G01*
X78156200Y-57742550D01*
X78156200Y-56372450D01*
X78664200Y-56372450D01*
X78664200Y-57742550D01*
G37*
G36*
X79464300Y-57742550D02*
G01*
X78956300Y-57742550D01*
X78956300Y-56372450D01*
X79464300Y-56372450D01*
X79464300Y-57742550D01*
G37*
G36*
X80264200Y-57742550D02*
G01*
X79756200Y-57742550D01*
X79756200Y-56372450D01*
X80264200Y-56372450D01*
X80264200Y-57742550D01*
G37*
G36*
X81064300Y-57742550D02*
G01*
X80556300Y-57742550D01*
X80556300Y-56372450D01*
X81064300Y-56372450D01*
X81064300Y-57742550D01*
G37*
G36*
X76264200Y-53782750D02*
G01*
X75756200Y-53782750D01*
X75756200Y-52412650D01*
X76264200Y-52412650D01*
X76264200Y-53782750D01*
G37*
G36*
X77064300Y-53782750D02*
G01*
X76556300Y-53782750D01*
X76556300Y-52412650D01*
X77064300Y-52412650D01*
X77064300Y-53782750D01*
G37*
G36*
X77864100Y-53782750D02*
G01*
X77356100Y-53782750D01*
X77356100Y-52412650D01*
X77864100Y-52412650D01*
X77864100Y-53782750D01*
G37*
G36*
X78664200Y-53782750D02*
G01*
X78156200Y-53782750D01*
X78156200Y-52412650D01*
X78664200Y-52412650D01*
X78664200Y-53782750D01*
G37*
G36*
X79464300Y-53782750D02*
G01*
X78956300Y-53782750D01*
X78956300Y-52412650D01*
X79464300Y-52412650D01*
X79464300Y-53782750D01*
G37*
G36*
X80264200Y-53782750D02*
G01*
X79756200Y-53782750D01*
X79756200Y-52412650D01*
X80264200Y-52412650D01*
X80264200Y-53782750D01*
G37*
G36*
X81064300Y-53782750D02*
G01*
X80556300Y-53782750D01*
X80556300Y-52412650D01*
X81064300Y-52412650D01*
X81064300Y-53782750D01*
G37*
G36*
X78916750Y-39716700D02*
G01*
X78126650Y-39716700D01*
X78126650Y-39176700D01*
X78916750Y-39176700D01*
X78916750Y-39716700D01*
G37*
G36*
X80006950Y-39716700D02*
G01*
X79216850Y-39716700D01*
X79216850Y-39176700D01*
X80006950Y-39176700D01*
X80006950Y-39716700D01*
G37*
G36*
X53060350Y-39097700D02*
G01*
X52270250Y-39097700D01*
X52270250Y-38557700D01*
X53060350Y-38557700D01*
X53060350Y-39097700D01*
G37*
G36*
X54150450Y-39097700D02*
G01*
X53360350Y-39097700D01*
X53360350Y-38557700D01*
X54150450Y-38557700D01*
X54150450Y-39097700D01*
G37*
G36*
X92759600Y-36092700D02*
G01*
X92559600Y-36092700D01*
X92559600Y-35427700D01*
X92759600Y-35427700D01*
X92759600Y-36092700D01*
G37*
G36*
X93159600Y-36092700D02*
G01*
X92959600Y-36092700D01*
X92959600Y-35427700D01*
X93159600Y-35427700D01*
X93159600Y-36092700D01*
G37*
G36*
X93559400Y-36092700D02*
G01*
X93359400Y-36092700D01*
X93359400Y-35427700D01*
X93559400Y-35427700D01*
X93559400Y-36092700D01*
G37*
G36*
X93959500Y-36092700D02*
G01*
X93759500Y-36092700D01*
X93759500Y-35427700D01*
X93959500Y-35427700D01*
X93959500Y-36092700D01*
G37*
G36*
X92360100Y-35627800D02*
G01*
X91695100Y-35627800D01*
X91695100Y-35427800D01*
X92360100Y-35427800D01*
X92360100Y-35627800D01*
G37*
G36*
X94824400Y-35627800D02*
G01*
X94159400Y-35627800D01*
X94159400Y-35427800D01*
X94824400Y-35427800D01*
X94824400Y-35627800D01*
G37*
G36*
X92360100Y-35227700D02*
G01*
X91695100Y-35227700D01*
X91695100Y-35027700D01*
X92360100Y-35027700D01*
X92360100Y-35227700D01*
G37*
G36*
X94824400Y-35227700D02*
G01*
X94159400Y-35227700D01*
X94159400Y-35027700D01*
X94824400Y-35027700D01*
X94824400Y-35227700D01*
G37*
G36*
X92360100Y-34827700D02*
G01*
X91695100Y-34827700D01*
X91695100Y-34627700D01*
X92360100Y-34627700D01*
X92360100Y-34827700D01*
G37*
G36*
X94824400Y-34827700D02*
G01*
X94159400Y-34827700D01*
X94159400Y-34627700D01*
X94824400Y-34627700D01*
X94824400Y-34827700D01*
G37*
G36*
X92759600Y-34527800D02*
G01*
X92559600Y-34527800D01*
X92559600Y-33762800D01*
X92759600Y-33762800D01*
X92759600Y-34527800D01*
G37*
G36*
X92360100Y-34427900D02*
G01*
X91695100Y-34427900D01*
X91695100Y-34227900D01*
X92360100Y-34227900D01*
X92360100Y-34427900D01*
G37*
G36*
X94824200Y-34427900D02*
G01*
X94159200Y-34427900D01*
X94159200Y-34227900D01*
X94824200Y-34227900D01*
X94824200Y-34427900D01*
G37*
G36*
X93159600Y-34427700D02*
G01*
X92959600Y-34427700D01*
X92959600Y-33762700D01*
X93159600Y-33762700D01*
X93159600Y-34427700D01*
G37*
G36*
X93559400Y-34427700D02*
G01*
X93359400Y-34427700D01*
X93359400Y-33762700D01*
X93559400Y-33762700D01*
X93559400Y-34427700D01*
G37*
G36*
X93959500Y-34427700D02*
G01*
X93759500Y-34427700D01*
X93759500Y-33762700D01*
X93959500Y-33762700D01*
X93959500Y-34427700D01*
G37*
G36*
X65779146Y-33573366D02*
G01*
X65813634Y-33607854D01*
X65832298Y-33652914D01*
X65832298Y-33701686D01*
X65813634Y-33746746D01*
X65779146Y-33781234D01*
X65734086Y-33799898D01*
X65685314Y-33799898D01*
X65640254Y-33781234D01*
X65605766Y-33746746D01*
X65587102Y-33701686D01*
X65587102Y-33652914D01*
X65605766Y-33607854D01*
X65640254Y-33573366D01*
X65685314Y-33554702D01*
X65734086Y-33554702D01*
X65779146Y-33573366D01*
G37*
G36*
X66179146Y-33573366D02*
G01*
X66213634Y-33607854D01*
X66232298Y-33652914D01*
X66232298Y-33701686D01*
X66213634Y-33746746D01*
X66179146Y-33781234D01*
X66134086Y-33799898D01*
X66085314Y-33799898D01*
X66040254Y-33781234D01*
X66005766Y-33746746D01*
X65987102Y-33701686D01*
X65987102Y-33652914D01*
X66005766Y-33607854D01*
X66040254Y-33573366D01*
X66085314Y-33554702D01*
X66134086Y-33554702D01*
X66179146Y-33573366D01*
G37*
G36*
X66577746Y-33573366D02*
G01*
X66612234Y-33607854D01*
X66630898Y-33652914D01*
X66630898Y-33701686D01*
X66612234Y-33746746D01*
X66577746Y-33781234D01*
X66532686Y-33799898D01*
X66483914Y-33799898D01*
X66438854Y-33781234D01*
X66404366Y-33746746D01*
X66385702Y-33701686D01*
X66385702Y-33652914D01*
X66404366Y-33607854D01*
X66438854Y-33573366D01*
X66483914Y-33554702D01*
X66532686Y-33554702D01*
X66577746Y-33573366D01*
G37*
G36*
X66979246Y-33573366D02*
G01*
X67013734Y-33607854D01*
X67032398Y-33652914D01*
X67032398Y-33701686D01*
X67013734Y-33746746D01*
X66979246Y-33781234D01*
X66934186Y-33799898D01*
X66885414Y-33799898D01*
X66840354Y-33781234D01*
X66805866Y-33746746D01*
X66787202Y-33701686D01*
X66787202Y-33652914D01*
X66805866Y-33607854D01*
X66840354Y-33573366D01*
X66885414Y-33554702D01*
X66934186Y-33554702D01*
X66979246Y-33573366D01*
G37*
G36*
X67379346Y-33573366D02*
G01*
X67413834Y-33607854D01*
X67432498Y-33652914D01*
X67432498Y-33701686D01*
X67413834Y-33746746D01*
X67379346Y-33781234D01*
X67334286Y-33799898D01*
X67285514Y-33799898D01*
X67240454Y-33781234D01*
X67205966Y-33746746D01*
X67187302Y-33701686D01*
X67187302Y-33652914D01*
X67205966Y-33607854D01*
X67240454Y-33573366D01*
X67285514Y-33554702D01*
X67334286Y-33554702D01*
X67379346Y-33573366D01*
G37*
G36*
X65779146Y-33173366D02*
G01*
X65813634Y-33207854D01*
X65832298Y-33252914D01*
X65832298Y-33301686D01*
X65813634Y-33346746D01*
X65779146Y-33381234D01*
X65734086Y-33399898D01*
X65685314Y-33399898D01*
X65640254Y-33381234D01*
X65605766Y-33346746D01*
X65587102Y-33301686D01*
X65587102Y-33252914D01*
X65605766Y-33207854D01*
X65640254Y-33173366D01*
X65685314Y-33154702D01*
X65734086Y-33154702D01*
X65779146Y-33173366D01*
G37*
G36*
X66179146Y-33173366D02*
G01*
X66213634Y-33207854D01*
X66232298Y-33252914D01*
X66232298Y-33301686D01*
X66213634Y-33346746D01*
X66179146Y-33381234D01*
X66134086Y-33399898D01*
X66085314Y-33399898D01*
X66040254Y-33381234D01*
X66005766Y-33346746D01*
X65987102Y-33301686D01*
X65987102Y-33252914D01*
X66005766Y-33207854D01*
X66040254Y-33173366D01*
X66085314Y-33154702D01*
X66134086Y-33154702D01*
X66179146Y-33173366D01*
G37*
G36*
X66579246Y-33173366D02*
G01*
X66613734Y-33207854D01*
X66632398Y-33252914D01*
X66632398Y-33301686D01*
X66613734Y-33346746D01*
X66579246Y-33381234D01*
X66534186Y-33399898D01*
X66485414Y-33399898D01*
X66440354Y-33381234D01*
X66405866Y-33346746D01*
X66387202Y-33301686D01*
X66387202Y-33252914D01*
X66405866Y-33207854D01*
X66440354Y-33173366D01*
X66485414Y-33154702D01*
X66534186Y-33154702D01*
X66579246Y-33173366D01*
G37*
G36*
X66979246Y-33173366D02*
G01*
X67013734Y-33207854D01*
X67032398Y-33252914D01*
X67032398Y-33301686D01*
X67013734Y-33346746D01*
X66979246Y-33381234D01*
X66934186Y-33399898D01*
X66885414Y-33399898D01*
X66840354Y-33381234D01*
X66805866Y-33346746D01*
X66787202Y-33301686D01*
X66787202Y-33252914D01*
X66805866Y-33207854D01*
X66840354Y-33173366D01*
X66885414Y-33154702D01*
X66934186Y-33154702D01*
X66979246Y-33173366D01*
G37*
G36*
X67379346Y-33173366D02*
G01*
X67413834Y-33207854D01*
X67432498Y-33252914D01*
X67432498Y-33301686D01*
X67413834Y-33346746D01*
X67379346Y-33381234D01*
X67334286Y-33399898D01*
X67285514Y-33399898D01*
X67240454Y-33381234D01*
X67205966Y-33346746D01*
X67187302Y-33301686D01*
X67187302Y-33252914D01*
X67205966Y-33207854D01*
X67240454Y-33173366D01*
X67285514Y-33154702D01*
X67334286Y-33154702D01*
X67379346Y-33173366D01*
G37*
G36*
X45543100Y-33084500D02*
G01*
X45174700Y-33084500D01*
X45174700Y-32760500D01*
X45543100Y-32760500D01*
X45543100Y-33084500D01*
G37*
G36*
X65779146Y-32773266D02*
G01*
X65813634Y-32807754D01*
X65832298Y-32852814D01*
X65832298Y-32901586D01*
X65813634Y-32946646D01*
X65779146Y-32981134D01*
X65734086Y-32999798D01*
X65685314Y-32999798D01*
X65640254Y-32981134D01*
X65605766Y-32946646D01*
X65587102Y-32901586D01*
X65587102Y-32852814D01*
X65605766Y-32807754D01*
X65640254Y-32773266D01*
X65685314Y-32754602D01*
X65734086Y-32754602D01*
X65779146Y-32773266D01*
G37*
G36*
X66179146Y-32773266D02*
G01*
X66213634Y-32807754D01*
X66232298Y-32852814D01*
X66232298Y-32901586D01*
X66213634Y-32946646D01*
X66179146Y-32981134D01*
X66134086Y-32999798D01*
X66085314Y-32999798D01*
X66040254Y-32981134D01*
X66005766Y-32946646D01*
X65987102Y-32901586D01*
X65987102Y-32852814D01*
X66005766Y-32807754D01*
X66040254Y-32773266D01*
X66085314Y-32754602D01*
X66134086Y-32754602D01*
X66179146Y-32773266D01*
G37*
G36*
X66579246Y-32773266D02*
G01*
X66613734Y-32807754D01*
X66632398Y-32852814D01*
X66632398Y-32901586D01*
X66613734Y-32946646D01*
X66579246Y-32981134D01*
X66534186Y-32999798D01*
X66485414Y-32999798D01*
X66440354Y-32981134D01*
X66405866Y-32946646D01*
X66387202Y-32901586D01*
X66387202Y-32852814D01*
X66405866Y-32807754D01*
X66440354Y-32773266D01*
X66485414Y-32754602D01*
X66534186Y-32754602D01*
X66579246Y-32773266D01*
G37*
G36*
X66979246Y-32773266D02*
G01*
X67013734Y-32807754D01*
X67032398Y-32852814D01*
X67032398Y-32901586D01*
X67013734Y-32946646D01*
X66979246Y-32981134D01*
X66934186Y-32999798D01*
X66885414Y-32999798D01*
X66840354Y-32981134D01*
X66805866Y-32946646D01*
X66787202Y-32901586D01*
X66787202Y-32852814D01*
X66805866Y-32807754D01*
X66840354Y-32773266D01*
X66885414Y-32754602D01*
X66934186Y-32754602D01*
X66979246Y-32773266D01*
G37*
G36*
X67379346Y-32773266D02*
G01*
X67413834Y-32807754D01*
X67432498Y-32852814D01*
X67432498Y-32901586D01*
X67413834Y-32946646D01*
X67379346Y-32981134D01*
X67334286Y-32999798D01*
X67285514Y-32999798D01*
X67240454Y-32981134D01*
X67205966Y-32946646D01*
X67187302Y-32901586D01*
X67187302Y-32852814D01*
X67205966Y-32807754D01*
X67240454Y-32773266D01*
X67285514Y-32754602D01*
X67334286Y-32754602D01*
X67379346Y-32773266D01*
G37*
G36*
X65779146Y-32373266D02*
G01*
X65813634Y-32407754D01*
X65832298Y-32452814D01*
X65832298Y-32501586D01*
X65813634Y-32546646D01*
X65779146Y-32581134D01*
X65734086Y-32599798D01*
X65685314Y-32599798D01*
X65640254Y-32581134D01*
X65605766Y-32546646D01*
X65587102Y-32501586D01*
X65587102Y-32452814D01*
X65605766Y-32407754D01*
X65640254Y-32373266D01*
X65685314Y-32354602D01*
X65734086Y-32354602D01*
X65779146Y-32373266D01*
G37*
G36*
X66179146Y-32373266D02*
G01*
X66213634Y-32407754D01*
X66232298Y-32452814D01*
X66232298Y-32501586D01*
X66213634Y-32546646D01*
X66179146Y-32581134D01*
X66134086Y-32599798D01*
X66085314Y-32599798D01*
X66040254Y-32581134D01*
X66005766Y-32546646D01*
X65987102Y-32501586D01*
X65987102Y-32452814D01*
X66005766Y-32407754D01*
X66040254Y-32373266D01*
X66085314Y-32354602D01*
X66134086Y-32354602D01*
X66179146Y-32373266D01*
G37*
G36*
X66579246Y-32373266D02*
G01*
X66613734Y-32407754D01*
X66632398Y-32452814D01*
X66632398Y-32501586D01*
X66613734Y-32546646D01*
X66579246Y-32581134D01*
X66534186Y-32599798D01*
X66485414Y-32599798D01*
X66440354Y-32581134D01*
X66405866Y-32546646D01*
X66387202Y-32501586D01*
X66387202Y-32452814D01*
X66405866Y-32407754D01*
X66440354Y-32373266D01*
X66485414Y-32354602D01*
X66534186Y-32354602D01*
X66579246Y-32373266D01*
G37*
G36*
X66979246Y-32373266D02*
G01*
X67013734Y-32407754D01*
X67032398Y-32452814D01*
X67032398Y-32501586D01*
X67013734Y-32546646D01*
X66979246Y-32581134D01*
X66934186Y-32599798D01*
X66885414Y-32599798D01*
X66840354Y-32581134D01*
X66805866Y-32546646D01*
X66787202Y-32501586D01*
X66787202Y-32452814D01*
X66805866Y-32407754D01*
X66840354Y-32373266D01*
X66885414Y-32354602D01*
X66934186Y-32354602D01*
X66979246Y-32373266D01*
G37*
G36*
X67379346Y-32373266D02*
G01*
X67413834Y-32407754D01*
X67432498Y-32452814D01*
X67432498Y-32501586D01*
X67413834Y-32546646D01*
X67379346Y-32581134D01*
X67334286Y-32599798D01*
X67285514Y-32599798D01*
X67240454Y-32581134D01*
X67205966Y-32546646D01*
X67187302Y-32501586D01*
X67187302Y-32452814D01*
X67205966Y-32407754D01*
X67240454Y-32373266D01*
X67285514Y-32354602D01*
X67334286Y-32354602D01*
X67379346Y-32373266D01*
G37*
G36*
X45543100Y-32535900D02*
G01*
X45174700Y-32535900D01*
X45174700Y-32211900D01*
X45543100Y-32211900D01*
X45543100Y-32535900D01*
G37*
G36*
X65779146Y-31973166D02*
G01*
X65813634Y-32007654D01*
X65832298Y-32052714D01*
X65832298Y-32101486D01*
X65813634Y-32146546D01*
X65779146Y-32181034D01*
X65734086Y-32199698D01*
X65685314Y-32199698D01*
X65640254Y-32181034D01*
X65605766Y-32146546D01*
X65587102Y-32101486D01*
X65587102Y-32052714D01*
X65605766Y-32007654D01*
X65640254Y-31973166D01*
X65685314Y-31954502D01*
X65734086Y-31954502D01*
X65779146Y-31973166D01*
G37*
G36*
X66179146Y-31973166D02*
G01*
X66213634Y-32007654D01*
X66232298Y-32052714D01*
X66232298Y-32101486D01*
X66213634Y-32146546D01*
X66179146Y-32181034D01*
X66134086Y-32199698D01*
X66085314Y-32199698D01*
X66040254Y-32181034D01*
X66005766Y-32146546D01*
X65987102Y-32101486D01*
X65987102Y-32052714D01*
X66005766Y-32007654D01*
X66040254Y-31973166D01*
X66085314Y-31954502D01*
X66134086Y-31954502D01*
X66179146Y-31973166D01*
G37*
G36*
X66579246Y-31973166D02*
G01*
X66613734Y-32007654D01*
X66632398Y-32052714D01*
X66632398Y-32101486D01*
X66613734Y-32146546D01*
X66579246Y-32181034D01*
X66534186Y-32199698D01*
X66485414Y-32199698D01*
X66440354Y-32181034D01*
X66405866Y-32146546D01*
X66387202Y-32101486D01*
X66387202Y-32052714D01*
X66405866Y-32007654D01*
X66440354Y-31973166D01*
X66485414Y-31954502D01*
X66534186Y-31954502D01*
X66579246Y-31973166D01*
G37*
G36*
X66979246Y-31973166D02*
G01*
X67013734Y-32007654D01*
X67032398Y-32052714D01*
X67032398Y-32101486D01*
X67013734Y-32146546D01*
X66979246Y-32181034D01*
X66934186Y-32199698D01*
X66885414Y-32199698D01*
X66840354Y-32181034D01*
X66805866Y-32146546D01*
X66787202Y-32101486D01*
X66787202Y-32052714D01*
X66805866Y-32007654D01*
X66840354Y-31973166D01*
X66885414Y-31954502D01*
X66934186Y-31954502D01*
X66979246Y-31973166D01*
G37*
G36*
X67379346Y-31973166D02*
G01*
X67413834Y-32007654D01*
X67432498Y-32052714D01*
X67432498Y-32101486D01*
X67413834Y-32146546D01*
X67379346Y-32181034D01*
X67334286Y-32199698D01*
X67285514Y-32199698D01*
X67240454Y-32181034D01*
X67205966Y-32146546D01*
X67187302Y-32101486D01*
X67187302Y-32052714D01*
X67205966Y-32007654D01*
X67240454Y-31973166D01*
X67285514Y-31954502D01*
X67334286Y-31954502D01*
X67379346Y-31973166D01*
G37*
G36*
X66559949Y-31347000D02*
G01*
X65769849Y-31347000D01*
X65769849Y-30807000D01*
X66559949Y-30807000D01*
X66559949Y-31347000D01*
G37*
G36*
X67650049Y-31347000D02*
G01*
X66859949Y-31347000D01*
X66859949Y-30807000D01*
X67650049Y-30807000D01*
X67650049Y-31347000D01*
G37*
G36*
X67560050Y-30547000D02*
G01*
X66769950Y-30547000D01*
X66769950Y-30007000D01*
X67560050Y-30007000D01*
X67560050Y-30547000D01*
G37*
G36*
X68650150Y-30547000D02*
G01*
X67860050Y-30547000D01*
X67860050Y-30007000D01*
X68650150Y-30007000D01*
X68650150Y-30547000D01*
G37*
G36*
X58311250Y-28631200D02*
G01*
X58008150Y-28631200D01*
X58008150Y-28307200D01*
X58311250Y-28307200D01*
X58311250Y-28631200D01*
G37*
G36*
X58311250Y-28148100D02*
G01*
X58008150Y-28148100D01*
X58008150Y-27824100D01*
X58311250Y-27824100D01*
X58311250Y-28148100D01*
G37*
G36*
X51329646Y-27373766D02*
G01*
X51364134Y-27408254D01*
X51382798Y-27453314D01*
X51382798Y-27502086D01*
X51364134Y-27547146D01*
X51329646Y-27581634D01*
X51284586Y-27600298D01*
X51235814Y-27600298D01*
X51190754Y-27581634D01*
X51156266Y-27547146D01*
X51137602Y-27502086D01*
X51137602Y-27453314D01*
X51156266Y-27408254D01*
X51190754Y-27373766D01*
X51235814Y-27355102D01*
X51284586Y-27355102D01*
X51329646Y-27373766D01*
G37*
G36*
X51829746Y-27373766D02*
G01*
X51864234Y-27408254D01*
X51882898Y-27453314D01*
X51882898Y-27502086D01*
X51864234Y-27547146D01*
X51829746Y-27581634D01*
X51784686Y-27600298D01*
X51735914Y-27600298D01*
X51690854Y-27581634D01*
X51656366Y-27547146D01*
X51637702Y-27502086D01*
X51637702Y-27453314D01*
X51656366Y-27408254D01*
X51690854Y-27373766D01*
X51735914Y-27355102D01*
X51784686Y-27355102D01*
X51829746Y-27373766D01*
G37*
G36*
X52329646Y-27373766D02*
G01*
X52364134Y-27408254D01*
X52382798Y-27453314D01*
X52382798Y-27502086D01*
X52364134Y-27547146D01*
X52329646Y-27581634D01*
X52284586Y-27600298D01*
X52235814Y-27600298D01*
X52190754Y-27581634D01*
X52156266Y-27547146D01*
X52137602Y-27502086D01*
X52137602Y-27453314D01*
X52156266Y-27408254D01*
X52190754Y-27373766D01*
X52235814Y-27355102D01*
X52284586Y-27355102D01*
X52329646Y-27373766D01*
G37*
G36*
X51329646Y-26873866D02*
G01*
X51364134Y-26908354D01*
X51382798Y-26953414D01*
X51382798Y-27002186D01*
X51364134Y-27047246D01*
X51329646Y-27081734D01*
X51284586Y-27100398D01*
X51235814Y-27100398D01*
X51190754Y-27081734D01*
X51156266Y-27047246D01*
X51137602Y-27002186D01*
X51137602Y-26953414D01*
X51156266Y-26908354D01*
X51190754Y-26873866D01*
X51235814Y-26855202D01*
X51284586Y-26855202D01*
X51329646Y-26873866D01*
G37*
G36*
X51829746Y-26873866D02*
G01*
X51864234Y-26908354D01*
X51882898Y-26953414D01*
X51882898Y-27002186D01*
X51864234Y-27047246D01*
X51829746Y-27081734D01*
X51784686Y-27100398D01*
X51735914Y-27100398D01*
X51690854Y-27081734D01*
X51656366Y-27047246D01*
X51637702Y-27002186D01*
X51637702Y-26953414D01*
X51656366Y-26908354D01*
X51690854Y-26873866D01*
X51735914Y-26855202D01*
X51784686Y-26855202D01*
X51829746Y-26873866D01*
G37*
G36*
X52329646Y-26873866D02*
G01*
X52364134Y-26908354D01*
X52382798Y-26953414D01*
X52382798Y-27002186D01*
X52364134Y-27047246D01*
X52329646Y-27081734D01*
X52284586Y-27100398D01*
X52235814Y-27100398D01*
X52190754Y-27081734D01*
X52156266Y-27047246D01*
X52137602Y-27002186D01*
X52137602Y-26953414D01*
X52156266Y-26908354D01*
X52190754Y-26873866D01*
X52235814Y-26855202D01*
X52284586Y-26855202D01*
X52329646Y-26873866D01*
G37*
G36*
X84410400Y-26622800D02*
G01*
X84110400Y-26622800D01*
X84110400Y-26102800D01*
X84410400Y-26102800D01*
X84410400Y-26622800D01*
G37*
G36*
X84910500Y-26622800D02*
G01*
X84610500Y-26622800D01*
X84610500Y-26102800D01*
X84910500Y-26102800D01*
X84910500Y-26622800D01*
G37*
G36*
X85410400Y-26622800D02*
G01*
X85110400Y-26622800D01*
X85110400Y-26102800D01*
X85410400Y-26102800D01*
X85410400Y-26622800D01*
G37*
G36*
X51329646Y-26373766D02*
G01*
X51364134Y-26408254D01*
X51382798Y-26453314D01*
X51382798Y-26502086D01*
X51364134Y-26547146D01*
X51329646Y-26581634D01*
X51284586Y-26600298D01*
X51235814Y-26600298D01*
X51190754Y-26581634D01*
X51156266Y-26547146D01*
X51137602Y-26502086D01*
X51137602Y-26453314D01*
X51156266Y-26408254D01*
X51190754Y-26373766D01*
X51235814Y-26355102D01*
X51284586Y-26355102D01*
X51329646Y-26373766D01*
G37*
G36*
X51829746Y-26373766D02*
G01*
X51864234Y-26408254D01*
X51882898Y-26453314D01*
X51882898Y-26502086D01*
X51864234Y-26547146D01*
X51829746Y-26581634D01*
X51784686Y-26600298D01*
X51735914Y-26600298D01*
X51690854Y-26581634D01*
X51656366Y-26547146D01*
X51637702Y-26502086D01*
X51637702Y-26453314D01*
X51656366Y-26408254D01*
X51690854Y-26373766D01*
X51735914Y-26355102D01*
X51784686Y-26355102D01*
X51829746Y-26373766D01*
G37*
G36*
X52329646Y-26373766D02*
G01*
X52364134Y-26408254D01*
X52382798Y-26453314D01*
X52382798Y-26502086D01*
X52364134Y-26547146D01*
X52329646Y-26581634D01*
X52284586Y-26600298D01*
X52235814Y-26600298D01*
X52190754Y-26581634D01*
X52156266Y-26547146D01*
X52137602Y-26502086D01*
X52137602Y-26453314D01*
X52156266Y-26408254D01*
X52190754Y-26373766D01*
X52235814Y-26355102D01*
X52284586Y-26355102D01*
X52329646Y-26373766D01*
G37*
G36*
X78944600Y-26524000D02*
G01*
X78576200Y-26524000D01*
X78576200Y-26200000D01*
X78944600Y-26200000D01*
X78944600Y-26524000D01*
G37*
G36*
X45510750Y-26123200D02*
G01*
X45207650Y-26123200D01*
X45207650Y-25799200D01*
X45510750Y-25799200D01*
X45510750Y-26123200D01*
G37*
G36*
X78944600Y-25975400D02*
G01*
X78576200Y-25975400D01*
X78576200Y-25651400D01*
X78944600Y-25651400D01*
X78944600Y-25975400D01*
G37*
G36*
X84410400Y-25852700D02*
G01*
X84110400Y-25852700D01*
X84110400Y-25332700D01*
X84410400Y-25332700D01*
X84410400Y-25852700D01*
G37*
G36*
X84910500Y-25852700D02*
G01*
X84610500Y-25852700D01*
X84610500Y-25332700D01*
X84910500Y-25332700D01*
X84910500Y-25852700D01*
G37*
G36*
X85410400Y-25852700D02*
G01*
X85110400Y-25852700D01*
X85110400Y-25332700D01*
X85410400Y-25332700D01*
X85410400Y-25852700D01*
G37*
G36*
X45510750Y-25640100D02*
G01*
X45207650Y-25640100D01*
X45207650Y-25316100D01*
X45510750Y-25316100D01*
X45510750Y-25640100D01*
G37*
G36*
X91010250Y-25539700D02*
G01*
X90707150Y-25539700D01*
X90707150Y-25215700D01*
X91010250Y-25215700D01*
X91010250Y-25539700D01*
G37*
G36*
X69470200Y-25139800D02*
G01*
X69101800Y-25139800D01*
X69101800Y-24815800D01*
X69470200Y-24815800D01*
X69470200Y-25139800D01*
G37*
G36*
X70018800Y-25139800D02*
G01*
X69650400Y-25139800D01*
X69650400Y-24815800D01*
X70018800Y-24815800D01*
X70018800Y-25139800D01*
G37*
G36*
X62719700Y-25139600D02*
G01*
X62351300Y-25139600D01*
X62351300Y-24815600D01*
X62719700Y-24815600D01*
X62719700Y-25139600D01*
G37*
G36*
X63268300Y-25139600D02*
G01*
X62899900Y-25139600D01*
X62899900Y-24815600D01*
X63268300Y-24815600D01*
X63268300Y-25139600D01*
G37*
G36*
X91010250Y-25056600D02*
G01*
X90707150Y-25056600D01*
X90707150Y-24732600D01*
X91010250Y-24732600D01*
X91010250Y-25056600D01*
G37*
G36*
X58193900Y-22014000D02*
G01*
X57825500Y-22014000D01*
X57825500Y-21690000D01*
X58193900Y-21690000D01*
X58193900Y-22014000D01*
G37*
G36*
X58193900Y-21465400D02*
G01*
X57825500Y-21465400D01*
X57825500Y-21141400D01*
X58193900Y-21141400D01*
X58193900Y-21465400D01*
G37*
G36*
X50309750Y-20497600D02*
G01*
X49744050Y-20497600D01*
X49744050Y-19957600D01*
X50309750Y-19957600D01*
X50309750Y-20497600D01*
G37*
G36*
X51175350Y-20497600D02*
G01*
X50609650Y-20497600D01*
X50609650Y-19957600D01*
X51175350Y-19957600D01*
X51175350Y-20497600D01*
G37*
G36*
X46282750Y-13580400D02*
G01*
X45717050Y-13580400D01*
X45717050Y-13040400D01*
X46282750Y-13040400D01*
X46282750Y-13580400D01*
G37*
G36*
X46282750Y-12714800D02*
G01*
X45717050Y-12714800D01*
X45717050Y-12174800D01*
X46282750Y-12174800D01*
X46282750Y-12714800D01*
G37*
G36*
X74489700Y-9164200D02*
G01*
X72689700Y-9164200D01*
X72689700Y-7764200D01*
X74489700Y-7764200D01*
X74489700Y-9164200D01*
G37*
G36*
X84629600Y-9164200D02*
G01*
X82829600Y-9164200D01*
X82829600Y-7764200D01*
X84629600Y-7764200D01*
X84629600Y-9164200D01*
G37*
G36*
X45611450Y-5581300D02*
G01*
X45308350Y-5581300D01*
X45308350Y-5257300D01*
X45611450Y-5257300D01*
X45611450Y-5581300D01*
G37*
G36*
X49561750Y-5581200D02*
G01*
X49258650Y-5581200D01*
X49258650Y-5257200D01*
X49561750Y-5257200D01*
X49561750Y-5581200D01*
G37*
G36*
X74489700Y-5229100D02*
G01*
X72689700Y-5229100D01*
X72689700Y-3779100D01*
X74489700Y-3779100D01*
X74489700Y-5229100D01*
G37*
G36*
X84629600Y-5229100D02*
G01*
X82829600Y-5229100D01*
X82829600Y-3779100D01*
X84629600Y-3779100D01*
X84629600Y-5229100D01*
G37*
G36*
X45611450Y-5098200D02*
G01*
X45308350Y-5098200D01*
X45308350Y-4774200D01*
X45611450Y-4774200D01*
X45611450Y-5098200D01*
G37*
G36*
X49561750Y-5098100D02*
G01*
X49258650Y-5098100D01*
X49258650Y-4774100D01*
X49561750Y-4774100D01*
X49561750Y-5098100D01*
G37*
G36*
X104854850Y-4492700D02*
G01*
X104064750Y-4492700D01*
X104064750Y-3952700D01*
X104854850Y-3952700D01*
X104854850Y-4492700D01*
G37*
G36*
X75759700Y-4316200D02*
G01*
X75159700Y-4316200D01*
X75159700Y-2866200D01*
X75759700Y-2866200D01*
X75759700Y-4316200D01*
G37*
G36*
X76559800Y-4316200D02*
G01*
X75959800Y-4316200D01*
X75959800Y-2866200D01*
X76559800Y-2866200D01*
X76559800Y-4316200D01*
G37*
G36*
X77059700Y-4316200D02*
G01*
X76759700Y-4316200D01*
X76759700Y-2866200D01*
X77059700Y-2866200D01*
X77059700Y-4316200D01*
G37*
G36*
X77559900Y-4316200D02*
G01*
X77259900Y-4316200D01*
X77259900Y-2866200D01*
X77559900Y-2866200D01*
X77559900Y-4316200D01*
G37*
G36*
X78059700Y-4316200D02*
G01*
X77759700Y-4316200D01*
X77759700Y-2866200D01*
X78059700Y-2866200D01*
X78059700Y-4316200D01*
G37*
G36*
X78559900Y-4316200D02*
G01*
X78259900Y-4316200D01*
X78259900Y-2866200D01*
X78559900Y-2866200D01*
X78559900Y-4316200D01*
G37*
G36*
X79059700Y-4316200D02*
G01*
X78759700Y-4316200D01*
X78759700Y-2866200D01*
X79059700Y-2866200D01*
X79059700Y-4316200D01*
G37*
G36*
X79559900Y-4316200D02*
G01*
X79259900Y-4316200D01*
X79259900Y-2866200D01*
X79559900Y-2866200D01*
X79559900Y-4316200D01*
G37*
G36*
X80059700Y-4316200D02*
G01*
X79759700Y-4316200D01*
X79759700Y-2866200D01*
X80059700Y-2866200D01*
X80059700Y-4316200D01*
G37*
G36*
X80559900Y-4316200D02*
G01*
X80259900Y-4316200D01*
X80259900Y-2866200D01*
X80559900Y-2866200D01*
X80559900Y-4316200D01*
G37*
G36*
X81359800Y-4316200D02*
G01*
X80759800Y-4316200D01*
X80759800Y-2866200D01*
X81359800Y-2866200D01*
X81359800Y-4316200D01*
G37*
G36*
X82159700Y-4316200D02*
G01*
X81559700Y-4316200D01*
X81559700Y-2866200D01*
X82159700Y-2866200D01*
X82159700Y-4316200D01*
G37*
G36*
X104854850Y-3402600D02*
G01*
X104064750Y-3402600D01*
X104064750Y-2862600D01*
X104854850Y-2862600D01*
X104854850Y-3402600D01*
G37*
G36*
X109193900Y-1714000D02*
G01*
X108825500Y-1714000D01*
X108825500Y-1390000D01*
X109193900Y-1390000D01*
X109193900Y-1714000D01*
G37*
G36*
X109193900Y-1165400D02*
G01*
X108825500Y-1165400D01*
X108825500Y-841400D01*
X109193900Y-841400D01*
X109193900Y-1165400D01*
G37*
M02*
