M48
; DRILL file {KiCad 9.0.9-9.0.9~ubuntu22.04.1} date 2026-09-18T13:39:50-0400
; FORMAT={-:-/ absolute / metric / decimal}
; #@! TF.CreationDate,2026-09-18T13:39:50-04:00
; #@! TF.GenerationSoftware,Kicad,Pcbnew,9.0.9-9.0.9~ubuntu22.04.1
; #@! TF.FileFunction,MixedPlating,1,6
FMAT,2
METRIC
; #@! TA.AperFunction,Plated,PTH,ViaDrill
T1C0.100
; #@! TA.AperFunction,Plated,PTH,ViaDrill
T2C0.150
; #@! TA.AperFunction,Plated,PTH,ViaDrill
T3C0.300
%
G90
G05
T1
X56.171Y-120.478
X56.603Y-112.287
X56.719Y-124.327
X56.898Y-111.885
X57.144Y-110.745
X57.589Y-111.652
X57.74Y-112.148
X58.0Y-109.0
X58.09Y-110.748
X58.09Y-112.148
X58.16Y-28.469
X58.2Y-106.398
X58.24Y-109.278
X58.278Y-113.843
X58.44Y-111.098
X58.44Y-111.798
X58.79Y-111.798
X59.0Y-108.5
X59.1Y-111.798
X59.14Y-112.148
X59.19Y-113.498
X59.238Y-112.397
X59.403Y-112.168
X59.466Y-108.279
X59.49Y-110.748
X59.49Y-111.798
X59.49Y-112.498
X60.245Y-111.624
X60.52Y-110.459
X60.64Y-109.2
X61.643Y-113.209
X61.789Y-113.726
X61.89Y-102.898
X61.955Y-111.436
X62.266Y-105.478
X62.282Y-113.837
X62.623Y-25.661
X62.798Y-28.378
X63.24Y-116.998
X63.86Y-113.336
X64.0Y-103.378
X64.14Y-91.978
X64.81Y-32.877
X64.84Y-90.898
X65.066Y-98.078
X65.1Y-91.198
X65.931Y-32.249
X66.01Y-33.415
X66.031Y-33.949
X66.11Y-32.877
X66.136Y-29.742
X66.298Y-32.25
X66.373Y-30.437
X66.51Y-31.877
X66.58Y-32.877
X66.91Y-33.677
X67.085Y-36.295
X67.109Y-32.877
X67.6Y-33.0
X67.74Y-33.292
X67.9Y-33.0
X68.166Y-86.578
X68.384Y-32.044
X68.843Y-31.049
X69.375Y-32.472
X69.4Y-44.293
X69.94Y-118.6
X73.485Y-38.995
X74.185Y-38.995
X75.74Y-54.598
X76.01Y-53.098
X76.189Y-109.154
X76.266Y-73.178
X76.81Y-53.098
X76.905Y-17.843
X77.51Y-73.078
X77.61Y-53.098
X77.731Y-52.049
X77.741Y-75.128
X78.312Y-133.334
X78.39Y-53.198
X78.466Y-71.378
X78.582Y-134.785
X78.8Y-76.678
X79.44Y-132.4
X79.585Y-75.067
X80.0Y-58.9
X80.2Y-65.4
X80.235Y-74.599
X80.668Y-72.175
X81.585Y-64.728
X81.921Y-64.995
X81.966Y-71.578
X82.16Y-67.917
X82.221Y-68.295
X82.36Y-64.945
X82.66Y-63.545
X82.721Y-68.005
X83.269Y-68.438
X83.689Y-101.654
X84.195Y-67.486
X84.221Y-65.75
X85.021Y-55.395
X85.489Y-100.454
X85.535Y-110.724
X86.534Y-72.953
X86.685Y-76.328
X87.021Y-46.995
X87.035Y-114.623
X87.435Y-114.499
X88.985Y-42.295
X89.235Y-118.023
X89.285Y-117.578
X90.285Y-34.095
X91.221Y-33.695
X91.985Y-32.695
X92.085Y-36.095
X92.114Y-34.378
X93.105Y-32.743
X93.105Y-35.743
X93.385Y-34.795
X93.559Y-32.095
X93.869Y-59.1
X94.385Y-84.028
X94.528Y-34.228
X104.61Y-110.228
X104.846Y-109.705
X104.86Y-110.801
X105.385Y-109.698
X105.56Y-110.964
X105.585Y-110.328
X106.334Y-110.828
X110.284Y-44.224
T2
X51.76Y-26.978
X56.79Y-110.748
X56.79Y-111.448
X57.39Y-113.098
X57.565Y-109.9
X57.915Y-112.948
X58.09Y-109.798
X58.44Y-113.098
X59.231Y-109.948
X62.535Y-24.978
X66.91Y-30.9
X67.91Y-33.977
X68.01Y-31.95
X75.65Y-66.8
X76.2Y-74.528
X78.8Y-25.813
X78.932Y-132.069
X89.124Y-69.65
X89.124Y-72.15
X96.0Y-34.328
X96.5Y-34.928
X96.5Y-35.528
X109.01Y-1.552
X110.534Y-62.978
T3
X44.893Y-31.785
X44.895Y-4.446
X45.567Y-12.093
X46.651Y-12.087
X48.059Y-99.725
X48.21Y-106.647
X48.348Y-118.147
X48.556Y-110.549
X50.027Y-24.022
X50.082Y-5.638
X50.877Y-28.006
X51.579Y-28.607
X51.76Y-24.395
X52.26Y-28.118
X52.665Y-35.957
X53.962Y-39.606
X53.966Y-33.045
X54.539Y-32.472
X56.115Y-102.381
X57.205Y-102.386
X57.806Y-20.91
X58.067Y-22.258
X58.827Y-28.683
X58.828Y-27.772
X61.768Y-123.733
X62.211Y-25.661
X62.26Y-121.909
X62.66Y-44.293
X63.299Y-24.299
X64.288Y-116.382
X64.41Y-99.739
X64.478Y-43.14
X65.117Y-133.856
X65.264Y-31.468
X65.684Y-34.307
X65.812Y-134.991
X66.553Y-42.765
X69.885Y-131.464
X70.029Y-21.318
X70.384Y-119.574
X71.405Y-16.781
X72.505Y-16.783
X73.096Y-43.166
X73.642Y-3.273
X74.028Y-25.487
X74.705Y-18.899
X75.487Y-126.733
X75.683Y-18.913
X75.774Y-25.82
X75.78Y-58.274
X76.155Y-16.791
X76.163Y-68.853
X76.289Y-96.598
X76.294Y-110.532
X76.487Y-4.845
X76.71Y-95.166
X76.735Y-58.676
X76.91Y-2.362
X77.044Y-43.073
X77.054Y-43.972
X77.297Y-117.488
X77.298Y-115.847
X77.459Y-125.401
X77.485Y-58.273
X77.532Y-131.757
X77.533Y-96.6
X77.545Y-135.451
X77.603Y-39.225
X77.803Y-67.754
X78.005Y-18.887
X78.129Y-69.207
X78.232Y-132.191
X78.235Y-65.199
X78.262Y-25.402
X78.409Y-58.268
X78.411Y-135.455
X78.585Y-95.398
X78.61Y-67.598
X78.703Y-4.825
X78.855Y-72.353
X79.098Y-129.559
X79.282Y-135.446
X79.367Y-23.765
X79.413Y-51.91
X79.735Y-65.224
X79.83Y-116.274
X79.902Y-72.365
X79.91Y-4.828
X80.3Y-51.91
X80.431Y-59.33
X80.505Y-58.245
X80.591Y-67.599
X80.619Y-109.8
X80.982Y-25.803
X81.515Y-54.084
X81.785Y-70.489
X81.901Y-74.785
X82.102Y-72.368
X82.278Y-43.983
X82.283Y-43.067
X82.529Y-75.306
X82.588Y-70.127
X83.06Y-72.354
X83.063Y-69.448
X83.105Y-74.747
X83.185Y-99.756
X83.702Y-65.209
X83.73Y-3.273
X83.846Y-107.564
X84.347Y-95.555
X84.54Y-24.81
X84.81Y-74.823
X84.826Y-65.114
X85.259Y-24.371
X85.26Y-2.359
X85.589Y-73.351
X85.608Y-66.603
X85.795Y-71.529
X85.82Y-70.601
X86.106Y-117.578
X86.165Y-43.769
X86.658Y-118.178
X88.06Y-113.896
X88.76Y-95.372
X89.408Y-38.146
X89.491Y-116.87
X90.189Y-24.675
X90.996Y-35.128
X91.108Y-116.191
X91.531Y-25.378
X92.002Y-95.855
X92.092Y-133.044
X92.102Y-126.971
X92.514Y-36.6
X92.77Y-131.009
X92.802Y-40.86
X93.339Y-96.549
X93.459Y-36.598
X94.073Y-43.012
X94.362Y-116.87
X94.362Y-118.774
X95.893Y-96.549
X96.068Y-95.547
X96.876Y-42.645
X97.86Y-116.85
X99.83Y-96.08
X100.279Y-97.207
X100.631Y-42.801
X101.21Y-44.46
X103.546Y-3.136
X103.632Y-96.384
X104.378Y-94.86
X105.254Y-42.242
X105.652Y-3.703
X105.89Y-44.142
X106.613Y-43.084
X107.455Y-85.115
X107.455Y-96.816
X107.769Y-32.755
X108.583Y-27.851
X108.583Y-29.104
X109.521Y-38.069
X109.803Y-63.642
X110.519Y-1.142
X110.93Y-31.257
X111.98Y-95.67
M30
